<mxfile host="app.diagrams.net" modified="2021-06-29T19:33:43.019Z" agent="5.0 (Windows NT 10.0; Win64; x64) AppleWebKit/537.36 (KHTML, like Gecko) Chrome/91.0.4472.114 Safari/537.36" etag="c3ljkpiwbM0Smz0SBSmm" version="14.8.0" type="github">
  <diagram id="JCTZ2nmjZN1Xxjs93f0V" name="Page-1">
    <mxGraphModel dx="5707" dy="2316" grid="1" gridSize="10" guides="1" tooltips="1" connect="1" arrows="1" fold="1" page="1" pageScale="1" pageWidth="850" pageHeight="1100" math="0" shadow="0">
      <root>
        <mxCell id="0" />
        <mxCell id="1" parent="0" />
        <mxCell id="9HaT5Wg21jGsQ_oc7YOm-3" value="Central data storage&#xa;" style="swimlane;startSize=23;fontSize=14;verticalAlign=top;" parent="1" vertex="1">
          <mxGeometry x="500" y="-290" width="380" height="470" as="geometry">
            <mxRectangle x="500" y="-280" width="170" height="23" as="alternateBounds" />
          </mxGeometry>
        </mxCell>
        <mxCell id="9HaT5Wg21jGsQ_oc7YOm-4" value="" style="pointerEvents=1;shadow=0;dashed=0;html=1;strokeColor=none;labelPosition=center;verticalLabelPosition=bottom;verticalAlign=top;outlineConnect=0;align=center;shape=mxgraph.office.concepts.folder;fillColor=#00CCCC;" parent="9HaT5Wg21jGsQ_oc7YOm-3" vertex="1">
          <mxGeometry x="40" y="50" width="50" height="45" as="geometry" />
        </mxCell>
        <mxCell id="9HaT5Wg21jGsQ_oc7YOm-5" value="" style="pointerEvents=1;shadow=0;dashed=0;html=1;strokeColor=none;labelPosition=center;verticalLabelPosition=bottom;verticalAlign=top;outlineConnect=0;align=center;shape=mxgraph.office.concepts.folder;fillColor=#FF8000;" parent="9HaT5Wg21jGsQ_oc7YOm-3" vertex="1">
          <mxGeometry x="40" y="100" width="50" height="45" as="geometry" />
        </mxCell>
        <mxCell id="9HaT5Wg21jGsQ_oc7YOm-6" value="" style="pointerEvents=1;shadow=0;dashed=0;html=1;strokeColor=none;labelPosition=center;verticalLabelPosition=bottom;verticalAlign=top;outlineConnect=0;align=center;shape=mxgraph.office.concepts.folder;fillColor=#FF6666;" parent="9HaT5Wg21jGsQ_oc7YOm-3" vertex="1">
          <mxGeometry x="40" y="150" width="50" height="45" as="geometry" />
        </mxCell>
        <mxCell id="9HaT5Wg21jGsQ_oc7YOm-10" value="" style="pointerEvents=1;shadow=0;dashed=0;html=1;strokeColor=none;labelPosition=center;verticalLabelPosition=bottom;verticalAlign=top;outlineConnect=0;align=center;shape=mxgraph.office.concepts.folder;fillColor=#FF3399;" parent="9HaT5Wg21jGsQ_oc7YOm-3" vertex="1">
          <mxGeometry x="40" y="210" width="50" height="45" as="geometry" />
        </mxCell>
        <mxCell id="9HaT5Wg21jGsQ_oc7YOm-9" value="" style="pointerEvents=1;shadow=0;dashed=0;html=1;strokeColor=none;labelPosition=center;verticalLabelPosition=bottom;verticalAlign=top;outlineConnect=0;align=center;shape=mxgraph.office.concepts.folder;fillColor=#6666FF;" parent="9HaT5Wg21jGsQ_oc7YOm-3" vertex="1">
          <mxGeometry x="40" y="270" width="50" height="45" as="geometry" />
        </mxCell>
        <mxCell id="9HaT5Wg21jGsQ_oc7YOm-12" value="" style="pointerEvents=1;shadow=0;dashed=0;html=1;strokeColor=none;labelPosition=center;verticalLabelPosition=bottom;verticalAlign=top;outlineConnect=0;align=center;shape=mxgraph.office.concepts.folder;fillColor=#7FBA42;" parent="9HaT5Wg21jGsQ_oc7YOm-3" vertex="1">
          <mxGeometry x="40" y="330" width="50" height="45" as="geometry" />
        </mxCell>
        <mxCell id="9HaT5Wg21jGsQ_oc7YOm-11" value="" style="pointerEvents=1;shadow=0;dashed=0;html=1;strokeColor=none;labelPosition=center;verticalLabelPosition=bottom;verticalAlign=top;outlineConnect=0;align=center;shape=mxgraph.office.concepts.folder;fillColor=#FF0000;" parent="9HaT5Wg21jGsQ_oc7YOm-3" vertex="1">
          <mxGeometry x="40" y="385" width="50" height="45" as="geometry" />
        </mxCell>
        <mxCell id="9HaT5Wg21jGsQ_oc7YOm-14" value="&lt;font face=&quot;Lucida Console&quot; style=&quot;font-size: 14px&quot;&gt;&lt;b&gt;Art&lt;/b&gt;&lt;/font&gt;" style="text;html=1;strokeColor=none;fillColor=none;align=center;verticalAlign=middle;whiteSpace=wrap;rounded=0;" parent="9HaT5Wg21jGsQ_oc7YOm-3" vertex="1">
          <mxGeometry x="100" y="47.5" width="40" height="50" as="geometry" />
        </mxCell>
        <mxCell id="9HaT5Wg21jGsQ_oc7YOm-16" value="&lt;div&gt;&lt;b style=&quot;font-size: 14px ; font-family: &amp;#34;lucida console&amp;#34;&quot;&gt;Creativity&lt;/b&gt;&lt;/div&gt;" style="text;html=1;strokeColor=none;fillColor=none;align=right;verticalAlign=middle;whiteSpace=wrap;rounded=0;" parent="9HaT5Wg21jGsQ_oc7YOm-3" vertex="1">
          <mxGeometry x="150" y="97.5" width="40" height="50" as="geometry" />
        </mxCell>
        <mxCell id="9HaT5Wg21jGsQ_oc7YOm-17" value="&lt;font style=&quot;font-size: 14px&quot; face=&quot;Lucida Console&quot;&gt;&lt;b&gt;Defence&lt;/b&gt;&lt;/font&gt;" style="text;html=1;strokeColor=none;fillColor=none;align=center;verticalAlign=middle;whiteSpace=wrap;rounded=0;" parent="9HaT5Wg21jGsQ_oc7YOm-3" vertex="1">
          <mxGeometry x="110" y="150" width="40" height="50" as="geometry" />
        </mxCell>
        <mxCell id="9HaT5Wg21jGsQ_oc7YOm-18" value="&lt;font style=&quot;font-size: 14px&quot; face=&quot;Lucida Console&quot;&gt;&lt;b&gt;Love&lt;/b&gt;&lt;/font&gt;" style="text;html=1;strokeColor=none;fillColor=none;align=center;verticalAlign=middle;whiteSpace=wrap;rounded=0;" parent="9HaT5Wg21jGsQ_oc7YOm-3" vertex="1">
          <mxGeometry x="100" y="210" width="40" height="50" as="geometry" />
        </mxCell>
        <mxCell id="9HaT5Wg21jGsQ_oc7YOm-19" value="&lt;font style=&quot;font-size: 14px&quot; face=&quot;Lucida Console&quot;&gt;&lt;b&gt;Philosophy&lt;/b&gt;&lt;/font&gt;" style="text;html=1;strokeColor=none;fillColor=none;align=center;verticalAlign=middle;whiteSpace=wrap;rounded=0;" parent="9HaT5Wg21jGsQ_oc7YOm-3" vertex="1">
          <mxGeometry x="120" y="270" width="40" height="50" as="geometry" />
        </mxCell>
        <mxCell id="9HaT5Wg21jGsQ_oc7YOm-20" value="&lt;font style=&quot;font-size: 14px&quot; face=&quot;Lucida Console&quot;&gt;&lt;b&gt;Scientific&lt;/b&gt;&lt;/font&gt;" style="text;html=1;strokeColor=none;fillColor=none;align=center;verticalAlign=middle;whiteSpace=wrap;rounded=0;" parent="9HaT5Wg21jGsQ_oc7YOm-3" vertex="1">
          <mxGeometry x="120" y="327.5" width="40" height="50" as="geometry" />
        </mxCell>
        <mxCell id="9HaT5Wg21jGsQ_oc7YOm-21" value="&lt;font style=&quot;font-size: 14px&quot; face=&quot;Lucida Console&quot;&gt;&lt;b&gt;Spirituality&lt;/b&gt;&lt;/font&gt;" style="text;html=1;strokeColor=none;fillColor=none;align=center;verticalAlign=middle;whiteSpace=wrap;rounded=0;" parent="9HaT5Wg21jGsQ_oc7YOm-3" vertex="1">
          <mxGeometry x="130" y="385" width="40" height="50" as="geometry" />
        </mxCell>
        <mxCell id="7czTifKkjjsKiWsxUDza-13" value="" style="html=1;shadow=0;dashed=0;align=center;verticalAlign=middle;shape=mxgraph.arrows2.arrow;dy=0.67;dx=20;notch=0;" parent="9HaT5Wg21jGsQ_oc7YOm-3" vertex="1">
          <mxGeometry x="190" y="53.75" width="180" height="37.5" as="geometry" />
        </mxCell>
        <mxCell id="7czTifKkjjsKiWsxUDza-16" value="" style="html=1;shadow=0;dashed=0;align=center;verticalAlign=middle;shape=mxgraph.arrows2.arrow;dy=0.67;dx=20;notch=0;" parent="9HaT5Wg21jGsQ_oc7YOm-3" vertex="1">
          <mxGeometry x="190" y="100" width="180" height="37.5" as="geometry" />
        </mxCell>
        <mxCell id="7czTifKkjjsKiWsxUDza-17" value="" style="html=1;shadow=0;dashed=0;align=center;verticalAlign=middle;shape=mxgraph.arrows2.arrow;dy=0.67;dx=20;notch=0;" parent="9HaT5Wg21jGsQ_oc7YOm-3" vertex="1">
          <mxGeometry x="190" y="153.75" width="180" height="37.5" as="geometry" />
        </mxCell>
        <mxCell id="7czTifKkjjsKiWsxUDza-18" value="" style="html=1;shadow=0;dashed=0;align=center;verticalAlign=middle;shape=mxgraph.arrows2.arrow;dy=0.67;dx=20;notch=0;" parent="9HaT5Wg21jGsQ_oc7YOm-3" vertex="1">
          <mxGeometry x="190" y="217.5" width="180" height="37.5" as="geometry" />
        </mxCell>
        <mxCell id="7czTifKkjjsKiWsxUDza-19" value="" style="html=1;shadow=0;dashed=0;align=center;verticalAlign=middle;shape=mxgraph.arrows2.arrow;dy=0.67;dx=20;notch=0;" parent="9HaT5Wg21jGsQ_oc7YOm-3" vertex="1">
          <mxGeometry x="190" y="277.5" width="180" height="37.5" as="geometry" />
        </mxCell>
        <mxCell id="7czTifKkjjsKiWsxUDza-20" value="" style="html=1;shadow=0;dashed=0;align=center;verticalAlign=middle;shape=mxgraph.arrows2.arrow;dy=0.67;dx=20;notch=0;" parent="9HaT5Wg21jGsQ_oc7YOm-3" vertex="1">
          <mxGeometry x="190" y="337.5" width="180" height="37.5" as="geometry" />
        </mxCell>
        <mxCell id="7czTifKkjjsKiWsxUDza-21" value="" style="html=1;shadow=0;dashed=0;align=center;verticalAlign=middle;shape=mxgraph.arrows2.arrow;dy=0.67;dx=20;notch=0;" parent="9HaT5Wg21jGsQ_oc7YOm-3" vertex="1">
          <mxGeometry x="200" y="391.25" width="180" height="37.5" as="geometry" />
        </mxCell>
        <mxCell id="7czTifKkjjsKiWsxUDza-7" value="" style="aspect=fixed;pointerEvents=1;shadow=0;dashed=0;html=1;strokeColor=none;labelPosition=center;verticalLabelPosition=bottom;verticalAlign=top;align=center;fillColor=#00188D;shape=mxgraph.azure.computer" parent="1" vertex="1">
          <mxGeometry x="950" y="-378" width="70" height="63" as="geometry" />
        </mxCell>
        <mxCell id="7czTifKkjjsKiWsxUDza-8" value="" style="outlineConnect=0;fontColor=#232F3E;gradientColor=none;fillColor=#5A30B5;strokeColor=none;dashed=0;verticalLabelPosition=bottom;verticalAlign=top;align=center;html=1;fontSize=12;fontStyle=0;aspect=fixed;pointerEvents=1;shape=mxgraph.aws4.glue_crawlers;" parent="1" vertex="1">
          <mxGeometry x="1430" y="-385.5" width="78" height="78" as="geometry" />
        </mxCell>
        <mxCell id="7czTifKkjjsKiWsxUDza-11" value="&lt;font style=&quot;font-size: 14px&quot; face=&quot;Verdana&quot;&gt;Manual data download&lt;/font&gt;" style="text;html=1;strokeColor=none;fillColor=none;align=center;verticalAlign=middle;whiteSpace=wrap;rounded=0;" parent="1" vertex="1">
          <mxGeometry x="910" y="-300" width="190" height="20" as="geometry" />
        </mxCell>
        <mxCell id="7czTifKkjjsKiWsxUDza-12" value="&lt;font face=&quot;Verdana&quot; style=&quot;font-size: 14px&quot;&gt;Crawling from internet by a program&lt;/font&gt;" style="text;html=1;strokeColor=none;fillColor=none;align=center;verticalAlign=middle;whiteSpace=wrap;rounded=0;" parent="1" vertex="1">
          <mxGeometry x="1290" y="-307.5" width="390" height="20" as="geometry" />
        </mxCell>
        <mxCell id="7czTifKkjjsKiWsxUDza-14" value="&lt;b&gt;download books, stories, poems, biography, autobiography in format(PDF, text)&lt;/b&gt;" style="text;html=1;strokeColor=none;fillColor=none;align=center;verticalAlign=middle;whiteSpace=wrap;rounded=0;" parent="1" vertex="1">
          <mxGeometry x="870" y="-230" width="400" height="20" as="geometry" />
        </mxCell>
        <mxCell id="7czTifKkjjsKiWsxUDza-15" value="&lt;b&gt;Write a program to scrap from quotation sites like goodread, etc.&lt;/b&gt;" style="text;html=1;strokeColor=none;fillColor=none;align=center;verticalAlign=middle;whiteSpace=wrap;rounded=0;" parent="1" vertex="1">
          <mxGeometry x="1330" y="-234" width="341" height="20" as="geometry" />
        </mxCell>
        <mxCell id="7czTifKkjjsKiWsxUDza-22" value="&lt;b&gt;write program to crawl internet/scrap from couple of sites who writes defense blogs&lt;/b&gt;" style="text;html=1;strokeColor=none;fillColor=none;align=center;verticalAlign=middle;whiteSpace=wrap;rounded=0;" parent="1" vertex="1">
          <mxGeometry x="1340" y="-130" width="470" height="20" as="geometry" />
        </mxCell>
        <mxCell id="7czTifKkjjsKiWsxUDza-23" value="&lt;b&gt;download defense video transcriptions from internet&lt;/b&gt;" style="text;html=1;strokeColor=none;fillColor=none;align=center;verticalAlign=middle;whiteSpace=wrap;rounded=0;" parent="1" vertex="1">
          <mxGeometry x="890" y="-130" width="330" height="20" as="geometry" />
        </mxCell>
        <mxCell id="7czTifKkjjsKiWsxUDza-24" value="&lt;b&gt;write program to download research paper from arxiv.org for last 4 years&lt;/b&gt;" style="text;html=1;strokeColor=none;fillColor=none;align=center;verticalAlign=middle;whiteSpace=wrap;rounded=0;" parent="1" vertex="1">
          <mxGeometry x="1350" y="-180" width="390" height="20" as="geometry" />
        </mxCell>
        <mxCell id="7czTifKkjjsKiWsxUDza-25" value="&lt;b&gt;download research papers from other sites and github&lt;/b&gt;" style="text;html=1;strokeColor=none;fillColor=none;align=center;verticalAlign=middle;whiteSpace=wrap;rounded=0;" parent="1" vertex="1">
          <mxGeometry x="890" y="-180" width="340" height="20" as="geometry" />
        </mxCell>
        <mxCell id="7czTifKkjjsKiWsxUDza-26" value="&lt;b&gt;download books, stories on life, philosophy, purpose and store here different file format and convert them to text files and store here&lt;/b&gt;" style="text;html=1;strokeColor=none;fillColor=none;align=center;verticalAlign=middle;whiteSpace=wrap;rounded=0;" parent="1" vertex="1">
          <mxGeometry x="880" width="435" height="20" as="geometry" />
        </mxCell>
        <mxCell id="7czTifKkjjsKiWsxUDza-27" value="&lt;b&gt;download books, stories, research paper, scientists&#39; autobiography and store here different file format and convert them to text files and store here&lt;/b&gt;" style="text;html=1;strokeColor=none;fillColor=none;align=center;verticalAlign=middle;whiteSpace=wrap;rounded=0;" parent="1" vertex="1">
          <mxGeometry x="890" y="60" width="440" height="20" as="geometry" />
        </mxCell>
        <mxCell id="7czTifKkjjsKiWsxUDza-28" value="&lt;b&gt;write a program to scrap poems, quotes, books from sites that is mentioned here&lt;/b&gt;" style="text;html=1;strokeColor=none;fillColor=none;align=center;verticalAlign=middle;whiteSpace=wrap;rounded=0;" parent="1" vertex="1">
          <mxGeometry x="1348" width="362" height="20" as="geometry" />
        </mxCell>
        <mxCell id="7czTifKkjjsKiWsxUDza-29" value="&lt;b&gt;write program to crawl internet/scrap from&amp;nbsp; sites mentioned here for last 4 years&lt;/b&gt;" style="text;html=1;strokeColor=none;fillColor=none;align=center;verticalAlign=middle;whiteSpace=wrap;rounded=0;" parent="1" vertex="1">
          <mxGeometry x="820" y="115" width="620" height="30" as="geometry" />
        </mxCell>
        <mxCell id="7czTifKkjjsKiWsxUDza-30" value="&lt;b&gt;download poems of different file format and convert them to text files and store here&lt;/b&gt;" style="text;html=1;strokeColor=none;fillColor=none;align=center;verticalAlign=middle;whiteSpace=wrap;rounded=0;" parent="1" vertex="1">
          <mxGeometry x="895" y="-65" width="380" height="20" as="geometry" />
        </mxCell>
        <mxCell id="7czTifKkjjsKiWsxUDza-31" value="&lt;b&gt;write a program to scrap poems, quotes, relationship advise from sites like keepsiring.net&lt;/b&gt;" style="text;html=1;strokeColor=none;fillColor=none;align=center;verticalAlign=middle;whiteSpace=wrap;rounded=0;" parent="1" vertex="1">
          <mxGeometry x="1318" y="-65" width="492" height="20" as="geometry" />
        </mxCell>
        <mxCell id="7czTifKkjjsKiWsxUDza-33" value="&lt;b&gt;write program to crawl internet/scrap from&amp;nbsp; sites mentioned here for last 4 years&lt;/b&gt;" style="text;html=1;strokeColor=none;fillColor=none;align=center;verticalAlign=middle;whiteSpace=wrap;rounded=0;" parent="1" vertex="1">
          <mxGeometry x="1353" y="60" width="372" height="20" as="geometry" />
        </mxCell>
        <UserObject label="https://arxiv.org/archive/cs" link="https://www.draw.io" id="7czTifKkjjsKiWsxUDza-39">
          <mxCell style="text;html=1;strokeColor=none;fillColor=none;whiteSpace=wrap;align=center;verticalAlign=middle;fontColor=#0000EE;fontStyle=4;" parent="1" vertex="1">
            <mxGeometry x="1702" y="-254" width="60" height="40" as="geometry" />
          </mxCell>
        </UserObject>
        <UserObject label="https://www.keepinspiring.me/quotes-about-relationships/&lt;br&gt;" link="https://www.draw.io" id="7czTifKkjjsKiWsxUDza-40">
          <mxCell style="text;html=1;strokeColor=none;fillColor=none;whiteSpace=wrap;align=center;verticalAlign=middle;fontColor=#0000EE;fontStyle=4;" parent="1" vertex="1">
            <mxGeometry x="1860" y="-75" width="60" height="40" as="geometry" />
          </mxCell>
        </UserObject>
        <UserObject label="https://www.brainyquote.com/topics/love-quotes" link="https://www.draw.io" id="7czTifKkjjsKiWsxUDza-41">
          <mxCell style="text;html=1;strokeColor=none;fillColor=none;whiteSpace=wrap;align=center;verticalAlign=middle;fontColor=#0000EE;fontStyle=4;" parent="1" vertex="1">
            <mxGeometry x="2090" y="-75" width="60" height="40" as="geometry" />
          </mxCell>
        </UserObject>
        <UserObject label="https://www.brainyquote.com/topics/women-quotes" link="https://www.draw.io" id="7czTifKkjjsKiWsxUDza-42">
          <mxCell style="text;html=1;strokeColor=none;fillColor=none;whiteSpace=wrap;align=center;verticalAlign=middle;fontColor=#0000EE;fontStyle=4;" parent="1" vertex="1">
            <mxGeometry x="2340" y="-75" width="60" height="40" as="geometry" />
          </mxCell>
        </UserObject>
        <UserObject label="https://blog.hubspot.com/sales/famous-quotes" link="https://www.draw.io" id="7czTifKkjjsKiWsxUDza-43">
          <mxCell style="text;html=1;strokeColor=none;fillColor=none;whiteSpace=wrap;align=center;verticalAlign=middle;fontColor=#0000EE;fontStyle=4;" parent="1" vertex="1">
            <mxGeometry x="1860" y="-10" width="60" height="40" as="geometry" />
          </mxCell>
        </UserObject>
        <UserObject label="https://www.brainyquote.com/topics/life-quotes" link="https://www.draw.io" id="7czTifKkjjsKiWsxUDza-44">
          <mxCell style="text;html=1;strokeColor=none;fillColor=none;whiteSpace=wrap;align=center;verticalAlign=middle;fontColor=#0000EE;fontStyle=4;" parent="1" vertex="1">
            <mxGeometry x="2095" y="-10" width="60" height="40" as="geometry" />
          </mxCell>
        </UserObject>
        <UserObject label="https://www.brainyquote.com/topics/success-quotes" link="https://www.draw.io" id="7czTifKkjjsKiWsxUDza-45">
          <mxCell style="text;html=1;strokeColor=none;fillColor=none;whiteSpace=wrap;align=center;verticalAlign=middle;fontColor=#0000EE;fontStyle=4;" parent="1" vertex="1">
            <mxGeometry x="2340" y="-10" width="60" height="40" as="geometry" />
          </mxCell>
        </UserObject>
        <UserObject label="https://arxiv.org/archive/physics.app-ph" link="https://www.draw.io" id="7czTifKkjjsKiWsxUDza-46">
          <mxCell style="text;html=1;strokeColor=none;fillColor=none;whiteSpace=wrap;align=center;verticalAlign=middle;fontColor=#0000EE;fontStyle=4;" parent="1" vertex="1">
            <mxGeometry x="1860" y="50" width="60" height="40" as="geometry" />
          </mxCell>
        </UserObject>
        <UserObject label="https://www.scientificamerican.com/" link="https://www.draw.io" id="7czTifKkjjsKiWsxUDza-47">
          <mxCell style="text;html=1;strokeColor=none;fillColor=none;whiteSpace=wrap;align=center;verticalAlign=middle;fontColor=#0000EE;fontStyle=4;" parent="1" vertex="1">
            <mxGeometry x="2095" y="40" width="60" height="40" as="geometry" />
          </mxCell>
        </UserObject>
        <UserObject label="https://www.newscientist.com/section/news/" link="https://www.draw.io" id="7czTifKkjjsKiWsxUDza-48">
          <mxCell style="text;html=1;strokeColor=none;fillColor=none;whiteSpace=wrap;align=center;verticalAlign=middle;fontColor=#0000EE;fontStyle=4;" parent="1" vertex="1">
            <mxGeometry x="2340" y="40" width="60" height="40" as="geometry" />
          </mxCell>
        </UserObject>
        <UserObject label="https://www.sciencenews.org/" link="https://www.draw.io" id="7czTifKkjjsKiWsxUDza-49">
          <mxCell style="text;html=1;strokeColor=none;fillColor=none;whiteSpace=wrap;align=center;verticalAlign=middle;fontColor=#0000EE;fontStyle=4;" parent="1" vertex="1">
            <mxGeometry x="2570" y="40" width="60" height="40" as="geometry" />
          </mxCell>
        </UserObject>
        <UserObject label="https://vedpuran.net/download-all-ved-and-puran-pdf-hindi-free/" link="https://www.draw.io" id="7czTifKkjjsKiWsxUDza-50">
          <mxCell style="text;html=1;strokeColor=none;fillColor=none;whiteSpace=wrap;align=center;verticalAlign=middle;fontColor=#0000EE;fontStyle=4;" parent="1" vertex="1">
            <mxGeometry x="1870" y="115" width="60" height="40" as="geometry" />
          </mxCell>
        </UserObject>
        <UserObject label="http://www.vedpuran.com/" link="https://www.draw.io" id="7czTifKkjjsKiWsxUDza-51">
          <mxCell style="text;html=1;strokeColor=none;fillColor=none;whiteSpace=wrap;align=center;verticalAlign=middle;fontColor=#0000EE;fontStyle=4;" parent="1" vertex="1">
            <mxGeometry x="2080" y="105" width="60" height="40" as="geometry" />
          </mxCell>
        </UserObject>
        <mxCell id="7czTifKkjjsKiWsxUDza-54" value="" style="shape=image;html=1;verticalAlign=top;verticalLabelPosition=bottom;labelBackgroundColor=#ffffff;imageAspect=0;aspect=fixed;image=https://cdn1.iconfinder.com/data/icons/science-technology-outline-24-px/24/Cone_filter_filtering_funnel_pipe-128.png;rotation=90;" parent="1" vertex="1">
          <mxGeometry x="320" y="-152.5" width="195" height="195" as="geometry" />
        </mxCell>
        <mxCell id="7czTifKkjjsKiWsxUDza-55" value="" style="shape=image;html=1;verticalAlign=top;verticalLabelPosition=bottom;labelBackgroundColor=#ffffff;imageAspect=0;aspect=fixed;image=https://cdn3.iconfinder.com/data/icons/construction-and-tools-set-1-1/66/37-128.png;rotation=-180;" parent="1" vertex="1">
          <mxGeometry x="208" y="-88" width="140" height="140" as="geometry" />
        </mxCell>
        <mxCell id="7czTifKkjjsKiWsxUDza-59" value="&lt;font face=&quot;Times New Roman&quot; size=&quot;1&quot;&gt;&lt;b style=&quot;font-size: 26px&quot;&gt;Natural Language Understanding&lt;/b&gt;&lt;/font&gt;" style="text;html=1;strokeColor=none;fillColor=none;align=center;verticalAlign=middle;whiteSpace=wrap;rounded=0;" parent="1" vertex="1">
          <mxGeometry x="240" y="-190" width="170" height="60" as="geometry" />
        </mxCell>
        <mxCell id="7czTifKkjjsKiWsxUDza-65" value="" style="points=[[0,0,0],[0.25,0,0],[0.5,0,0],[0.75,0,0],[1,0,0],[0,1,0],[0.25,1,0],[0.5,1,0],[0.75,1,0],[1,1,0],[0,0.25,0],[0,0.5,0],[0,0.75,0],[1,0.25,0],[1,0.5,0],[1,0.75,0]];outlineConnect=0;fontColor=#232F3E;gradientColor=#4AB29A;gradientDirection=north;fillColor=#116D5B;strokeColor=#ffffff;dashed=0;verticalLabelPosition=bottom;verticalAlign=top;align=center;html=1;fontSize=12;fontStyle=0;aspect=fixed;shape=mxgraph.aws4.resourceIcon;resIcon=mxgraph.aws4.deep_learning_amis;" parent="1" vertex="1">
          <mxGeometry x="890" y="691" width="98" height="98" as="geometry" />
        </mxCell>
        <mxCell id="7czTifKkjjsKiWsxUDza-67" value="" style="shape=image;verticalLabelPosition=bottom;labelBackgroundColor=#ffffff;verticalAlign=top;aspect=fixed;imageAspect=0;image=data:image/jpeg,/9j/4AAQSkZJRgABAQEBkAGQAAD/7QUEUGhvdG9zaG9wIDMuMAA4QklNA+0AAAAAABABkAAAAAEAAQGQAAAAAQABOEJJTQQEAAAAAATLHAEAAAIABBwCBQDDTWljcm9jaGlwIGxpbmUgaWNvbi4gQ1BVLCBDZW50cmFsIHByb2Nlc3NpbmcgdW5pdCwgY29tcHV0ZXIgcHJvY2Vzc29yLCBjaGlwIHN5bWJvbCBpbiBjaXJjbGUuIEFic3RyYWN0IHRlY2hub2xvZ3kgbG9nby4gU2ltcGxlIHJvdW5kIGljb24gaXNvbGF0ZWQgb24gYmxhY2sgYmFja2dyb3VuZC4gQ3JlYXRpdmUgbW9kZXJuIHZlY3RvciBsb2dvHAJpAMNNaWNyb2NoaXAgbGluZSBpY29uLiBDUFUsIENlbnRyYWwgcHJvY2Vzc2luZyB1bml0LCBjb21wdXRlciBwcm9jZXNzb3IsIGNoaXAgc3ltYm9sIGluIGNpcmNsZS4gQWJzdHJhY3QgdGVjaG5vbG9neSBsb2dvLiBTaW1wbGUgcm91bmQgaWNvbiBpc29sYXRlZCBvbiBibGFjayBiYWNrZ3JvdW5kLiBDcmVhdGl2ZSBtb2Rlcm4gdmVjdG9yIGxvZ28cAngAxE1pY3JvY2hpcCBsaW5lIGljb24uIENQVSwgQ2VudHJhbCBwcm9jZXNzaW5nIHVuaXQsIGNvbXB1dGVyIHByb2Nlc3NvciwgY2hpcCBzeW1ib2wgaW4gY2lyY2xlLiBBYnN0cmFjdCB0ZWNobm9sb2d5IGxvZ28uIFNpbXBsZSByb3VuZCBpY29uIGlzb2xhdGVkIG9uIGJsYWNrIGJhY2tncm91bmQuIENyZWF0aXZlIG1vZGVybiB2ZWN0b3IgbG9nby4cAhkABGxvZ28cAhkACGNvbXB1dGVyHAIZAAZkZXNpZ24cAhkACGFic3RyYWN0HAIZAARpY29uHAIZAAd0ZXh0dXJlHAIZAAhpbnRlcm5ldBwCGQAKdGVjaG5vbG9neRwCGQAGbW9kZXJuHAIZAAlwcm9jZXNzb3IcAhkABWJvYXJkHAIZAARjaGlwHAIZAAdjaXJjdWl0HAIZAANjcHUcAhkAB2RpZ2l0YWwcAhkABnN5bWJvbBwCGQAKZWxlY3Ryb25pYxwCGQAIaGFyZHdhcmUcAhkACW1pY3JvY2hpcBwCGQAEc2lnbhwCGQAGc3lzdGVtHAIZAAR0ZWNoHAIZAAljb21wb25lbnQcAhkABmRldmljZRwCGQAHZWxlbWVudBwCGQAObWljcm9wcm9jZXNzb3IcAhkAC21vdGhlcmJvYXJkHAIZAAplbGVjdHJpY2FsHAIZAAdjaGlwc2V0HAIZAARjb3JlHAIZAAppbnRlZ3JhdGVkHAIZAAhsb2dvdHlwZRwCGQAFbWljcm8cAhkADG1pY3JvY2lyY3VpdBwCGQAGbW9iaWxlHAIZAAtlbGVjdHJpY2l0eRwCGQALZW5naW5lZXJpbmccAhkACGluZHVzdHJ5HAIZAAdzY2llbmNlHAIZAARpZGVhHAIZAA1jb21tdW5pY2F0aW9uHAIZAAljb21wdXRpbmccAhkAB2NvbmNlcHQcAhkACmNvbmNlcHR1YWwcAhkAB2Nvbm5lY3QcAhkABWNvdmVyHAIZAAhpbnRlcm5hbBwCGQAGbWVtb3J5HAIZAAlwaWN0b2dyYW0cAhkAAnBjAP/hCVxFeGlmAABNTQAqAAAACAAFAQ4AAgAAAMYAAABKh2kABAAAAAEAAAfKnJsAAQAAAYgAAAEQnJ4AAQAAA6gAAAKYnJ8AAQAAAYoAAAZAAAAAAE1pY3JvY2hpcCBsaW5lIGljb24uIENQVSwgQ2VudHJhbCBwcm9jZXNzaW5nIHVuaXQsIGNvbXB1dGVyIHByb2Nlc3NvciwgY2hpcCBzeW1ib2wgaW4gY2lyY2xlLiBBYnN0cmFjdCB0ZWNobm9sb2d5IGxvZ28uIFNpbXBsZSByb3VuZCBpY29uIGlzb2xhdGVkIG9uIGJsYWNrIGJhY2tncm91bmQuIENyZWF0aXZlIG1vZGVybiB2ZWN0b3IgbG9nby4AAE0AaQBjAHIAbwBjAGgAaQBwACAAbABpAG4AZQAgAGkAYwBvAG4ALgAgAEMAUABVACwAIABDAGUAbgB0AHIAYQBsACAAcAByAG8AYwBlAHMAcwBpAG4AZwAgAHUAbgBpAHQALAAgAGMAbwBtAHAAdQB0AGUAcgAgAHAAcgBvAGMAZQBzAHMAbwByACwAIABjAGgAaQBwACAAcwB5AG0AYgBvAGwAIABpAG4AIABjAGkAcgBjAGwAZQAuACAAQQBiAHMAdAByAGEAYwB0ACAAdABlAGMAaABuAG8AbABvAGcAeQAgAGwAbwBnAG8ALgAgAFMAaQBtAHAAbABlACAAcgBvAHUAbgBkACAAaQBjAG8AbgAgAGkAcwBvAGwAYQB0AGUAZAAgAG8AbgAgAGIAbABhAGMAawAgAGIAYQBjAGsAZwByAG8AdQBuAGQALgAgAEMAcgBlAGEAdABpAHYAZQAgAG0AbwBkAGUAcgBuACAAdgBlAGMAdABvAHIAIABsAG8AZwBvAAAAbABvAGcAbwA7ACAAYwBvAG0AcAB1AHQAZQByADsAIABkAGUAcwBpAGcAbgA7ACAAYQBiAHMAdAByAGEAYwB0ADsAIABpAGMAbwBuADsAIAB0AGUAeAB0AHUAcgBlADsAIABpAG4AdABlAHIAbgBlAHQAOwAgAHQAZQBjAGgAbgBvAGwAbwBnAHkAOwAgAG0AbwBkAGUAcgBuADsAIABwAHIAbwBjAGUAcwBzAG8AcgA7ACAAYgBvAGEAcgBkADsAIABjAGgAaQBwADsAIABjAGkAcgBjAHUAaQB0ADsAIABjAHAAdQA7ACAAZABpAGcAaQB0AGEAbAA7ACAAcwB5AG0AYgBvAGwAOwAgAGUAbABlAGMAdAByAG8AbgBpAGMAOwAgAGgAYQByAGQAdwBhAHIAZQA7ACAAbQBpAGMAcgBvAGMAaABpAHAAOwAgAHMAaQBnAG4AOwAgAHMAeQBzAHQAZQBtADsAIAB0AGUAYwBoADsAIABjAG8AbQBwAG8AbgBlAG4AdAA7ACAAZABlAHYAaQBjAGUAOwAgAGUAbABlAG0AZQBuAHQAOwAgAG0AaQBjAHIAbwBwAHIAbwBjAGUAcwBzAG8AcgA7ACAAbQBvAHQAaABlAHIAYgBvAGEAcgBkADsAIABlAGwAZQBjAHQAcgBpAGMAYQBsADsAIABjAGgAaQBwAHMAZQB0ADsAIABjAG8AcgBlADsAIABpAG4AdABlAGcAcgBhAHQAZQBkADsAIABsAG8AZwBvAHQAeQBwAGUAOwAgAG0AaQBjAHIAbwA7ACAAbQBpAGMAcgBvAGMAaQByAGMAdQBpAHQAOwAgAG0AbwBiAGkAbABlADsAIABlAGwAZQBjAHQAcgBpAGMAaQB0AHkAOwAgAGUAbgBnAGkAbgBlAGUAcgBpAG4AZwA7ACAAaQBuAGQAdQBzAHQAcgB5ADsAIABzAGMAaQBlAG4AYwBlADsAIABpAGQAZQBhADsAIABjAG8AbQBtAHUAbgBpAGMAYQB0AGkAbwBuADsAIABjAG8AbQBwAHUAdABpAG4AZwA7ACAAYwBvAG4AYwBlAHAAdAA7ACAAYwBvAG4AYwBlAHAAdAB1AGEAbAA7ACAAYwBvAG4AbgBlAGMAdAA7ACAAYwBvAHYAZQByADsAIABpAG4AdABlAHIAbgBhAGwAOwAgAG0AZQBtAG8AcgB5ADsAIABwAGkAYwB0AG8AZwByAGEAbQA7ACAAcABjAAAATQBpAGMAcgBvAGMAaABpAHAAIABsAGkAbgBlACAAaQBjAG8AbgAuACAAQwBQAFUALAAgAEMAZQBuAHQAcgBhAGwAIABwAHIAbwBjAGUAcwBzAGkAbgBnACAAdQBuAGkAdAAsACAAYwBvAG0AcAB1AHQAZQByACAAcAByAG8AYwBlAHMAcwBvAHIALAAgAGMAaABpAHAAIABzAHkAbQBiAG8AbAAgAGkAbgAgAGMAaQByAGMAbABlAC4AIABBAGIAcwB0AHIAYQBjAHQAIAB0AGUAYwBoAG4AbwBsAG8AZwB5ACAAbABvAGcAbwAuACAAUwBpAG0AcABsAGUAIAByAG8AdQBuAGQAIABpAGMAbwBuACAAaQBzAG8AbABhAHQAZQBkACAAbwBuACAAYgBsAGEAYwBrACAAYgBhAGMAawBnAHIAbwB1AG4AZAAuACAAQwByAGUAYQB0AGkAdgBlACAAbQBvAGQAZQByAG4AIAB2AGUAYwB0AG8AcgAgAGwAbwBnAG8ALgAAAAABkoYABwAAAXgAAAfcAAAAAEFTQ0lJAAAAU1NVQ3YzSDRzSUFBQUFBQUFFQUoyUnkyN0RJQkJGOTVYNkR4WnJXK0lSUDlKZmlicmdWV2NVeDBTQVUwV1IvNzFnYkduVzNYSFBaWWE1dy92em82cUlrZ0UwK2FyZVdTVU4wN1NFNkdVRU55Zk02cDFiQTlGNWtGT0NOTE4xYzBpSU1pN0JodHhpUjFwR082YTdCZTcxeHp1WG9xdkQyTXhVa1N4Q2FzVENvaloyb0xYK2QyVTVmQjlSNUdobi9kb0dSa0c4bmF3c1FTN2xLcm45UnV2dk9Ob1RqSFZJeThXQVF5bWZUc3NwRndqVStlRkJ3enlpTWhldjF1T05wWlc3T3dLemk5c2tlekJpMGtxelpJTDFWSEFoMm81eTJnKzBJOGMzT0gwRGcyY3RQM09GWlBrWDRtQnlwNU0rdDJ4UW9yRlU4ZWJFQld1VTZsZ3pHTlczUDVyVE0rM1RCdGMvd29NVjJDWUNBQUE9AAD/4gxYSUNDX1BST0ZJTEUAAQEAAAxITGlubwIQAABtbnRyUkdCIFhZWiAHzgACAAkABgAxAABhY3NwTVNGVAAAAABJRUMgc1JHQgAAAAAAAAAAAAAAAAAA9tYAAQAAAADTLUhQICAAAAAAAAAAAAAAAAAAAAAAAAAAAAAAAAAAAAAAAAAAAAAAAAAAAAAAAAAAAAAAABFjcHJ0AAABUAAAADNkZXNjAAABhAAAAGx3dHB0AAAB8AAAABRia3B0AAACBAAAABRyWFlaAAACGAAAABRnWFlaAAACLAAAABRiWFlaAAACQAAAABRkbW5kAAACVAAAAHBkbWRkAAACxAAAAIh2dWVkAAADTAAAAIZ2aWV3AAAD1AAAACRsdW1pAAAD+AAAABRtZWFzAAAEDAAAACR0ZWNoAAAEMAAAAAxyVFJDAAAEPAAACAxnVFJDAAAEPAAACAxiVFJDAAAEPAAACAx0ZXh0AAAAAENvcHlyaWdodCAoYykgMTk5OCBIZXdsZXR0LVBhY2thcmQgQ29tcGFueQAAZGVzYwAAAAAAAAASc1JHQiBJRUM2MTk2Ni0yLjEAAAAAAAAAAAAAABJzUkdCIElFQzYxOTY2LTIuMQAAAAAAAAAAAAAAAAAAAAAAAAAAAAAAAAAAAAAAAAAAAAAAAAAAAAAAAAAAAAAAAAAAWFlaIAAAAAAAAPNRAAEAAAABFsxYWVogAAAAAAAAAAAAAAAAAAAAAFhZWiAAAAAAAABvogAAOPUAAAOQWFlaIAAAAAAAAGKZAAC3hQAAGNpYWVogAAAAAAAAJKAAAA+EAAC2z2Rlc2MAAAAAAAAAFklFQyBodHRwOi8vd3d3LmllYy5jaAAAAAAAAAAAAAAAFklFQyBodHRwOi8vd3d3LmllYy5jaAAAAAAAAAAAAAAAAAAAAAAAAAAAAAAAAAAAAAAAAAAAAAAAAAAAAAAAAAAAAABkZXNjAAAAAAAAAC5JRUMgNjE5NjYtMi4xIERlZmF1bHQgUkdCIGNvbG91ciBzcGFjZSAtIHNSR0IAAAAAAAAAAAAAAC5JRUMgNjE5NjYtMi4xIERlZmF1bHQgUkdCIGNvbG91ciBzcGFjZSAtIHNSR0IAAAAAAAAAAAAAAAAAAAAAAAAAAAAAZGVzYwAAAAAAAAAsUmVmZXJlbmNlIFZpZXdpbmcgQ29uZGl0aW9uIGluIElFQzYxOTY2LTIuMQAAAAAAAAAAAAAALFJlZmVyZW5jZSBWaWV3aW5nIENvbmRpdGlvbiBpbiBJRUM2MTk2Ni0yLjEAAAAAAAAAAAAAAAAAAAAAAAAAAAAAAAAAAHZpZXcAAAAAABOk/gAUXy4AEM8UAAPtzAAEEwsAA1yeAAAAAVhZWiAAAAAAAEwJVgBQAAAAVx/nbWVhcwAAAAAAAAABAAAAAAAAAAAAAAAAAAAAAAAAAo8AAAACc2lnIAAAAABDUlQgY3VydgAAAAAAAAQAAAAABQAKAA8AFAAZAB4AIwAoAC0AMgA3ADsAQABFAEoATwBUAFkAXgBjAGgAbQByAHcAfACBAIYAiwCQAJUAmgCfAKQAqQCuALIAtwC8AMEAxgDLANAA1QDbAOAA5QDrAPAA9gD7AQEBBwENARMBGQEfASUBKwEyATgBPgFFAUwBUgFZAWABZwFuAXUBfAGDAYsBkgGaAaEBqQGxAbkBwQHJAdEB2QHhAekB8gH6AgMCDAIUAh0CJgIvAjgCQQJLAlQCXQJnAnECegKEAo4CmAKiAqwCtgLBAssC1QLgAusC9QMAAwsDFgMhAy0DOANDA08DWgNmA3IDfgOKA5YDogOuA7oDxwPTA+AD7AP5BAYEEwQgBC0EOwRIBFUEYwRxBH4EjASaBKgEtgTEBNME4QTwBP4FDQUcBSsFOgVJBVgFZwV3BYYFlgWmBbUFxQXVBeUF9gYGBhYGJwY3BkgGWQZqBnsGjAadBq8GwAbRBuMG9QcHBxkHKwc9B08HYQd0B4YHmQesB78H0gflB/gICwgfCDIIRghaCG4IggiWCKoIvgjSCOcI+wkQCSUJOglPCWQJeQmPCaQJugnPCeUJ+woRCicKPQpUCmoKgQqYCq4KxQrcCvMLCwsiCzkLUQtpC4ALmAuwC8gL4Qv5DBIMKgxDDFwMdQyODKcMwAzZDPMNDQ0mDUANWg10DY4NqQ3DDd4N+A4TDi4OSQ5kDn8Omw62DtIO7g8JDyUPQQ9eD3oPlg+zD88P7BAJECYQQxBhEH4QmxC5ENcQ9RETETERTxFtEYwRqhHJEegSBxImEkUSZBKEEqMSwxLjEwMTIxNDE2MTgxOkE8UT5RQGFCcUSRRqFIsUrRTOFPAVEhU0FVYVeBWbFb0V4BYDFiYWSRZsFo8WshbWFvoXHRdBF2UXiReuF9IX9xgbGEAYZRiKGK8Y1Rj6GSAZRRlrGZEZtxndGgQaKhpRGncanhrFGuwbFBs7G2MbihuyG9ocAhwqHFIcexyjHMwc9R0eHUcdcB2ZHcMd7B4WHkAeah6UHr4e6R8THz4faR+UH78f6iAVIEEgbCCYIMQg8CEcIUghdSGhIc4h+yInIlUigiKvIt0jCiM4I2YjlCPCI/AkHyRNJHwkqyTaJQklOCVoJZclxyX3JicmVyaHJrcm6CcYJ0kneierJ9woDSg/KHEooijUKQYpOClrKZ0p0CoCKjUqaCqbKs8rAis2K2krnSvRLAUsOSxuLKIs1y0MLUEtdi2rLeEuFi5MLoIuty7uLyQvWi+RL8cv/jA1MGwwpDDbMRIxSjGCMbox8jIqMmMymzLUMw0zRjN/M7gz8TQrNGU0njTYNRM1TTWHNcI1/TY3NnI2rjbpNyQ3YDecN9c4FDhQOIw4yDkFOUI5fzm8Ofk6Njp0OrI67zstO2s7qjvoPCc8ZTykPOM9Ij1hPaE94D4gPmA+oD7gPyE/YT+iP+JAI0BkQKZA50EpQWpBrEHuQjBCckK1QvdDOkN9Q8BEA0RHRIpEzkUSRVVFmkXeRiJGZ0arRvBHNUd7R8BIBUhLSJFI10kdSWNJqUnwSjdKfUrESwxLU0uaS+JMKkxyTLpNAk1KTZNN3E4lTm5Ot08AT0lPk0/dUCdQcVC7UQZRUFGbUeZSMVJ8UsdTE1NfU6pT9lRCVI9U21UoVXVVwlYPVlxWqVb3V0RXklfgWC9YfVjLWRpZaVm4WgdaVlqmWvVbRVuVW+VcNVyGXNZdJ114XcleGl5sXr1fD19hX7NgBWBXYKpg/GFPYaJh9WJJYpxi8GNDY5dj62RAZJRk6WU9ZZJl52Y9ZpJm6Gc9Z5Nn6Wg/aJZo7GlDaZpp8WpIap9q92tPa6dr/2xXbK9tCG1gbbluEm5rbsRvHm94b9FwK3CGcOBxOnGVcfByS3KmcwFzXXO4dBR0cHTMdSh1hXXhdj52m3b4d1Z3s3gReG54zHkqeYl553pGeqV7BHtje8J8IXyBfOF9QX2hfgF+Yn7CfyN/hH/lgEeAqIEKgWuBzYIwgpKC9INXg7qEHYSAhOOFR4Wrhg6GcobXhzuHn4gEiGmIzokziZmJ/opkisqLMIuWi/yMY4zKjTGNmI3/jmaOzo82j56QBpBukNaRP5GokhGSepLjk02TtpQglIqU9JVflcmWNJaflwqXdZfgmEyYuJkkmZCZ/JpomtWbQpuvnByciZz3nWSd0p5Anq6fHZ+Ln/qgaaDYoUehtqImopajBqN2o+akVqTHpTilqaYapoum/adup+CoUqjEqTepqaocqo+rAqt1q+msXKzQrUStuK4trqGvFq+LsACwdbDqsWCx1rJLssKzOLOutCW0nLUTtYq2AbZ5tvC3aLfguFm40blKucK6O7q1uy67p7whvJu9Fb2Pvgq+hL7/v3q/9cBwwOzBZ8Hjwl/C28NYw9TEUcTOxUvFyMZGxsPHQce/yD3IvMk6ybnKOMq3yzbLtsw1zLXNNc21zjbOts83z7jQOdC60TzRvtI/0sHTRNPG1EnUy9VO1dHWVdbY11zX4Nhk2OjZbNnx2nba+9uA3AXcit0Q3ZbeHN6i3ynfr+A24L3hROHM4lPi2+Nj4+vkc+T85YTmDeaW5x/nqegy6LzpRunQ6lvq5etw6/vshu0R7ZzuKO6070DvzPBY8OXxcvH/8ozzGfOn9DT0wvVQ9d72bfb794r4Gfio+Tj5x/pX+uf7d/wH/Jj9Kf26/kv+3P9t////4XH6aHR0cDovL25zLmFkb2JlLmNvbS94YXAvMS4wLwA/eHBhY2tldCBiZWdpbj0i77u/IiBpZD0iVzVNME1wQ2VoaUh6cmVTek5UY3prYzlkIj8+DQo8eDp4bXBtZXRhIHhtbG5zOng9ImFkb2JlOm5zOm1ldGEvIiB4OnhtcHRrPSJBZG9iZSBYTVAgQ29yZSA1LjYtYzE0MyA3OS4xNjEyMTAsIDIwMTcvMDgvMTEtMTA6Mjg6MzYgICAgICAgICI+DQogICA8cmRmOlJERiB4bWxuczpyZGY9Imh0dHA6Ly93d3cudzMub3JnLzE5OTkvMDIvMjItcmRmLXN5bnRheC1ucyMiPg0KICAgICAgPHJkZjpEZXNjcmlwdGlvbiByZGY6YWJvdXQ9IiIgeG1sbnM6eG1wR0ltZz0iaHR0cDovL25zLmFkb2JlLmNvbS94YXAvMS4wL2cvaW1nLyIgeG1sbnM6c3RSZWY9Imh0dHA6Ly9ucy5hZG9iZS5jb20veGFwLzEuMC9zVHlwZS9SZXNvdXJjZVJlZiMiIHhtbG5zOnN0RXZ0PSJodHRwOi8vbnMuYWRvYmUuY29tL3hhcC8xLjAvc1R5cGUvUmVzb3VyY2VFdmVudCMiIHhtbG5zOnBkZng9Imh0dHA6Ly9ucy5hZG9iZS5jb20vcGRmeC8xLjMvIj4NCiAgICAgICAgIA0KICAgICAgICAgDQogICAgICAgICANCiAgICAgICAgIA0KICAgICAgICAgDQogICAgICAgICANCiAgICAgICAgIA0KICAgICAgICAgDQogICAgICAgICANCiAgICAgICAgIA0KICAgICAgICAgDQogICAgICAgICANCiAgICAgICAgIA0KICAgICAgICAgDQogICAgICAgICANCiAgICAgICAgIDxwZGZ4OkNyZWF0b3JWZXJzaW9uPjIxLjAuMDwvcGRmeDpDcmVhdG9yVmVyc2lvbj4NCiAgICAgIDwvcmRmOkRlc2NyaXB0aW9uPg0KICAgPHJkZjpEZXNjcmlwdGlvbiB4bWxuczpkYz0iaHR0cDovL3B1cmwub3JnL2RjL2VsZW1lbnRzLzEuMS8iPjxkYzpmb3JtYXQ+aW1hZ2UvanBlZzwvZGM6Zm9ybWF0PjxkYzp0aXRsZT48cmRmOkFsdD48cmRmOmxpPk1pY3JvY2hpcCBsaW5lIGljb24uIENQVSwgQ2VudHJhbCBwcm9jZXNzaW5nIHVuaXQsIGNvbXB1dGVyIHByb2Nlc3NvciwgY2hpcCBzeW1ib2wgaW4gY2lyY2xlLiBBYnN0cmFjdCB0ZWNobm9sb2d5IGxvZ28uIFNpbXBsZSByb3VuZCBpY29uIGlzb2xhdGVkIG9uIGJsYWNrIGJhY2tncm91bmQuIENyZWF0aXZlIG1vZGVybiB2ZWN0b3IgbG9nbzwvcmRmOmxpPjwvcmRmOkFsdD48L2RjOnRpdGxlPjxkYzpkZXNjcmlwdGlvbj48cmRmOkFsdD48cmRmOmxpPk1pY3JvY2hpcCBsaW5lIGljb24uIENQVSwgQ2VudHJhbCBwcm9jZXNzaW5nIHVuaXQsIGNvbXB1dGVyIHByb2Nlc3NvciwgY2hpcCBzeW1ib2wgaW4gY2lyY2xlLiBBYnN0cmFjdCB0ZWNobm9sb2d5IGxvZ28uIFNpbXBsZSByb3VuZCBpY29uIGlzb2xhdGVkIG9uIGJsYWNrIGJhY2tncm91bmQuIENyZWF0aXZlIG1vZGVybiB2ZWN0b3IgbG9nby48L3JkZjpsaT48L3JkZjpBbHQ+PC9kYzpkZXNjcmlwdGlvbj48ZGM6c3ViamVjdD48cmRmOkFsdD48cmRmOmxpPmxvZ288L3JkZjpsaT48cmRmOmxpPmNvbXB1dGVyPC9yZGY6bGk+PHJkZjpsaT5kZXNpZ248L3JkZjpsaT48cmRmOmxpPmFic3RyYWN0PC9yZGY6bGk+PHJkZjpsaT5pY29uPC9yZGY6bGk+PHJkZjpsaT50ZXh0dXJlPC9yZGY6bGk+PHJkZjpsaT5pbnRlcm5ldDwvcmRmOmxpPjxyZGY6bGk+dGVjaG5vbG9neTwvcmRmOmxpPjxyZGY6bGk+bW9kZXJuPC9yZGY6bGk+PHJkZjpsaT5wcm9jZXNzb3I8L3JkZjpsaT48cmRmOmxpPmJvYXJkPC9yZGY6bGk+PHJkZjpsaT5jaGlwPC9yZGY6bGk+PHJkZjpsaT5jaXJjdWl0PC9yZGY6bGk+PHJkZjpsaT5jcHU8L3JkZjpsaT48cmRmOmxpPmRpZ2l0YWw8L3JkZjpsaT48cmRmOmxpPnN5bWJvbDwvcmRmOmxpPjxyZGY6bGk+ZWxlY3Ryb25pYzwvcmRmOmxpPjxyZGY6bGk+aGFyZHdhcmU8L3JkZjpsaT48cmRmOmxpPm1pY3JvY2hpcDwvcmRmOmxpPjxyZGY6bGk+c2lnbjwvcmRmOmxpPjxyZGY6bGk+c3lzdGVtPC9yZGY6bGk+PHJkZjpsaT50ZWNoPC9yZGY6bGk+PHJkZjpsaT5jb21wb25lbnQ8L3JkZjpsaT48cmRmOmxpPmRldmljZTwvcmRmOmxpPjxyZGY6bGk+ZWxlbWVudDwvcmRmOmxpPjxyZGY6bGk+bWljcm9wcm9jZXNzb3I8L3JkZjpsaT48cmRmOmxpPm1vdGhlcmJvYXJkPC9yZGY6bGk+PHJkZjpsaT5lbGVjdHJpY2FsPC9yZGY6bGk+PHJkZjpsaT5jaGlwc2V0PC9yZGY6bGk+PHJkZjpsaT5jb3JlPC9yZGY6bGk+PHJkZjpsaT5pbnRlZ3JhdGVkPC9yZGY6bGk+PHJkZjpsaT5sb2dvdHlwZTwvcmRmOmxpPjxyZGY6bGk+bWljcm88L3JkZjpsaT48cmRmOmxpPm1pY3JvY2lyY3VpdDwvcmRmOmxpPjxyZGY6bGk+bW9iaWxlPC9yZGY6bGk+PHJkZjpsaT5lbGVjdHJpY2l0eTwvcmRmOmxpPjxyZGY6bGk+ZW5naW5lZXJpbmc8L3JkZjpsaT48cmRmOmxpPmluZHVzdHJ5PC9yZGY6bGk+PHJkZjpsaT5zY2llbmNlPC9yZGY6bGk+PHJkZjpsaT5pZGVhPC9yZGY6bGk+PHJkZjpsaT5jb21tdW5pY2F0aW9uPC9yZGY6bGk+PHJkZjpsaT5jb21wdXRpbmc8L3JkZjpsaT48cmRmOmxpPmNvbmNlcHQ8L3JkZjpsaT48cmRmOmxpPmNvbmNlcHR1YWw8L3JkZjpsaT48cmRmOmxpPmNvbm5lY3Q8L3JkZjpsaT48cmRmOmxpPmNvdmVyPC9yZGY6bGk+PHJkZjpsaT5pbnRlcm5hbDwvcmRmOmxpPjxyZGY6bGk+bWVtb3J5PC9yZGY6bGk+PHJkZjpsaT5waWN0b2dyYW08L3JkZjpsaT48cmRmOmxpPnBjPC9yZGY6bGk+PC9yZGY6QWx0PjwvZGM6c3ViamVjdD48L3JkZjpEZXNjcmlwdGlvbj48cmRmOkRlc2NyaXB0aW9uIHhtbG5zOnhtcD0iaHR0cDovL25zLmFkb2JlLmNvbS94YXAvMS4wLyI+PHhtcDpDcmVhdG9yVG9vbD5BZG9iZSBJbGx1c3RyYXRvciBDQyAyMi4wIChXaW5kb3dzKTwveG1wOkNyZWF0b3JUb29sPjx4bXA6Q3JlYXRlRGF0ZT4yMDE4LTA1LTA5VDEwOjAyOjMyKzAzOjAwPC94bXA6Q3JlYXRlRGF0ZT48eG1wOk1vZGlmeURhdGU+MjAxOC0wNS0wOVQwNzowMjozNFo8L3htcDpNb2RpZnlEYXRlPjx4bXA6TWV0YWRhdGFEYXRlPjIwMTgtMDUtMDlUMTA6MDI6MzIrMDM6MDA8L3htcDpNZXRhZGF0YURhdGU+PHhtcDpUaHVtYm5haWxzPg0KICAgICAgICAgICAgPHJkZjpBbHQ+DQogICAgICAgICAgICAgICA8cmRmOmxpIHJkZjpwYXJzZVR5cGU9IlJlc291cmNlIj4NCiAgICAgICAgICAgICAgICAgIDx3aWR0aCB4bWxucz0iaHR0cDovL25zLmFkb2JlLmNvbS94YXAvMS4wL2cvaW1nLyI+MjU2PC93aWR0aD4NCiAgICAgICAgICAgICAgICAgIDxoZWlnaHQgeG1sbnM9Imh0dHA6Ly9ucy5hZG9iZS5jb20veGFwLzEuMC9nL2ltZy8iPjI1NjwvaGVpZ2h0Pg0KICAgICAgICAgICAgICAgICAgPGZvcm1hdCB4bWxucz0iaHR0cDovL25zLmFkb2JlLmNvbS94YXAvMS4wL2cvaW1nLyI+SlBFRzwvZm9ybWF0Pg0KICAgICAgICAgICAgICAgICAgPGltYWdlIHhtbG5zPSJodHRwOi8vbnMuYWRvYmUuY29tL3hhcC8xLjAvZy9pbWcvIj4vOWovNEFBUVNrWkpSZ0FCQWdFQmtBR1FBQUQvN1FBc1VHaHZkRzl6YUc5d0lETXVNQUE0UWtsTkErMEFBQUFBQUJBQmtBQUFBQUVBDQpBUUdRQUFBQUFRQUIvK0lNV0VsRFExOVFVazlHU1V4RkFBRUJBQUFNU0V4cGJtOENFQUFBYlc1MGNsSkhRaUJZV1ZvZ0I4NEFBZ0FKDQpBQVlBTVFBQVlXTnpjRTFUUmxRQUFBQUFTVVZESUhOU1IwSUFBQUFBQUFBQUFBQUFBQUFBQVBiV0FBRUFBQUFBMHkxSVVDQWdBQUFBDQpBQUFBQUFBQUFBQUFBQUFBQUFBQUFBQUFBQUFBQUFBQUFBQUFBQUFBQUFBQUFBQUFBQUFBQUFBQUFBQVJZM0J5ZEFBQUFWQUFBQUF6DQpaR1Z6WXdBQUFZUUFBQUJzZDNSd2RBQUFBZkFBQUFBVVltdHdkQUFBQWdRQUFBQVVjbGhaV2dBQUFoZ0FBQUFVWjFoWldnQUFBaXdBDQpBQUFVWWxoWldnQUFBa0FBQUFBVVpHMXVaQUFBQWxRQUFBQndaRzFrWkFBQUFzUUFBQUNJZG5WbFpBQUFBMHdBQUFDR2RtbGxkd0FBDQpBOVFBQUFBa2JIVnRhUUFBQS9nQUFBQVViV1ZoY3dBQUJBd0FBQUFrZEdWamFBQUFCREFBQUFBTWNsUlNRd0FBQkR3QUFBZ01aMVJTDQpRd0FBQkR3QUFBZ01ZbFJTUXdBQUJEd0FBQWdNZEdWNGRBQUFBQUJEYjNCNWNtbG5hSFFnS0dNcElERTVPVGdnU0dWM2JHVjBkQzFRDQpZV05yWVhKa0lFTnZiWEJoYm5rQUFHUmxjMk1BQUFBQUFBQUFFbk5TUjBJZ1NVVkROakU1TmpZdE1pNHhBQUFBQUFBQUFBQUFBQUFTDQpjMUpIUWlCSlJVTTJNVGsyTmkweUxqRUFBQUFBQUFBQUFBQUFBQUFBQUFBQUFBQUFBQUFBQUFBQUFBQUFBQUFBQUFBQUFBQUFBQUFBDQpBQUFBQUFBQUFBQUFBRmhaV2lBQUFBQUFBQUR6VVFBQkFBQUFBUmJNV0ZsYUlBQUFBQUFBQUFBQUFBQUFBQUFBQUFCWVdWb2dBQUFBDQpBQUFBYjZJQUFEajFBQUFEa0ZoWldpQUFBQUFBQUFCaW1RQUF0NFVBQUJqYVdGbGFJQUFBQUFBQUFDU2dBQUFQaEFBQXRzOWtaWE5qDQpBQUFBQUFBQUFCWkpSVU1nYUhSMGNEb3ZMM2QzZHk1cFpXTXVZMmdBQUFBQUFBQUFBQUFBQUJaSlJVTWdhSFIwY0RvdkwzZDNkeTVwDQpaV011WTJnQUFBQUFBQUFBQUFBQUFBQUFBQUFBQUFBQUFBQUFBQUFBQUFBQUFBQUFBQUFBQUFBQUFBQUFBQUFBQUFBQVpHVnpZd0FBDQpBQUFBQUFBdVNVVkRJRFl4T1RZMkxUSXVNU0JFWldaaGRXeDBJRkpIUWlCamIyeHZkWElnYzNCaFkyVWdMU0J6VWtkQ0FBQUFBQUFBDQpBQUFBQUFBdVNVVkRJRFl4T1RZMkxUSXVNU0JFWldaaGRXeDBJRkpIUWlCamIyeHZkWElnYzNCaFkyVWdMU0J6VWtkQ0FBQUFBQUFBDQpBQUFBQUFBQUFBQUFBQUFBQUFBQUFHUmxjMk1BQUFBQUFBQUFMRkpsWm1WeVpXNWpaU0JXYVdWM2FXNW5JRU52Ym1ScGRHbHZiaUJwDQpiaUJKUlVNMk1UazJOaTB5TGpFQUFBQUFBQUFBQUFBQUFDeFNaV1psY21WdVkyVWdWbWxsZDJsdVp5QkRiMjVrYVhScGIyNGdhVzRnDQpTVVZETmpFNU5qWXRNaTR4QUFBQUFBQUFBQUFBQUFBQUFBQUFBQUFBQUFBQUFBQUFBQUIyYVdWM0FBQUFBQUFUcFA0QUZGOHVBQkRQDQpGQUFEN2N3QUJCTUxBQU5jbmdBQUFBRllXVm9nQUFBQUFBQk1DVllBVUFBQUFGY2Y1MjFsWVhNQUFBQUFBQUFBQVFBQUFBQUFBQUFBDQpBQUFBQUFBQUFBQUFBQUtQQUFBQUFuTnBaeUFBQUFBQVExSlVJR04xY25ZQUFBQUFBQUFFQUFBQUFBVUFDZ0FQQUJRQUdRQWVBQ01BDQpLQUF0QURJQU53QTdBRUFBUlFCS0FFOEFWQUJaQUY0QVl3Qm9BRzBBY2dCM0FId0FnUUNHQUlzQWtBQ1ZBSm9BbndDa0FLa0FyZ0N5DQpBTGNBdkFEQkFNWUF5d0RRQU5VQTJ3RGdBT1VBNndEd0FQWUErd0VCQVFjQkRRRVRBUmtCSHdFbEFTc0JNZ0U0QVQ0QlJRRk1BVklCDQpXUUZnQVdjQmJnRjFBWHdCZ3dHTEFaSUJtZ0doQWFrQnNRRzVBY0VCeVFIUkFka0I0UUhwQWZJQitnSURBZ3dDRkFJZEFpWUNMd0k0DQpBa0VDU3dKVUFsMENad0p4QW5vQ2hBS09BcGdDb2dLc0FyWUN3UUxMQXRVQzRBTHJBdlVEQUFNTEF4WURJUU10QXpnRFF3TlBBMW9EDQpaZ055QTM0RGlnT1dBNklEcmdPNkE4Y0Qwd1BnQSt3RCtRUUdCQk1FSUFRdEJEc0VTQVJWQkdNRWNRUitCSXdFbWdTb0JMWUV4QVRUDQpCT0VFOEFUK0JRMEZIQVVyQlRvRlNRVllCV2NGZHdXR0JaWUZwZ1cxQmNVRjFRWGxCZllHQmdZV0JpY0dOd1pJQmxrR2FnWjdCb3dHDQpuUWF2QnNBRzBRYmpCdlVIQndjWkJ5c0hQUWRQQjJFSGRBZUdCNWtIckFlL0I5SUg1UWY0Q0FzSUh3Z3lDRVlJV2dodUNJSUlsZ2lxDQpDTDRJMGdqbkNQc0pFQWtsQ1RvSlR3bGtDWGtKandta0Nib0p6d25sQ2ZzS0VRb25DajBLVkFwcUNvRUttQXF1Q3NVSzNBcnpDd3NMDQpJZ3M1QzFFTGFRdUFDNWdMc0F2SUMrRUwrUXdTRENvTVF3eGNESFVNamd5bkRNQU0yUXp6RFEwTkpnMUFEVm9OZEEyT0Rha053dzNlDQpEZmdPRXc0dURra09aQTUvRHBzT3RnN1NEdTRQQ1E4bEQwRVBYZzk2RDVZUHN3L1BEK3dRQ1JBbUVFTVFZUkIrRUpzUXVSRFhFUFVSDQpFeEV4RVU4UmJSR01FYW9SeVJIb0VnY1NKaEpGRW1RU2hCS2pFc01TNHhNREV5TVRReE5qRTRNVHBCUEZFK1VVQmhRbkZFa1VhaFNMDQpGSzBVemhUd0ZSSVZOQlZXRlhnVm14VzlGZUFXQXhZbUZra1diQmFQRnJJVzFoYjZGeDBYUVJkbEY0a1hyaGZTRi9jWUd4aEFHR1VZDQppaGl2R05VWStoa2dHVVVaYXhtUkdiY1ozUm9FR2lvYVVScDNHcDRheFJyc0d4UWJPeHRqRzRvYnNodmFIQUljS2h4U0hIc2NveHpNDQpIUFVkSGgxSEhYQWRtUjNESGV3ZUZoNUFIbW9lbEI2K0h1a2ZFeDgrSDJrZmxCKy9IK29nRlNCQklHd2dtQ0RFSVBBaEhDRklJWFVoDQpvU0hPSWZzaUp5SlZJb0lpcnlMZEl3b2pPQ05tSTVRandpUHdKQjhrVFNSOEpLc2syaVVKSlRnbGFDV1hKY2NsOXlZbkpsY21oeWEzDQpKdWduR0NkSkozb25xeWZjS0Ewb1B5aHhLS0lvMUNrR0tUZ3BheW1kS2RBcUFpbzFLbWdxbXlyUEt3SXJOaXRwSzUwcjBTd0ZMRGtzDQpiaXlpTE5jdERDMUJMWFl0cXkzaExoWXVUQzZDTHJjdTdpOGtMMW92a1MvSEwvNHdOVEJzTUtRdzJ6RVNNVW94Z2pHNk1mSXlLakpqDQpNcHN5MURNTk0wWXpmek80TS9FMEt6UmxOSjQwMkRVVE5VMDFoelhDTmYwMk56WnlOcTQyNlRja04yQTNuRGZYT0JRNFVEaU1PTWc1DQpCVGxDT1g4NXZEbjVPalk2ZERxeU91ODdMVHRyTzZvNzZEd25QR1U4cER6alBTSTlZVDJoUGVBK0lENWdQcUErNEQ4aFAyRS9vai9pDQpRQ05BWkVDbVFPZEJLVUZxUWF4QjdrSXdRbkpDdFVMM1F6cERmVVBBUkFORVIwU0tSTTVGRWtWVlJacEYza1lpUm1kR3EwYndSelZIDQplMGZBU0FWSVMwaVJTTmRKSFVsalNhbEo4RW8zU24xS3hFc01TMU5MbWt2aVRDcE1ja3k2VFFKTlNrMlRUZHhPSlU1dVRyZFBBRTlKDQpUNU5QM1ZBblVIRlF1MUVHVVZCUm0xSG1VakZTZkZMSFV4TlRYMU9xVS9aVVFsU1BWTnRWS0ZWMVZjSldEMVpjVnFsVzkxZEVWNUpYDQo0Rmd2V0gxWXkxa2FXV2xadUZvSFdsWmFwbHIxVzBWYmxWdmxYRFZjaGx6V1hTZGRlRjNKWGhwZWJGNjlYdzlmWVYrellBVmdWMkNxDQpZUHhoVDJHaVlmVmlTV0tjWXZCalEyT1hZK3RrUUdTVVpPbGxQV1dTWmVkbVBXYVNadWhuUFdlVForbG9QMmlXYU94cFEybWFhZkZxDQpTR3FmYXZkclQydW5hLzlzVjJ5dmJRaHRZRzI1YmhKdWEyN0VieDV2ZUcvUmNDdHdobkRnY1RweGxYSHdja3R5cG5NQmMxMXp1SFFVDQpkSEIwekhVb2RZVjE0WFkrZHB0MitIZFdkN040RVhodWVNeDVLbm1KZWVkNlJucWxld1I3WTN2Q2ZDRjhnWHpoZlVGOW9YNEJmbUorDQp3bjhqZjRSLzVZQkhnS2lCQ29GcmdjMkNNSUtTZ3ZTRFY0TzZoQjJFZ0lUamhVZUZxNFlPaG5LRzE0YzdoNStJQklocGlNNkpNNG1aDQppZjZLWklyS2l6Q0xsb3Y4akdPTXlvMHhqWmlOLzQ1bWpzNlBObytla0FhUWJwRFdrVCtScUpJUmtucVM0NU5OazdhVUlKU0tsUFNWDQpYNVhKbGpTV241Y0tsM1dYNEpoTW1MaVpKSm1RbWZ5YWFKclZtMEticjV3Y25JbWM5NTFrbmRLZVFKNnVueDJmaTUvNm9HbWcyS0ZIDQpvYmFpSnFLV293YWpkcVBtcEZha3g2VTRwYW1tR3FhTHB2Mm5icWZncUZLb3hLazNxYW1xSEtxUHF3S3JkYXZwckZ5czBLMUVyYml1DQpMYTZocnhhdmk3QUFzSFd3NnJGZ3NkYXlTN0xDc3ppenJyUWx0SnkxRTdXS3RnRzJlYmJ3dDJpMzRMaFp1Tkc1U3JuQ3VqdTZ0YnN1DQp1NmU4SWJ5YnZSVzlqNzRLdm9TKy83OTZ2L1hBY01Ec3dXZkI0OEpmd3R2RFdNUFV4RkhFenNWTHhjakdSc2JEeDBISHY4Zzl5THpKDQpPc201eWpqS3Q4czJ5N2JNTmN5MXpUWE50YzQyenJiUE44KzQwRG5RdXRFODBiN1NQOUxCMDBUVHh0UkoxTXZWVHRYUjFsWFcyTmRjDQoxK0RZWk5qbzJXelo4ZHAyMnZ2YmdOd0YzSXJkRU4yVzNoemVvdDhwMzYvZ051Qzk0VVRoek9KVDR0dmpZK1ByNUhQay9PV0U1ZzNtDQpsdWNmNTZub011aTg2VWJwME9wYjZ1WHJjT3Y3N0lidEVlMmM3aWp1dE85QTc4endXUERsOFhMeC8vS004eG56cC9RMDlNTDFVUFhlDQo5bTMyKy9lSytCbjRxUGs0K2NmNlYvcm4rM2Y4Qi95WS9Tbjl1djVML3R6L2JmLy8vKzRBRGtGa2IySmxBR1RBQUFBQUFmL2JBSVFBDQpCZ1FFQkFVRUJnVUZCZ2tHQlFZSkN3Z0dCZ2dMREFvS0N3b0tEQkFNREF3TURBd1FEQTRQRUE4T0RCTVRGQlFURXh3Ykd4c2NIeDhmDQpIeDhmSHg4Zkh3RUhCd2NOREEwWUVCQVlHaFVSRlJvZkh4OGZIeDhmSHg4Zkh4OGZIeDhmSHg4Zkh4OGZIeDhmSHg4Zkh4OGZIeDhmDQpIeDhmSHg4Zkh4OGZIeDhmSHg4Zi84QUFFUWdCQUFFQUF3RVJBQUlSQVFNUkFmL0VBYUlBQUFBSEFRRUJBUUVBQUFBQUFBQUFBQVFGDQpBd0lHQVFBSENBa0tDd0VBQWdJREFRRUJBUUVBQUFBQUFBQUFBUUFDQXdRRkJnY0lDUW9MRUFBQ0FRTURBZ1FDQmdjREJBSUdBbk1CDQpBZ01SQkFBRklSSXhRVkVHRTJFaWNZRVVNcEdoQnhXeFFpUEJVdEhoTXhaaThDUnlndkVsUXpSVGtxS3lZM1BDTlVRbms2T3pOaGRVDQpaSFREMHVJSUpvTUpDaGdaaEpSRlJxUzBWdE5WS0JyeTQvUEUxT1QwWlhXRmxhVzF4ZFhsOVdaMmhwYW10c2JXNXZZM1IxZG5kNGVYDQpwN2ZIMStmM09FaFlhSGlJbUtpNHlOam8rQ2s1U1ZscGVZbVpxYm5KMmVuNUtqcEtXbXA2aXBxcXVzcmE2dm9SQUFJQ0FRSURCUVVFDQpCUVlFQ0FNRGJRRUFBaEVEQkNFU01VRUZVUk5oSWdaeGdaRXlvYkh3Rk1IUjRTTkNGVkppY3ZFekpEUkRnaGFTVXlXaVk3TENCM1BTDQpOZUpFZ3hkVWt3Z0pDaGdaSmpaRkdpZGtkRlUzOHFPend5Z3AwK1B6aEpTa3RNVFU1UFJsZFlXVnBiWEYxZVgxUmxabWRvYVdwcmJHDQoxdWIyUjFkbmQ0ZVhwN2ZIMStmM09FaFlhSGlJbUtpNHlOam8rRGxKV1dsNWlabXB1Y25aNmZrcU9rcGFhbnFLbXFxNnl0cnErdi9hDQpBQXdEQVFBQ0VRTVJBRDhBOVU0cTdGWFlxN0ZYWXE3RlhZcTdGWFlxN0ZYWXE3RlhZcTdGWFlxN0ZYWXE3RlhZcTdGWFlxN0ZYWXE3DQpGWFlxN0ZYWXE3RlhZcTdGWFlxN0ZYWXE3RlhZcTdGWFlxN0ZYWXE3RlhZcTdGWFlxN0ZYWXE3RlhZcTdGWFlxN0ZYWXE3RlhZcTdGDQpYWXE3RlhZcTdGWFlxN0ZYWXE3RlhZcTdGWFlxN0ZYWXE3RlhZcTdGWFlxN0ZYWXE3RlhZcTdGWFlxN0ZYWXE3RlhZcTdGWFlxN0ZYDQpZcTdGWFlxN0ZYWXE3RlhZcTdGWFlxN0ZYWXE3RlhZcTdGWFlxN0ZYWXE3RlhZcTdGWFlxN0ZYWXE3RlhZcTdGWFlxN0ZYWXE3RlhZDQpxN0ZYWXE3RlhZcTdGWFlxN0ZYWXE3RlhZcTdGWFlxN0ZYWXE3RlhZcTdGWFlxN0ZYWXE3RlhZcTdGWFlxN0ZYWXE3RlhZcTdGWFlxDQo3RlhZcTdGWFlxN0ZYWXE3RlhZcTdGWFlxN0ZYWXE3RlhZcTdGWFlxN0ZYWXE3RlhZcTdGWFlxN0ZYWXE3RlhZcTdGWFlxN0ZYWXE3DQpGWFlxN0ZYWXE3RlhZcTdGWFlxN0ZYWXE3RlhZcTdGWFlxN0ZYWXE3RlhZcTdGWFlxN0ZYWXE3RlhZcTdGWFlxN0ZYWXE3RlhZcWxIDQptTHpkNWQ4dXdyTHE5NGx0Nm45MUhRdkkvd0Rxb2daaVBlbE15dE5vOHVjMUFXMzROTGt5bW9DMHM4di9BSm5lVE5kdWxzN0srNFhiDQpta2NFNnRFem53VXNPTEgyQnJsK3A3S3o0UnhTajZmTGR1ejluNWNZc2pabFdhNXduWXE3RlhZcTdGWFlxN0ZYWXE3RlhZcTdGWFlxDQo3RlhZcTdGWFlxN0ZYWXE3RlhZcTdGWFlxN0ZYWXE3RlhZcTdGWFlxN0ZYWXErZnRJMHBmUC81cWFrbXN5dXRyYm1hVDBRZUxHS0NRDQpSUndxZjJmdEF0VDM3NTJtYk4rVDBjZkRHNXI1a1dTOVJseS9sdE5IZzVtdnQ2cGgrYmY1YytYL0FDOXBWdHJHaUs5bXduV0dTRDFIDQpjRXNyTXJxemxtREFwNDVSMlAybmx6VE9QSjZ0cmNmcy9YVHl5TVo3N1BVL0ltcTNXcmVVTkt2N29scm1hQUNaejFaa0pRdWY5YmpYDQpPZTdRd2pIbmxFY2dYVDZ2R0laWkFjclZOYjg2ZVY5RG5TMzFUVVlyYWR3R0VKNU85RDBKVkF4VUh4T1J3YUxObEZ3aVNHT1BUem1MDQppRTBzN3kwdmJXTzZ0SmtudHBoeWltaklaV0hzUm1QT0JpYWtLSWFwUklORld5S0hZcTdGWFlxN0ZYWXE3RlhZcTdGWFlxN0ZYWXE3DQpGWFlxN0ZYWXE3RlhZcTdGWFlxN0ZYWXE3RlhZcTdGWFlxN0ZYanZuYjh1Zk5XbStaMzgwK1RpelNUT1pwWVlpb2xqa2YrOElWL2hrDQpSenVSNzlLWjAraDdUdzVNUGc1K20za2U3M0VPODB1dXh6eCtIbFlyNXBzZnpYMTdUMzFIWHJTNCtvNmFwa1pXUklWVWRHY1JEaXpVDQpIVnFHZzlzMk9reWFQRExoeGtjVXZqOXJrNFo2ZkdlR0JGeWUwL2w1cXVsYWw1UTA2WFRJekRid1JDM2FCalZvM2lBVmxKNytOZTlhDQo1eXZhV0tjTThoUGNrMzgzUjZ1RW81RHhjM2pmNWdXY21sZWQ5WnVkYzA1NzZEVVZrT216RjJSQXpxQkU2c0I4UmlBNGxEL1RPbjdPDQptTW1uZ01jdUV4cmkvVDgrOTJtbW54WW9pSnF1YjA3OG05SjFYVGZKd2oxR040V251Sko3ZUdTb1pZbVZBS3FmczFaV2Fudm1nN2F6DQpRbm51TzlDajczWGE2Y1paTm1jNXFYRFVML1VMTFQ3T1c4dlpsdDdXRWNwWlhOQUIvbjBHVHg0NVRrSXhGa3BBSk5CaXRqK2Jma2U4DQp2RnRWdkdpWnp4U1dhTmtqSnJRZkVSOE5mOHFtYkRKMlJxSXh1cjl6YWNFZ3pITlkwdXhWMkt1eFYyS3V4VjJLdXhWMkt1eFYyS3V4DQpWMkt1eFYyS3V4VjJLdXhWMkt1eFYyS3V4VjJLclpwVmlpZVZnU3NhbGlCdWFBVjJ3eEZta2dXWHo5TitaLzVpWGlYZXYyMTlEYjZkDQphenh4L1VQM0pvSk9SUmVERDFIRkYzYnI0ZE51ekhaV2xqV0l4SmtSejMvc0QwUDVMQkdvRVdTT2U3Mm5TOVVUWFBLTU9veVJCQmZXDQpaZVdFN3FDeUVPdS9VVnJuSzVjWGhaekVINlpPam5EZ3lWM0ZoLzVCZjhvZGVmOEFiUWsvNU1RNXMvYUgrL0g5UWZlWEw3VC9BTHdlDQo3OUpVdnp6L0FONDlDLzVqRC94RVpMc0g2cC8xV09nTzh2YzlQelFPQTdGWGtQNTU2L1pUMjFscEZyZUpKTkZNMHQ1YkllUlVoYUp6DQpJMkhVL0NkODZUc0xUeUJNeU5xMkxsNmFKRzZGODlyK1dQOEFncUQ5Q2ZWdjBoV1A2bjZISDZ4U281L1dLZkg5aXYyKy9UTE5BZFg0DQo1OFMrSGU3NWZEOWlJR2ZGdTlOOGtmWFA4SWFSOWM1ZldQcXNmTG45cW5INGErL0dtYUhYY1BqVDRlWEVYSG56S2Q1aXNYWXE3RlhZDQpxN0ZYWXE3RlhZcTdGWFlxN0ZYWXE3RlhZcTdGWFlxN0ZXQjZ4K2Rma1hUYnhyVVRUWHpvZU1qMmtZZU5UL3JzeUJ2OWpYTnpoN0MxDQpHU1BGUWo3M2JZdXhjODQzUWo3MlIrV2ZPSGwvekxhdGNhUmRDYjA2Q2FGZ1Vsako2Y2tPKy9ZOU13TlZvc3VBMU1WOXpoYW5TWk1KDQpxWVRuTVZ4bllxN0ZYWXE4Sjh4L2w5b0VQNXE2Ym9jSWtpMDdVNC9yTTBTc0J3Sk10VWpOTmwvZERPdjAzYU9RNk9XUTF4UTIrN244DQozZTR0WE00REkvVU52dWUxdGEyOXBwTFd0dEdJcmVDQXh3eHIwVkVTaWdmSVp5Z21aVHM4eVhTOFJNckxBZnlFL3dDVVB2UCsyaEovDQp5WWh6YyswSDkrUDZnKzh1WjJpZjNnOTM2MUw4OHY4QWVQUS8rWXcvOFJHSHNMNnAvd0JWam9qdWZjOU96UXVFOHU4MGE5NXE4emVhDQpybnlsNWJtRmxhMmlrWDk1VXF4cFFQOEFHQVdBQmJqUmR5ZmJOL3BkUGh3WVJteWppSjVCeW9SakdQRkpQUEwvQU9VbmxUVExSMHZJDQpCcWwxTXBXYTR1QnR2MTlOQWZnK2RlWHZtSnFPMTgyUStrOEFIUWZwNy91YTU1NUh5WFdQNVIrU2JPK0YydHE4eFZ1VWNFMGhlSlNPDQpudy90ZjdJbkJrN1h6eWp3M1h1NXNUbGtXWjVyR3QyS3V4VjJLdXhWMkt1eFYyS3V4VjJLdXhWMkt1eFYyS3V4VjJLdXhWaG41d2FuDQplYWY1QjFDUzBZcEpPWTdkcEY2cWtyaFgrOWZoK25OcjJMaWpQVXhFdW0veWRuMlJqalBVUnZwdXhQOEFLVDh1UEtXcGVVb3RXMU8xDQpXL3U3MXBWWVNNMUlsamtNWVVCU0tFOGVWZXUrYkx0bnRQUERPWVFQQ0kxOFhQN1c3UnpRekdFVHdnVjhVZzB5eVR5aitkVVdtYVJJDQp6V2NzcVFQRlhrUkZjeHF4UmozNEVoaFh3RmN6TXVUOHpvRE9mMVZmeEIvUzM1Y241alI4VStkZmM5K3pqSGxuWXE3RlhZcTgrOHc2DQpEckZ4K2JlaGF0RGF1K20yMXFFbnVnQndScXo3SC9nMSsvTjFwdFJDT2luQW4xR1hML1N1ZGl5eEdDVWIzSi9Venk2Vm50WmxVVlprDQpZQWVKSU9hZUIzRGhEbXduOG5ORTFYUi9MRjFiYW5iUGFYRDNza3F4eWJFb1lvbERiZTZuTnIyMW5obHlnd05qaC9TWEsxbVFTblk3DQpsUDhBTnpRdFgxYTEwaGROdFh1bWd1aTh3am9lSzBHNXJoN0gxRU1abnhHcml4MDB4RzdaL21uY1pnUGt2UXRYc3ZQbm1hL3VyVjRiDQpPOGRqYlROVGk0TXBPMzBadU5ibmhMVDQ0ZzNJYy9rMzVKQXhBWjltbmFIWXE3RlhZcXgzemI1NzBUeXlpTGRscHJ5VWNvclNLaGNyDQowNU1TUUZXdjltWnVrME9UUDlPdzcySmxURzlLL08zUkxtNldHK3M1YkdOeUFKK1FsVlNlN0FCV0ErUU9adVhzWEpFWEVpWDJNUEZEDQowU09TT1dOWkkyRHh1QXlPcHFDcEZRUVI0NXBpS05GdFhZRmRpcnNWZGlyc1ZkaXJzVmRpcnNWZGlyc1ZkaXFBMS9STExYTkh1OUp2DQpRVGJYYWNISzdNcEJCVmw5MVlBakx0UG5saXlDY2VZYmNHYVdLWW5IbUhpc1BrWDgzL0tseFBhZVhabW1zWjJOSllIaENOWFlNWTVqDQo4RFU2a2ZmblZ5N1EwT3BBbGxGU0hmZjNqbTlITFc2VE9BY2c5UTc3L1FpUHlVMEtDOTh6NmxxbXJUUEpybW11UWJlV3BZU1NGa2VWDQptSlBKZ1F5KzNYd3lIYnVvTWNNWVFIN3VYWDlEVjJ0bk1jY1l3SG9sK0tlNDV5THpqc1ZkaXJ3SzE4eC9taDUyMVM4azBPNmtnaGdJDQpZVzBNcVFMSEc1SVFWSlV1ZHVwenNaNmJTYVdBR1FBazlTTHQzY3NXSERFY1FSLytGL3owL3dDVzY0LzZUVS81cnluODEyZi9BRFIvDQpwV281dFAzRDVOLzRZL1BQL2x0dVArazFQK2E4SDVycy93RG1qL1NzRGx3ZDMyTi80WS9QTC9sdHVQOEFwTlQvQUpyeC9OZG4vd0EwDQpmNlZnY21IdSt4di9BQXgrZUgvTGJjZjlKcWY4MTRQeldnN2gvcFdKeVl1NzdHLzhNL25mL3dBdHR4LzBtcC96WGcvTmFEdUgrbFlHDQplTnNlV2Z6dS93Q1cyNC82VEUvNXJ4L05hRHVIK2xZR1VFUEg1ai9NWHlqcjlsRnIxeEpQQmNsUzhFc2l6aDR5M0Z1TEF0eFlmUEpIDQpUYWJVWXljWW9qNE1UUkd6M0hPVmFYWXE3RlhpYlEyT3NmbkROQnE3TExhbTRlTkkyTlViMG95SW8vcEtqYnVkczZmaWxqMFFNT2RmDQpmemFidVRLZnpaMEh5OUY1VmE3VzNodGIyQjQwczJpVll5M0pnR2orRUNvNGNtcDdaZ2RsWjhoeTFaTVR6WE1Cd3ByK1ZNMXhMNUlzDQpmV0pJUnBVaVk3MVJaQ0I5M1RLTzFBQm5OZVNjSnVMTHMxemE3RlhZcTdGWFlxN0ZYWXE3RlhZcTdGWFlxN0ZYWXE3RlhsWG5IeTk1DQpsOHRlY0c4NmVXYlg2NUJjcVJxVmlnSk80QWM4RitJcS9FTlVWbzI1MnpvdEZxY1dmQitYekhoSStrL2o1ZTUzR216NDh1THdzaHF1DQpSWEorZTBIRUNYeS9lSktQdG9HQkFQaFVxdjZzQjdBUFRKRmdleXowa0YzL0FDdld6LzZzVjU5Ni93Qk1IOGdTL254WW5zMC96Z24vDQpBSk0vTW0zOHo2cExZUjZiY1diUlFOUDZzeEhFaFhWT093Ni9IbUhyZXpEZ2dKR1Fsdld6ajU5SWNZdXdXRS84NCtmNzJhMS94amcvDQo0aytiWDJpK21IeC9RNVhhUjJEMmRtVkZMTVFxcUtzeDJBQTZrbk9XQWRVbDMrSnZMbi9WMXMvK2tpTC9BSnF5L3dESzVmNXN2a1dmDQpoeTdpNy9Fdmx6L3E2MmYvQUVrUmY4MVkvbHN2ODJYeUtPQTl6ZjhBaVh5NS93QlhXei82U0l2K2FzZnkyWCtiTDVGZUU5enY4U2VYDQpmK3JwWi84QUkrTC9BSnF4L0xaZjVzdmtVY0pZRjU1WDh5bjgzMnphQ1ovMGJ4aU5zWVRTM3IrMzY5UGhPLzhBTjJ6YmFFNlVZVDRsDQpjVzk5L3dBR2NhcExQenIvQU9VaTBUL2pHZjhBazZNdjdGL3U1L2pveEJaZjVvL01tRFFOV2JUbjAyNHVtVkZmMVlpT1B4Q3ROeG10DQowdlpwelE0dUlCZ1NsQi9PbTNJK0RSTHRtN0FrQ3ArZ0hNbitSai9QaXhNMExKTitaUG5WakZIRWZMK2l0czdOeVZtSHpJV1Ivb0NyDQo0NU1EUzZiZS9FbitQZ1B2WStvcjlUL0pHMUZoQ05Ldm1YVUk5NUpMais3a1Ard0JNZE8zWEJqN2FQRWVNZW55L0c2SllkdGtGYi9sDQpONXQxRzZpL1QrcWg3V0hZSDFaTGlRTC9BQ29KQUZYcC9ZY3NsMnJoZ0Q0Y2R6NUFOZmd5UE12VmRQc0xYVDdHQ3l0RTlPMnQwQ1JKDQo0QWZ4OGMwT1RJWnlNanpMa2dVS1JHUVM3RlhZcTdGWFlxN0ZYWXE3RlhZcTdGWFlxN0ZYWXF3enpyK2FXZytWcmtXVXNjbDVxSlVPDQoxdERRQkZiN1BxT2VsZXdBSnphYUhzbkpxQnhEMHg3eTUybDBFOG92bEZkNUovTS9Rdk5VeldrS1NXZW9LcGY2dE5RODFIVXh1UHRVDQo3aWdPRFhkbFpOT09JK3FQZVAwbzFPaG5pM080Wmptc2NKMkt1eFY0eC96ajcvdlpyWC9HT0QvaVQ1MUh0RjlNUGoraDJYYUIyRE5QDQp6ZmxrajhoWC9wc1Y1dENyVU5LcVpWcVBwelY5amdIVVIrUDNPSnB2ckNUZVhQeWk4blgzbC9UTDY0am5NOTFhUVR6RVNrRG5KR3JODQpRVTZWT1pPcDdZend5U2lLb1NJNWViT2Vva0pFSmoveXBieVAvdnE0L3dDUngvcGxQOHQ2anZIeWEvekVtLzhBbFMva2ovZlZ4L3lPDQpQOU1IOHRhanZIeVI0MGtvODMvbFg1VDB2eTFxR29Xa2N3dWJhSXZFV2xMQ29JNmltWk9qN1Z6Wk1zWXlxaWU1QXlFc24vSzJlYWJ5DQpGcFR5dVhjTEtnWTduaWs3b28raFZBekE3VWlCcUpWNWZjR0V1YkNmenEvNVNIUmYrTVovNU9qTm4yTC9BSGMveDBZa3ZZTTV4THNWDQpkaXJBdFMvT1R5MWFYelcwTU05NUdoNHlYRVFVSnQxNGNpT1g0WnRzZlpHV1ViSkFjZVdvaUN5L1JkYTA3V2RQanY4QVQ1ZlV0NU52DQpCbFlkVllkaU0xMmJETEhMaGx6Ym96RWhZUjJWTW5ZcTdGWFlxN0ZYWXE3RlhZcTdGWFlxN0ZYWXE3RlhZcThSYlVOUDhyL25KcVYvDQo1bGpZMjl5SGtzcm9vWkJHSkNwamxBQUxFS3F0SDhQVE9zR09XbzBNWTR1WTVqN3grbDN2Q2N1bEVZZE9mNCsxQmFrNDg1L21hay9rDQoxMnNtV0dzdXBxclIvRW9ZUE1RS01PUVlSNzduTGNRL0s2U3MvcTMrbm44UDBwaCs1d1ZrMzh2ME1yLzVWNStaMy9VNHlmOEFCVGYxDQp6WGZ5bHBQOVIrNXd6cXNQOHh2L0FKVjUrWnYvQUZPTW4vQlRmMXdmeWpwUDlSKzVpZFRpL21KOTVOOHJlY05KMU9XNTFyWG4xUzFlDQpCbzB0MmFRaFpDNmtQOFpwc0ZJK25NUFc2dkJrZ0JqaHdHK2JSbXl3a0tqR21GZjg0LzhBKzltdGY4WTRQK0pQbTE5b2ZwaDhmME4rDQp0UEptUDV4ZjhvRmUvd0RHU0QvazZ1YXZzYi9HQjhmdWNYVC9BRnA5NU8vNVJIUS8rMmZhL3dESmxjeE5iL2ZUL3JTKzloaytvKzlODQo4eG1Ec1ZZNytZZi9BQ2hPc2Y4QU1PZjFqTTNzNysvaDcxQ0UvS2ovQUpRRFMvOEFudjhBOVJNbVdkcmY0eEw0ZmNGWWIrZFAvS1E2DQpML3hqUC9KMFpzdXhmN3VmNDZNSmxsM21qeXQ1dzFMVld1dEwxNTlQdENpcUxaV2tBREFibjRUVGZOZHBkVmhoQ3B3NGozcktKUEpLDQpmOEIvbUwvMU5rbi9BQVV2OWN5UHoybS8xTDdtQmhMdldYSGtMOHczdDVVUG1kNWd5TURFWGxBYW8relVudjB3eDErbXYrN3I1TVRqDQpuM3NkOG5lYVBMV2c2SHFPbDYxcHJQZnM3aDBhTUgxQnhDaU5pMjY4U0QrdnJtWHJOTmx5NUl6aEwwL2pkeDRaWXhCRWh1eXY4bUxDDQo4dC9MOXpQT2pKRGRUODdjTnR5VlZDbHdQQW5iNk13TzJKeE9RQWN3TjIzU0E4TnZRYzFEbHV4VjJLdXhWMkt1eFYyS3V4VjJLdXhWDQoyS3V4VjJLdXhWTDlZOHY2SnJNS3c2clpSWGlJU1kvVlVFcVQxNHQ5cGEreHk3RHFNbUkzQW1MWmp5eWg5SnB2U05CMGJSNFdoMHV5DQppczQzTlhFU2hTeEg4eDZ0OU9PYlVaTXB1Wk1seVpaVE55TnNNOC9mbUhyV2w2N2ErWGZMMW1sM3FrNnE3bVJXZW5JbmlpcXBYZWkxDQpKSm9CbTA3UDdPeDVNWnk1VFVBNUduMDhaUk1wSFpEZVZ2em0weVczbWc4MUVhWnFWcy9BaElwbVY2VkIrRlZrWkdVaWpBL1I3VDFmDQpZc3dRY1BxaWZNZnN0T1hTRUgwYmhsdWcrZXZLdXYzajJlazN2MW01ampNengrbE5IUkF3VW1zaUlPcmpOZHFOQm13eDRweG9lOGZvDQpMalR3eWlMSWVjZmtCL3ZYclgvR09EL2lUNXUvYUQ2WWZIOURrNnM4bVkvbkQveWdkNy94a2cvNU9ybXM3SC94Z2ZIN25Idy9VbnZrDQo3L2xFZEQvN1o5ci9BTW1WekUxbjk5UCt0TDcyRStaVGZNWmk3RldQZm1IL0FNb1ZxLzhBeGdQNnhtWjJmL2Z4OTZsQi9sVC9BTW9EDQpwZjhBejMvNmlaTXM3Vi94aVh3KzRJRER2em8vNVNIUmYrTVovd0NUZ3paZGpmM2Mvd0FkR3JLZDNvR3NlZXZLMmpYcHN0U3ZmUXVnDQpvY3grbE0remREVkVZZmptb3c2SExranhSRmozaG5MSkVjMEYvd0FyVDhoLzlYUC9BSklYSC9WUExQNUwxSDgzN1IrdGo0OE85aTJwDQpmbXQ1Z3ViMjhrOHUyTWMrbFdBNXpYRWtjakZrclRtMUdUZ3A3Q2xhYm4yejhmWmVPTVI0aHFjbkhscVpXZUViQmwrZy93Q0hmTm1sDQoydXQzR21XejNMZ3JKNnNhU01yb1NwWGtSVWp1SzVycy9pWUpuR0pHbStIRGtIRlRKRlZWVUtvQ3Fvb3FqWUFEc013bTV2RlhZcTdGDQpYWXE3RlhZcTdGWFlxN0ZYWXE3RlhZcTdGWFlxN0ZVaTFyeno1VDBXNUZycWVwUndYSnBXRUI1R1hsMDVDTU54K25NdkJvTTJVWENODQpodGhnbklXQXh2elo1R3NQT2N0cDVpMEhWVnQ3eU5RcVhVUkxJNFFrcWVTRU1qb1QxK2pNN1NhK1dsQnhaSTNIdS9IUnV4WnpqQmpJDQpiSy9sUDhwZkwrazJVaTZwRkZxOTdNd2FTYWFNRlZwMFZBM0x4M1BmSWF2dGZKa2w2Q1lSSGN4eTZxVWp0c0dVYVo1Wjh2NlhPMXhwDQoyblFXazdLWTJraGpWR0tFZ2xhanRWUm1CbDFXVElLbElrTk1za2p6THkzOGdmOEFldldmK01jSC9FbnpmKzBIMHcrUDZISTFKNU13DQovT0QvQUpRTzkvNHlRZjhBSjFjMXZZLytNRDQvYzBZK2FlK1R2K1VSMFQvbUF0ZitUSzVpYXorK24vV2w5N0NYTk44eGtPeFZqMzVoDQpmOG9WcS84QXhnUDZ4bVoyZi9meDk2SmNrSitWWC9LQTZYL3ozLzZpSk1zN1YveGlYdys0SWh5WWQrYy8vS1FhTC94alAvSndac2V4DQp2N3VmNDZOR2M3aDZYZjhBbG55L3FGd2JtKzA2QzVuSUNtV1NOV2FnNkNwelM0OVRrZ0tqSWdONWdEekNHL3dUNVEvNnM5cC95S1grDQptUy9PNXY1MHZteDhLUGN4RFdQeWZhWFVKNWRJMUFXTmxkLzMxcVZhZ0JZTVZIRWdNdFJVS2VtYkhGMnZVUUp4NHBEcTQwOUpaMk5CDQpuUGw3UXJYUTlJdDlNdGlXamhCNVNOMWQyTldZL01uTlhxTTV5ek1qMWNySEFRalFUSEtXYnNWZGlyc1ZkaXJzVmRpcnNWZGlyc1ZkDQppcnNWZGlyc1ZkaXJzVmVCK1FyUHlkcU9vYTFMNTNtUmRVOVFuamRTbUJlUkxlcVFReTFjTjJyOHM3RHRDZWVFWURUajBlUXYzZkIyDQoyb2xNQWNISlQ4amFqNTBzcnJWNGZKZHYra05NOWV2NzhDZ1dyQ0pxTThkR1pCOFh5dzYvSGdrSUhPZUdWZFB0WVp4QTF4N0ZsdjZmDQovUEQvQUtzdHYvd0tmOVZzMTM1ZlFmenorUGc0eGppNzJRZVM5VC9NYTYxU1dQekxwOFZwWUNCbWlrakNnbVlPZ0M3U1AreVc3Wmg2DQozRnBZd0J4U0psZjJmSnF5Q0FIcFlmOEFrRi92WHJQL0FCamcvd0NKUG14N2Y1UStQNkdlYzhucW11NkpZNjNwVSttWHlscmU0QURGDQpUUmxLa01yS2ZFRVpvTUdlV0tZbkhtR2dHbm41L0lmUjZtbXFYQUhZRkVPYmorWHAvd0EwSk0zZjhxSTBuL3E2WEgvQUpnL2wyZjhBDQpOREV0L3dES2l0Si82dWsvL0FKai9Mcy81b1ltSzVmeUwwY01PV3AzQlh1QWlBMCtlK0E5dVQvbWhpY2IwSFNkTHM5SzA2RFQ3Tk9GDQp0Ykx3akJOVDFxU1Q0a21welQ1Y3Nza2pLWE1zd0tlWGZuTi95a0dqZjhZei93QW5CbTk3SC91NS9qbzR1b080WlQ1cDFQOEFNYTMxDQpabzlCMCtLNTA4SXBXVndwUE1qNGh2SW42c3dOTGkweGhlU1JFdng1TThrc2dQcEd5VWZwejg1UCtyUkIvd0FDdi9WWE1qd2RGL09QDQo0K0RVWjV1NU1QTFhuL1UzMW9hRDVtc2xzTlFrQTlDUmFxanNlaWtFdDlyc1ExQ2RzcDFPaGlJZUppUEZGT0xVbmk0WmlpenJOVzVqDQpzVmRpcnNWZGlyc1ZkaXJzVmRpcnNWZGlyc1ZkaXJzVmRpcnNWZGlyRS9NSDVYK1VkY3ZtdnJxM2VHNmtOWnBMZC9UOVErTExRclh4DQpOSzVzZFAycm14UjRRYkhtM3cxRTRpazgwUFFOSjBPd1d4MHUzVzN0d2VSQXFXWmpzV1pqVXNkc3hNK29ubGx4VE5scW5NeU5sTU1wDQpZdXhWOC9mbC93Q2JyZnlYcUdweGFuYVRQTEx3aWFPUGlHUjRtYW9ZTVYvbXpzTzBOSWRUR0pnUi9hM3ozWnYvQU1yMTh2ZjlXKzcvDQpBT1NYL05lYXIrUXNuODZQMnRKRGYvSzgvTDMvQUN3WGYvSkwvbXZIK1E4bjg2UDJzU1cvK1Y1ZVh2OEFsZ3UvK1NYL0FEWGcva1BKDQovT2o5ckV6RGYvSzhmTC8vQUN3WGYvSlAvbXZIK1JNbjg2UDJzVGxEditWNGVYLytXQzcvQU9TZi9OZUQrUk1uODZQMnNUbkRmL0s3DQovTC8vQUN3WGYvSlAvbXZIK1Jjbjg2UDJzVHFZc1E4Mitab3ZPUG1IU2wwMjFsUmtLd3FrbEN6TTBsZWkxMkdiRFM2WTZmSExpSWNmDQpMazQ1Q251dWNzN0YyS3NCL04reDB3NkxCcU1rbm82bmJ5cWxtNi9hZXBxeWJkaFRrRDIrbk5yMlZPWEdZamVKNXVCMmhHUER4ZGVqDQpHN2I4d3Z6R2tzaGZSMmdsc1lWQWt1QmJPWXp3RkdabkI5dmlvZnV6TWxvTk9KY0pQcVBtNFkxbWVyQTI5elB2SlBuTzI4eTJUdHc5DQpDK3Q2QzVnclVVYXRIUTkxTlBvelZhelNIREx2aVhZYVRWREtPNGhrbVlibHV4VjJLdXhWMkt1eFYyS3V4VjJLdXhWMkt1eFYyS3V4DQpWMkt1eFYyS3V4VjJLcFpxSGxqeTdxTS8xaSswMjJ1WnlLR1dTSkdjZ2RLdFNweS9IcXNzQlVaRUQzcHRpT3BXL2s2eTg1NmY1YS93DQoxYVNmWDRmVyt0MFZlRzhncDZmQTEvdXY1dStiSEhMTkxCTEw0a3ZTZVh5OC9ORnNpbThsZVRvNG5rL1F0b2VDbHFla29yUVY4TXdoDQpyY3hOY2N2bWlraDhqMm5rL3dBMGFUTHFIK0hMU3o5S2RvUFNvc3RlS0kvTGx3VCtmcFRNdlhUellKaVBpU08xc1kwVnZuT0R5aDVhDQppc3BQOE4ybDM5Y2w5R2xGajQ3VnI5aDY0ZEhMTm1KL2VTRkQ4ZFdHUWlQUmtuK0NQS0gvQUZaN1Qva1V2OU13dnp1YitmTDVzL0RqDQozTWQwS0R5aHF2bUxWZEgvQU1PV2tQNk1ZcjY5RmIxS1B4K3p3WGo5NXpNenl6WThjWitKSThUVERobElpdVRMZFA4QUx1ZzZkS1pyDQpIVDdlMm1JcDZrY2FxMVBEa0JYTmZrMUdTWXFVaVc2T09JNUJNTXBadXhWNXArZGx0Y1BaNlhjS0NiZUtTVkpTT2dhUUlVci9BTUEyDQpibnNlUTRwRHJzNnJ0UUdvbm95UFJ2T1BsSmZMZHROOWNnZ2hnZ1JIdFdZQ1JDcWdGUFQrMGVuWWI1aVp0Smw4UWlpU1R6Y25GcThYDQpoZzJCUVlmK1VzWm04MDZyZlc4UmpzZlJkVlhzdnF6SzBhLzhDaHpQN1VOWW94UDFYK2gxM1plK1dVaDlOZnBlc1pvbmV1eFYyS3V4DQpWMkt1eFYyS3V4VjJLdXhWMkt1eFYyS3V4VjJLdXhWMkt1eFYyS3FkeGMyOXRBODl4S2tNRVlySkxJd1ZWSGlTZGhrb3hNalEzS3ZMDQo0ZFRnOHovbTVZM3VsVm1zZE10eWsxeUFRcENpUThoWHNYbENqTjZjUndhT1VaN1NrZVh5L1V3dXk5UHZQOTVKL3dEakczNmptaWh6DQpETXNDL0pIL0FKUlM3LzVqNVA4QWt6Rm0yN2EvdmgvVi9TV3JDZGxQODV2OTVkRy81aXorb1lleCtjLzZyWHFEc0hvMmFaeVhuWGtYDQovd0FtSDVxLzR5Ti95ZE9ialcvNHZqL0hSdzhKL2VTZWk1cDNNZGlyc1ZRK29hZlphalp5MmQ3RXMxdE1LU1J0MytSRzRJN0VaUEhrDQpsQTNFMFdFNENRbzhtRFNma3pvUm41SmUzS1FrMTlMNENRUEFOeC9obXpIYTg2NUMzV3k3SmdUek5NejBYUTlOMGF4V3kwK0lSUWcxDQpZOVdaajFabTduTmRtelN5UzRwRjJHSERISEhoaUVkbFRhN0ZYWXE3RlhZcTdGWFlxN0ZYWXE3RlhZcTdGWFlxN0ZYWXE3RlduZEkwDQpaM0lWRUJabVBRQWJrNFFMVjR2ZWVidlBYblhXcDdQeXk4bHBZUTFLZWszb25oV2dlV1haZ1c3S0Q5OUs1MDBOSnA5TkFTeTd5UHgrDQpRWlZTbW5uUDh3ZkpWK2JMWFExOUc2Rm9rdUg1MTdCMG1ISmpROVFmdzY0VG85TnFZOFdQMCs3OVRBbE9iYnlWNXk4NFRKZmViYnhyDQpLd3J6aTA2S2dhaDhFM1ZOdTdjbXpHbHJjR25IRGhIRkx2OEF4L1lpcmVpYUo1ZjBqUkxUNnJwbHN0dkdhRnlOM2NqdTdIZGptbXo2DQppZVUzTTJrQ2tYZC83eVRmOFkyL1Vjcmh6Q2xnZjVKZjhvcGQvd0RNZEoveVppemE5dGYzby9xL3BMVHB6NldNK2Y4QVdkWDh3K1liDQpuUzdPT05iYlEvVW1xektyRXdnZW81TGtWMzJBR1p1Z3d3dzR4T1hPZjZYSHp6TXBVT2owUDh2L0FEUGNlWXZMNHZMbEZTNmhsYTNuDQpLYkt6S0Zia0IycXJqNmMxR3Ywd3c1T0VjdWJrNE12SEcyTGVXcjZIUy96UTF5enZUNkw2ZzdmVjJZMEJabUVpTHY4QXpLMjMzWm5hDQptQm5wWUdPL0M0dUtZam1rRDFlbTVwSFlPeFYyS3V4VjJLdXhWMkt1eFYyS3V4VjJLdXhWMkt1eFYyS3V4VjJLdXhWMkt1eFYyS3V4DQpWRDZoYS9XN0M1dE9YRDZ4RThYUHc1cVZyK09UeHo0WkE5eFY0citYWG1pMjhtYXBxZW1hN0M4SHFzcXZJcWxpa2tQSVVLamNxd2JZDQpqK09kUDJqcFRxWVJuak4vdFVsM24vekhGNTMxelROTjBLRjVoQ1hTS1JsS2wzbUs4alRxRVVKV3A5OGRCcHpwY2NwWkRWL29hNUczDQp0MXRENk50RkR5TCtraXB6UFU4UlNwemw1R3lTMkttUlY1YjUxODk2L2VhNjNsbnl3cDlWV01NOHFBR1NTUUQ0MFV0c2lwdnliOGFaDQp2ZEhvY2NjZmk1WEZ5NVNUd3hTQ3l1ZlBYNWV0RUxtQURUTGlRdThCS1BHNzBBYjQxcVVmaXUzNmptWE9PRFYzUjlRYWVLZUxueVpqDQpxZjVlNkQ1dWFIekJaWFVsbjlmaldXVUtvY01TT3RDUnhiczJhN0hyOG1udkhJWHd0c3NFY25xQnEyWGVYdEFzTkIwdVBUcklIMGtKDQpaM2VoWjNicXpVcHZtdTFHZVdXWEZKeU1lTVFGQkxQT1hrZlQvTWR0eU5JTlNpV2x2ZGdiN1ZvaitLMSs3dGwrazFzc0o3NDl6VHFODQpNTWc4MkgybjVoZVkvTGF2b210MkxYdW9RRlV0Wk9mRXVoTkJWdUxjL3dESkkzUGZmTmhQUVk4M3JnYWllYmdqV3p4ZWlZdVRJdksvDQo1ang2cnFuNkoxR3hmVGI5cStramtrTVFPWEU4Z2pLMU9tMitZZXA3UDRJOGNUeFJiOVByeE9YQkljTW1aNXJuWU94VjJLdXhWMkt1DQp4VjJLdXhWMkt1eFYyS3V4VjJLdXhWMkt1eFYyS3V4VjJLdXhWMktwTnJ2azN5M3JyQ1RVN0pKcGxGQk9wYU9TbmdXUXFTUFk1azRODQpabHhmU2FDQ0c5QzhvZVhOQ0xOcGxra01yaWp6RXM4aEhoemNzUVBZYlk1OVhseS9XYlVBQk9NeGt1eFY0ckJmZjRPL015K3VOVGljDQoyMXc4eEVnRlQ2VncvTlpGL21wMGFudm5UU2grWTBvRWVZcjVod09QdzhtNlAvTXJ6N29XczZSSHBlbE0xMDBrcXlTVEZIUUtGclJRDQpIQ3NXSlBobFBaMmh5WTU4VTl0bU9wMUVaQ2d6L3dBajZaYzZaNVUwMnl1UVZuampMU0tlcW1Sakp4UCtyeXBtcDF1UVR5eWtPVG1ZDQpJbU1BQ25tWXJhN0ZYbVBuZEwvUWZQRnA1b05zMTVZQkFyZUNNRU1aV3UvRTBQSmE5ODNXak1jdUE0cnFUcDlaeFlzd3lWY1VQWVhsDQo1NXo4OTJHcTJ0azF0WTZkdzlXWnQ5bzJMMFpodHlKYWdBK2VUbkFhZkFZRTNLVFZDWjFHY1NBcU1YcTJhSjNyc1ZkaXJzVmRpcnNWDQpkaXJzVmRpcnNWZGlyc1ZkaXJzVmRpcnNWZGlyc1ZkaXJzVmRpcnNWZGlyc1ZkaXFXNjM1YjBYWElWaTFPMVc0Q1Y5TnpWWFd2WGk2DQprTVB2eTdEcUo0amNUVENlT011YVhhTitYdmxUU2JsYnEycytkeWhySExNelNGVDRxRytFSDNwWExzMnZ5NUJST3pYRFR3aWJBWkhtDQpHM3V4VjJLdUlCQkJGUWVveFZwVlZWQ3FBcWpvQnNNYldtOFZkaXJzVmRpcnNWZGlyc1ZkaXJzVmRpcnNWZGlyc1ZkaXJzVmRpcnNWDQpkaXJzVmRpcnNWZGlyc1ZkaXJzVmRpcnNWZGlyc1ZkaXJzVmRpcnNWZGlyc1ZkaXJzVmRpcnNWZGlyc1ZkaXJzVmRpcnNWZGlyc1ZkDQppcnNWZGlyc1ZkaXJzVmRpcnNWZGlyc1ZkaXJzVmRpcnNWZGlyc1ZkaXJzVmRpcnNWZGlyc1ZkaXJzVmRpcnNWZGlyc1ZkaXJzVmRpDQpyc1ZkaXJzVmRpcnNWZGlyc1ZkaXJzVmRpcnNWZGlyc1ZkaXJzVmRpcnNWZGlyc1ZkaXJzVmRpcnNWZGlyc1ZkaXJzVmRpcnNWZGlyDQpzVmRpcnNWZGlyc1ZkaXJzVmRpcnNWZGlyc1ZkaXJzVmRpcnNWZGlyc1ZkaXJzVmRpcnNWZGlyc1ZkaXJzVmRpcnNWZGlyc1ZkaXJzDQpWZGlyc1ZkaXJzVmRpcnNWZGlyc1ZkaXJzVmRpcnNWZGlyc1ZkaXJzVmRpcnNWZGlyc1ZkaXJzVmRpcnNWZGlyc1ZkaXJzVmRpcnNWDQpkaXJzVmRpcnNWZGlyc1ZkaXJzVmRpcnNWZGlyc1ZkaXJzVmRpcnNWZGlyc1ZkaXJzVmRpcnNWZGlyc1ZkaXJzVmRpcnNWZGlyc1ZkDQppcnNWZGlyc1ZmL1o8L2ltYWdlPg0KICAgICAgICAgICAgICAgPC9yZGY6bGk+DQogICAgICAgICAgICA8L3JkZjpBbHQ+DQogICAgICAgICA8L3htcDpUaHVtYm5haWxzPjwvcmRmOkRlc2NyaXB0aW9uPjxyZGY6RGVzY3JpcHRpb24geG1sbnM6eG1wTU09Imh0dHA6Ly9ucy5hZG9iZS5jb20veGFwLzEuMC9tbS8iPjx4bXBNTTpSZW5kaXRpb25DbGFzcz5wcm9vZjpwZGY8L3htcE1NOlJlbmRpdGlvbkNsYXNzPjx4bXBNTTpPcmlnaW5hbERvY3VtZW50SUQ+dXVpZDo2NUU2MzkwNjg2Q0YxMURCQTZFMkQ4ODdDRUFDQjQwNzwveG1wTU06T3JpZ2luYWxEb2N1bWVudElEPjx4bXBNTTpEb2N1bWVudElEPnhtcC5kaWQ6MGJkNWJkNzUtOGFmOC00ZjQzLWEzY2QtOGFiMTJkZWQzMTI5PC94bXBNTTpEb2N1bWVudElEPjx4bXBNTTpJbnN0YW5jZUlEPnhtcC5paWQ6MGJkNWJkNzUtOGFmOC00ZjQzLWEzY2QtOGFiMTJkZWQzMTI5PC94bXBNTTpJbnN0YW5jZUlEPjx4bXBNTTpEZXJpdmVkRnJvbSByZGY6cGFyc2VUeXBlPSJSZXNvdXJjZSI+DQogICAgICAgICAgICA8aW5zdGFuY2VJRCB4bWxucz0iaHR0cDovL25zLmFkb2JlLmNvbS94YXAvMS4wL3NUeXBlL1Jlc291cmNlUmVmIyI+eG1wLmlpZDpiZTI1ZDQ1MC1mYjJhLWQ5NGEtOTU5NC1kZWRhMDkyNjgzMWQ8L2luc3RhbmNlSUQ+DQogICAgICAgICAgICA8ZG9jdW1lbnRJRCB4bWxucz0iaHR0cDovL25zLmFkb2JlLmNvbS94YXAvMS4wL3NUeXBlL1Jlc291cmNlUmVmIyI+eG1wLmRpZDpiZTI1ZDQ1MC1mYjJhLWQ5NGEtOTU5NC1kZWRhMDkyNjgzMWQ8L2RvY3VtZW50SUQ+DQogICAgICAgICAgICA8b3JpZ2luYWxEb2N1bWVudElEIHhtbG5zPSJodHRwOi8vbnMuYWRvYmUuY29tL3hhcC8xLjAvc1R5cGUvUmVzb3VyY2VSZWYjIj51dWlkOjY1RTYzOTA2ODZDRjExREJBNkUyRDg4N0NFQUNCNDA3PC9vcmlnaW5hbERvY3VtZW50SUQ+DQogICAgICAgICAgICA8cmVuZGl0aW9uQ2xhc3MgeG1sbnM9Imh0dHA6Ly9ucy5hZG9iZS5jb20veGFwLzEuMC9zVHlwZS9SZXNvdXJjZVJlZiMiPnByb29mOnBkZjwvcmVuZGl0aW9uQ2xhc3M+DQogICAgICAgICA8L3htcE1NOkRlcml2ZWRGcm9tPjx4bXBNTTpIaXN0b3J5Pg0KICAgICAgICAgICAgPHJkZjpTZXE+DQogICAgICAgICAgICAgICA8cmRmOmxpIHJkZjpwYXJzZVR5cGU9IlJlc291cmNlIj4NCiAgICAgICAgICAgICAgICAgIDxhY3Rpb24geG1sbnM9Imh0dHA6Ly9ucy5hZG9iZS5jb20veGFwLzEuMC9zVHlwZS9SZXNvdXJjZUV2ZW50IyI+c2F2ZWQ8L2FjdGlvbj4NCiAgICAgICAgICAgICAgICAgIDxpbnN0YW5jZUlEIHhtbG5zPSJodHRwOi8vbnMuYWRvYmUuY29tL3hhcC8xLjAvc1R5cGUvUmVzb3VyY2VFdmVudCMiPnhtcC5paWQ6MmE5MGI1OTMtYzBhOS03MzQ2LTk3MTktNTk4MDhmY2MyOGU2PC9pbnN0YW5jZUlEPg0KICAgICAgICAgICAgICAgICAgPHdoZW4geG1sbnM9Imh0dHA6Ly9ucy5hZG9iZS5jb20veGFwLzEuMC9zVHlwZS9SZXNvdXJjZUV2ZW50IyI+MjAxOC0wMi0yNlQxNjo0NDoyNCswMzowMDwvd2hlbj4NCiAgICAgICAgICAgICAgICAgIDxzb2Z0d2FyZUFnZW50IHhtbG5zPSJodHRwOi8vbnMuYWRvYmUuY29tL3hhcC8xLjAvc1R5cGUvUmVzb3VyY2VFdmVudCMiPkFkb2JlIElsbHVzdHJhdG9yIENDIDIyLjAgKFdpbmRvd3MpPC9zb2Z0d2FyZUFnZW50Pg0KICAgICAgICAgICAgICAgICAgPGNoYW5nZWQgeG1sbnM9Imh0dHA6Ly9ucy5hZG9iZS5jb20veGFwLzEuMC9zVHlwZS9SZXNvdXJjZUV2ZW50IyI+LzwvY2hhbmdlZD4NCiAgICAgICAgICAgICAgIDwvcmRmOmxpPg0KICAgICAgICAgICAgICAgPHJkZjpsaSByZGY6cGFyc2VUeXBlPSJSZXNvdXJjZSI+DQogICAgICAgICAgICAgICAgICA8YWN0aW9uIHhtbG5zPSJodHRwOi8vbnMuYWRvYmUuY29tL3hhcC8xLjAvc1R5cGUvUmVzb3VyY2VFdmVudCMiPmNvbnZlcnRlZDwvYWN0aW9uPg0KICAgICAgICAgICAgICAgICAgPHBhcmFtZXRlcnMgeG1sbnM9Imh0dHA6Ly9ucy5hZG9iZS5jb20veGFwLzEuMC9zVHlwZS9SZXNvdXJjZUV2ZW50IyI+ZnJvbSBhcHBsaWNhdGlvbi9wb3N0c2NyaXB0IHRvIGFwcGxpY2F0aW9uL3ZuZC5hZG9iZS5pbGx1c3RyYXRvcjwvcGFyYW1ldGVycz4NCiAgICAgICAgICAgICAgIDwvcmRmOmxpPg0KICAgICAgICAgICAgICAgPHJkZjpsaSByZGY6cGFyc2VUeXBlPSJSZXNvdXJjZSI+DQogICAgICAgICAgICAgICAgICA8YWN0aW9uIHhtbG5zPSJodHRwOi8vbnMuYWRvYmUuY29tL3hhcC8xLjAvc1R5cGUvUmVzb3VyY2VFdmVudCMiPnNhdmVkPC9hY3Rpb24+DQogICAgICAgICAgICAgICAgICA8aW5zdGFuY2VJRCB4bWxucz0iaHR0cDovL25zLmFkb2JlLmNvbS94YXAvMS4wL3NUeXBlL1Jlc291cmNlRXZlbnQjIj54bXAuaWlkOjI0NDAzY2NjLTI5MTctNWQ0Ny1hMmE2LTI1OWJlZDlkZTgzMjwvaW5zdGFuY2VJRD4NCiAgICAgICAgICAgICAgICAgIDx3aGVuIHhtbG5zPSJodHRwOi8vbnMuYWRvYmUuY29tL3hhcC8xLjAvc1R5cGUvUmVzb3VyY2VFdmVudCMiPjIwMTgtMDUtMDlUMDk6NTA6MjQrMDM6MDA8L3doZW4+DQogICAgICAgICAgICAgICAgICA8c29mdHdhcmVBZ2VudCB4bWxucz0iaHR0cDovL25zLmFkb2JlLmNvbS94YXAvMS4wL3NUeXBlL1Jlc291cmNlRXZlbnQjIj5BZG9iZSBJbGx1c3RyYXRvciBDQyAyMi4wIChXaW5kb3dzKTwvc29mdHdhcmVBZ2VudD4NCiAgICAgICAgICAgICAgICAgIDxjaGFuZ2VkIHhtbG5zPSJodHRwOi8vbnMuYWRvYmUuY29tL3hhcC8xLjAvc1R5cGUvUmVzb3VyY2VFdmVudCMiPi88L2NoYW5nZWQ+DQogICAgICAgICAgICAgICA8L3JkZjpsaT4NCiAgICAgICAgICAgICAgIDxyZGY6bGkgcmRmOnBhcnNlVHlwZT0iUmVzb3VyY2UiPg0KICAgICAgICAgICAgICAgICAgPGFjdGlvbiB4bWxucz0iaHR0cDovL25zLmFkb2JlLmNvbS94YXAvMS4wL3NUeXBlL1Jlc291cmNlRXZlbnQjIj5zYXZlZDwvYWN0aW9uPg0KICAgICAgICAgICAgICAgICAgPGluc3RhbmNlSUQgeG1sbnM9Imh0dHA6Ly9ucy5hZG9iZS5jb20veGFwLzEuMC9zVHlwZS9SZXNvdXJjZUV2ZW50IyI+eG1wLmlpZDowYmQ1YmQ3NS04YWY4LTRmNDMtYTNjZC04YWIxMmRlZDMxMjk8L2luc3RhbmNlSUQ+DQogICAgICAgICAgICAgICAgICA8d2hlbiB4bWxucz0iaHR0cDovL25zLmFkb2JlLmNvbS94YXAvMS4wL3NUeXBlL1Jlc291cmNlRXZlbnQjIj4yMDE4LTA1LTA5VDEwOjAyOjMyKzAzOjAwPC93aGVuPg0KICAgICAgICAgICAgICAgICAgPHNvZnR3YXJlQWdlbnQgeG1sbnM9Imh0dHA6Ly9ucy5hZG9iZS5jb20veGFwLzEuMC9zVHlwZS9SZXNvdXJjZUV2ZW50IyI+QWRvYmUgSWxsdXN0cmF0b3IgQ0MgMjIuMCAoV2luZG93cyk8L3NvZnR3YXJlQWdlbnQ+DQogICAgICAgICAgICAgICAgICA8Y2hhbmdlZCB4bWxucz0iaHR0cDovL25zLmFkb2JlLmNvbS94YXAvMS4wL3NUeXBlL1Jlc291cmNlRXZlbnQjIj4vPC9jaGFuZ2VkPg0KICAgICAgICAgICAgICAgPC9yZGY6bGk+DQogICAgICAgICAgICA8L3JkZjpTZXE+DQogICAgICAgICA8L3htcE1NOkhpc3Rvcnk+PC9yZGY6RGVzY3JpcHRpb24+PHJkZjpEZXNjcmlwdGlvbiB4bWxuczppbGx1c3RyYXRvcj0iaHR0cDovL25zLmFkb2JlLmNvbS9pbGx1c3RyYXRvci8xLjAvIj48aWxsdXN0cmF0b3I6U3RhcnR1cFByb2ZpbGU+V2ViPC9pbGx1c3RyYXRvcjpTdGFydHVwUHJvZmlsZT48L3JkZjpEZXNjcmlwdGlvbj48cmRmOkRlc2NyaXB0aW9uIHhtbG5zOnBkZj0iaHR0cDovL25zLmFkb2JlLmNvbS9wZGYvMS4zLyI+PHBkZjpQcm9kdWNlcj5BZG9iZSBQREYgbGlicmFyeSAxNS4wMDwvcGRmOlByb2R1Y2VyPjwvcmRmOkRlc2NyaXB0aW9uPjxyZGY6RGVzY3JpcHRpb24geG1sbnM6TWljcm9zb2Z0UGhvdG89Imh0dHA6Ly9ucy5taWNyb3NvZnQuY29tL3Bob3RvLzEuMCI+PE1pY3Jvc29mdFBob3RvOkxhc3RLZXl3b3JkWE1QPjxyZGY6QmFnPjxyZGY6bGk+bG9nbzwvcmRmOmxpPjxyZGY6bGk+Y29tcHV0ZXI8L3JkZjpsaT48cmRmOmxpPmRlc2lnbjwvcmRmOmxpPjxyZGY6bGk+YWJzdHJhY3Q8L3JkZjpsaT48cmRmOmxpPmljb248L3JkZjpsaT48cmRmOmxpPnRleHR1cmU8L3JkZjpsaT48cmRmOmxpPmludGVybmV0PC9yZGY6bGk+PHJkZjpsaT50ZWNobm9sb2d5PC9yZGY6bGk+PHJkZjpsaT5tb2Rlcm48L3JkZjpsaT48cmRmOmxpPnByb2Nlc3NvcjwvcmRmOmxpPjxyZGY6bGk+Ym9hcmQ8L3JkZjpsaT48cmRmOmxpPmNoaXA8L3JkZjpsaT48cmRmOmxpPmNpcmN1aXQ8L3JkZjpsaT48cmRmOmxpPmNwdTwvcmRmOmxpPjxyZGY6bGk+ZGlnaXRhbDwvcmRmOmxpPjxyZGY6bGk+c3ltYm9sPC9yZGY6bGk+PHJkZjpsaT5lbGVjdHJvbmljPC9yZGY6bGk+PHJkZjpsaT5oYXJkd2FyZTwvcmRmOmxpPjxyZGY6bGk+bWljcm9jaGlwPC9yZGY6bGk+PHJkZjpsaT5zaWduPC9yZGY6bGk+PHJkZjpsaT5zeXN0ZW08L3JkZjpsaT48cmRmOmxpPnRlY2g8L3JkZjpsaT48cmRmOmxpPmNvbXBvbmVudDwvcmRmOmxpPjxyZGY6bGk+ZGV2aWNlPC9yZGY6bGk+PHJkZjpsaT5lbGVtZW50PC9yZGY6bGk+PHJkZjpsaT5taWNyb3Byb2Nlc3NvcjwvcmRmOmxpPjxyZGY6bGk+bW90aGVyYm9hcmQ8L3JkZjpsaT48cmRmOmxpPmVsZWN0cmljYWw8L3JkZjpsaT48cmRmOmxpPmNoaXBzZXQ8L3JkZjpsaT48cmRmOmxpPmNvcmU8L3JkZjpsaT48cmRmOmxpPmludGVncmF0ZWQ8L3JkZjpsaT48cmRmOmxpPmxvZ290eXBlPC9yZGY6bGk+PHJkZjpsaT5taWNybzwvcmRmOmxpPjxyZGY6bGk+bWljcm9jaXJjdWl0PC9yZGY6bGk+PHJkZjpsaT5tb2JpbGU8L3JkZjpsaT48cmRmOmxpPmVsZWN0cmljaXR5PC9yZGY6bGk+PHJkZjpsaT5lbmdpbmVlcmluZzwvcmRmOmxpPjxyZGY6bGk+aW5kdXN0cnk8L3JkZjpsaT48cmRmOmxpPnNjaWVuY2U8L3JkZjpsaT48cmRmOmxpPmlkZWE8L3JkZjpsaT48cmRmOmxpPmNvbW11bmljYXRpb248L3JkZjpsaT48cmRmOmxpPmNvbXB1dGluZzwvcmRmOmxpPjxyZGY6bGk+Y29uY2VwdDwvcmRmOmxpPjxyZGY6bGk+Y29uY2VwdHVhbDwvcmRmOmxpPjxyZGY6bGk+Y29ubmVjdDwvcmRmOmxpPjxyZGY6bGk+Y292ZXI8L3JkZjpsaT48cmRmOmxpPmludGVybmFsPC9yZGY6bGk+PHJkZjpsaT5tZW1vcnk8L3JkZjpsaT48cmRmOmxpPnBpY3RvZ3JhbTwvcmRmOmxpPjxyZGY6bGk+cGM8L3JkZjpsaT48L3JkZjpCYWc+PC9NaWNyb3NvZnRQaG90bzpMYXN0S2V5d29yZFhNUD48L3JkZjpEZXNjcmlwdGlvbj48cmRmOkRlc2NyaXB0aW9uIHhtbG5zOmRjPSJodHRwOi8vcHVybC5vcmcvZGMvZWxlbWVudHMvMS4xLyIgLz48cmRmOkRlc2NyaXB0aW9uIHhtbG5zOnBob3Rvc2hvcD0iaHR0cDovL25zLmFkb2JlLmNvbS9waG90b3Nob3AvMS4wLyI+PHBob3Rvc2hvcDpIZWFkbGluZT48cmRmOkFsdD48cmRmOmxpPk1pY3JvY2hpcCBsaW5lIGljb24uIENQVSwgQ2VudHJhbCBwcm9jZXNzaW5nIHVuaXQsIGNvbXB1dGVyIHByb2Nlc3NvciwgY2hpcCBzeW1ib2wgaW4gY2lyY2xlLiBBYnN0cmFjdCB0ZWNobm9sb2d5IGxvZ28uIFNpbXBsZSByb3VuZCBpY29uIGlzb2xhdGVkIG9uIGJsYWNrIGJhY2tncm91bmQuIENyZWF0aXZlIG1vZGVybiB2ZWN0b3IgbG9nbzwvcmRmOmxpPjwvcmRmOkFsdD48L3Bob3Rvc2hvcDpIZWFkbGluZT48L3JkZjpEZXNjcmlwdGlvbj48L3JkZjpSREY+DQo8L3g6eG1wbWV0YT4NCiAgICAgICAgICAgICAgICAgICAgICAgICAgICAgICAgICAgICAgICAgICAgICAgICAgICAgICAgICAgICAgICAgICAgICAgICAgICAgICAgICAgICAgICAgICAgICAgICAgICANCiAgICAgICAgICAgICAgICAgICAgICAgICAgICAgICAgICAgICAgICAgICAgICAgICAgICAgICAgICAgICAgICAgICAgICAgICAgICAgICAgICAgICAgICAgICAgICAgICAgICANCiAgICAgICAgICAgICAgICAgICAgICAgICAgICAgICAgICAgICAgICAgICAgICAgICAgICAgICAgICAgICAgICAgICAgICAgICAgICAgICAgICAgICAgICAgICAgICAgICAgICANCiAgICAgICAgICAgICAgICAgICAgICAgICAgICAgICAgICAgICAgICAgICAgICAgICAgICAgICAgICAgICAgICAgICAgICAgICAgICAgICAgICAgICAgICAgICAgICAgICAgICANCiAgICAgICAgICAgICAgICAgICAgICAgICAgICAgICAgICAgICAgICAgICAgICAgICAgICAgICAgICAgICAgICAgICAgICAgICAgICAgICAgICAgICAgICAgICAgICAgICAgICANCiAgICAgICAgICAgICAgICAgICAgICAgICAgICAgICAgICAgICAgICAgICAgICAgICAgICAgICAgICAgICAgICAgICAgICAgICAgICAgICAgICAgICAgICAgICAgICAgICAgICANCiAgICAgICAgICAgICAgICAgICAgICAgICAgICAgICAgICAgICAgICAgICAgICAgICAgICAgICAgICAgICAgICAgICAgICAgICAgICAgICAgICAgICAgICAgICAgICAgICAgICANCiAgICAgICAgICAgICAgICAgICAgICAgICAgICAgICAgICAgICAgICAgICAgICAgICAgICAgICAgICAgICAgICAgICAgICAgICAgICAgICAgICAgICAgICAgICAgICAgICAgICANCiAgICAgICAgICAgICAgICAgICAgICAgICAgICAgICAgICAgICAgICAgICAgICAgICAgICAgICAgICAgICAgICAgICAgICAgICAgICAgICAgICAgICAgICAgICAgICAgICAgICANCiAgICAgICAgICAgICAgICAgICAgICAgICAgICAgICAgICAgICAgICAgICAgICAgICAgICAgICAgICAgICAgICAgICAgICAgICAgICAgICAgICAgICAgICAgICAgICAgICAgICANCiAgICAgICAgICAgICAgICAgICAgICAgICAgICAgICAgICAgICAgICAgICAgICAgICAgICAgICAgICAgICAgICAgICAgICAgICAgICAgICAgICAgICAgICAgICAgICAgICAgICANCiAgICAgICAgICAgICAgICAgICAgICAgICAgICAgICAgICAgICAgICAgICAgICAgICAgICAgICAgICAgICAgICAgICAgICAgICAgICAgICAgICAgICAgICAgICAgICAgICAgICANCiAgICAgICAgICAgICAgICAgICAgICAgICAgICAgICAgICAgICAgICAgICAgICAgICAgICAgICAgICAgICAgICAgICAgICAgICAgICAgICAgICAgICAgICAgICAgICAgICAgICANCiAgICAgICAgICAgICAgICAgICAgICAgICAgICAgICAgICAgICAgICAgICAgICAgICAgICAgICAgICAgICAgICAgICAgICAgICAgICAgICAgICAgICAgICAgICAgICAgICAgICANCiAgICAgICAgICAgICAgICAgICAgICAgICAgICAgICAgICAgICAgICAgICAgICAgICAgICAgICAgICAgICAgICAgICAgICAgICAgICAgICAgICAgICAgICAgICAgICAgICAgICANCiAgICAgICAgICAgICAgICAgICAgICAgICAgICAgICAgICAgICAgICAgICAgICAgICAgICAgICAgICAgICAgICAgICAgICAgICAgICAgICAgICAgICAgICAgICAgICAgICAgICANCiAgICAgICAgICAgICAgICAgICAgICAgICAgICAgICAgICAgICAgICAgICAgICAgICAgICAgICAgICAgICAgICAgICAgICAgICAgICAgICAgICAgICAgICAgICAgICAgICAgICANCiAgICAgICAgICAgICAgICAgICAgICAgICAgICAgICAgICAgICAgICAgICAgICAgICAgICAgICAgICAgICAgICAgICAgICAgICAgICAgICAgICAgICAgICAgICAgICAgICAgICANCiAgICAgICAgICAgICAgICAgICAgICAgICAgICAgICAgICAgICAgICAgICAgICAgICAgICAgICAgICAgICAgICAgICAgICAgICAgICAgICAgICAgICAgICAgICAgICAgICAgICANCiAgICAgICAgICAgICAgICAgICAgICAgICAgICAgICAgICAgICAgICAgICAgICAgICAgICAgICAgICAgICAgICAgICAgICAgICAgICAgICAgICAgICAgICAgICAgICAgICAgICANCiAgICAgICAgICAgICAgICAgICAgICAgICAgIA0KPD94cGFja2V0IGVuZD0idyI/Pv/bAEMACgcHCAcGCggICAsKCgsOGBAODQ0OHRUWERgjHyUkIh8iISYrNy8mKTQpISIwQTE0OTs+Pj4lLkRJQzxINz0+O//bAEMBCgsLDg0OHBAQHDsoIig7Ozs7Ozs7Ozs7Ozs7Ozs7Ozs7Ozs7Ozs7Ozs7Ozs7Ozs7Ozs7Ozs7Ozs7Ozs7Ozs7O//CABEIBRQFFAMBIgACEQEDEQH/xAAaAAEAAwEBAQAAAAAAAAAAAAAAAQIGBQQD/8QAGQEBAAMBAQAAAAAAAAAAAAAAAAEDBAIF/9oADAMBAAIQAxAAAAHZgAAAAAAAAAAAAAAAAAAAAAAAAAAAAAAAAAAAAAAAAAAAAAAAAAAAAAAAAAAAAAAAAAAAAAAAAAAAAAAAAAAAAAAAAAAIkAAAAAAAAAAAAAAAAAAAAAAAAAAAAAAAAAAAAAAAAAAAAAIkAAAAAAAAAAAAAAAAAAAAAAAAAAAAAAAAAAQqfL61+hIAAAAAAAAAAAAAAAAAAAAAAAAAAAAAAAAAAAAAAAAAAAEKny+1PoSAAAAAAAAAAAAAAAAAAAAAAAAAAAAAAAAAioRJJJIAAAAAAAAAAAAAAAAAFUC1YLxWS6lwAAAAAAAAAAAAAAAAAAAAAipMAlJIAAAAAAAAAAAAAAAAAFYC1YLqD6K2AAAAAAAAAAETQJgJgWpckAAAAAAAAAAAAAAAACqBZIiRCRSZqXUuAAAAAAAAAAAAAAAAAAAImhMTAmai1LkgAAAAAAAAAAAAAAAAVgLJFbCIsKSgurYAAAAAAAARNACLxUWr9CJAAAAAAAAAAAAAAAABVAskis2KLiJpcRIotUuiQAAAAAAAAAAAAAAAABE0BJW9YJLkSAAAAAAAAAAAAAAAACkwTIKzYouImlxWwpKC4AAAAAAETQRMkJESkSAAAAAAAAAAAAAAAAAFU1LokratgCtqiYSREySAAAAAAAAAAAAAAAABE0FbAkQWEgAAAAAAAAAAAAAAAABSUF62gTWwBW1YLQETFiQAAAAAAUiwRFiIsJkAAAAAAAAAAAAAAAAAAIpepaYkrF4FZgWSKhMgAAAAAAAAAAAAAAAAiRQEq2FZsJAAAAAAAAAAAAAAAAAACsTBdElVoFZgWSKTIkAAAAAEKCLBasFq2kSAAAAAAAAAAAAAAAAAAAClxS1RdEkQkmqRIAAAAAAAAAAAAAAAAIUBYK2FbSJAAAAAAAAAAAAAAAAAAACK3graouiSsxYUWEgAAAAABWJgkqTFpJAAAAAAAAAAAAAAAAAAAAAApcUtWCyLCQAAAAAAAAAAAAAAAAApFoLVVLVvJIAAAAAAAAAAAAAAAAAAAAAIreCtqhMWEgAAAAAAA+f0FImxFgAAAAAAAAAAAAAAAAAAAAAAAVsIkAAAAAAAAAAAAAAAAAAI+f1gqi4kAAAAAAAAAAAAAAAAAAAAAAAFbCJAAAAAAAAAAAAAAAAAAAAAAAAAAAAAAAAAAAAAAAAAAAAAAAAAAAAAAAAAAAAAAAAAAAAAAAAAAAAAAAAAAAAAAAAAAAAAAAAAAAAAAAAAAAAAAAAAAAAAAAAAAAAAAAAAAAAAAAAAAAAAAAAAAAAAAAAAAAAAAAAAAAAAAAAAAAAAAAAAAAAAAAAAAAAAAAAAAAAAAAAAAAAAAAAAAAAAAAAAAAAAAAAAAAAAAAAAAAAAAAAAAAAAAAAAAAAAAAAAAAAAAAAAAAAAAAAAAAAAAAAAAAAAAAAAAAAAAAAAAAAAAAAAAAAAAAAAAAAAAAAAAAAAAAAAAAAAAAAAAAAAAAAAAAAAAAAAAAAAAAAAAAAAAAAAAAAAAAAAAAAAAAAAAAAAAAAAAAAAAAAAAAAAAAAAAAAAAAAAAAAAAAAAAAAAAAAAAAAAAAAAAAAAAAAAAAAAAAAAAAAAAAAAAAAAAAAAAAAAAAAAAAAAAAAAAAAAAAAAAAAAAAAAAAAAAAAAAAAAAAAAAAAAAAAAAAAfMvyOR4N+z3+b4tej0e7ko52PtwWixZe2MecAAAAAAAAAAAAAAAAAAAAAAAAAAAAAAAAAAAAAAAAAAAAAAAAAAAAAAAAAAAAAAAAAAAAAAAAAAABlu7jduoevdr8/v032wY8f4t7ze5yiY26tX0sbsvLwBnqAAAAAAAAAAAAAAAAAAAAAAAAAAAAAAAAAAAAAAAAAAAAAAAAAAAAAAAAAAAAAAAAAAAAAAAAAAA4We7nD9X0GuyO4rr+w87GBmuPo856u5t8Rsqq/WPPygD5H1cf5Xd915fVVwEAAAAAAAAAAAAAAAAAAAAAAAAAAAAAAAAAAAAAAAAAAAAAAAAAAAAAAAAAAAAAAAAAAAAAAOJnNri/S2xrMn6LO9s8nr8rARx+p8HKl629t8xrMWYMecDy5L28309a/u9Pc8bSZ4bhS/k4wAAAAAAAAAAAAAAAAAAAAAAAAAAAAAAAAAAAAAAAAAAAAAAAAAAAAAAAAAAAAAAAAAAAAAGb0lbO8I6vK9be9XlS+3xSLKo1nQy2o8rFIprAxPx6HP9jdtvtmfV5+Xl+es+jp13r+f08fGEQAAAAAAAAAAAAAAAAAAAAAAAAAAAAAAAAAAAAAAAAAAAAAAAAAAAAAAAAAAAAAAAAAAAAAA53RdTmPLsWi7I9DvI58GX2/Pmcnos76dl+zHk4gPFk9z5tNuMn6/L0dDv8Ao6mGgMdIAAAAgcrw8nbZ7vj8Grv39jMK+dy4fc8+sOIAAAAAAAAAAAAAAAAAAAAAAAAAAAAAAAAAAAAAAAAAAAAAAAAAAAAAAAAAAAAR5stfZqb4mdN28ZXTZKPoKuAMLFqe1v3g8XAABjvL6vL7Gzaff4ffyMYQAAAAc3pZq7rlS6/oW/X29B51Od5G5yunvw67Id7p2x59YAAAAAAAAAAAAAAAAAAAAAAAAAAAAAAAAAAAAAAAAAAAAAAAAAAAAAAAAAACK/OWU8j7+z6Mtn8cWbF9fkfXXftx4+ADDVtX2t+7Hi4AAMd5fV5fY17T7/D7+RkCAAAADL6LMau/H3+B6tXevfP6eXSzvbyerr5dnjaPR11R5tYAAAAAAAAAAAAAAAAAAAAAABEgAAAAAAAAAAAAAAAAAAAAAAAAAAAAAAAAACswfGfpcwX06PL9n0Nl5ssz0vR59DdZ2x5GEDDVtX2t27Hi4QAMd5fV5vY17P7/AA+/kZAgAAOb06HG5Pn22Wq6l/XLafP8xX1eCelqvVKuu+Po86sKYAAAAAAAAAAAAAAAAAAAAAAVmp8vtX6AAAAAAAACqBMQXqFppYkAAAAAAAAAAAAAAAAAAAABFSYixExcpn9H8be8Tav39Xb2+zLyMIccgYat6e1t3Y8XEABjvN6fN7GrZ/f4ffyMoQAfD6ZG7r7+B9fRt+Xs6/Vy8eP2mOtWyHO+HVmyfB74jiLKzC6lwAAAAAAAAAAAAAAAAAAAAAipMRYiYsSAAAAAABVAskQkhIotUtNLEgAAAAAAHgmfTw+N8/S9D1/L4tN/t6efV17v6YjW+fh9Qz0gAAAAAIULQAC3z+hPx+3xlifv8Pv7G/ajxsAAGHpentbd2PFxAAY7zery+xp2f3+H38jMEAOLwOlzfTu9mp8PSx1hRyAqgmUiEkJFJmpdS4AAAAAAAAAAAAAAAAAAAhQlMBMC1LkgAAAAAVmoskis2KLitqyTEii1S6tgAAAAAD44rscP0/RHcvu5Xq1s4cWG+O9zN93I9PmnTfu78Tt+N5YccAAAAIn5kzElbRBJciQfH7fGWJ9Hn9HsbtoPGwgAYetq+zs3Q8bGABj/AC+ry+vp2f3+H38nMEAMvzujzvVu1Xv8Hv8ANqDiFJCUkVmxRcRNbCJFFqlwAAAAAAAAAAAAAAAAAImgJK2iCS5EgAAAAABWL0Lq2K2rYAiEExNiiZEgAAAAABivL9fl7nsejbZTWedhDJlUuMJT1+T2/W6Otxuy8/CGTOAAAhQkBMAsSAB8ft8pYj0fH7+xt2Y8bEABh6/Svs69wPGyAAY/y+vzevo2P3+H38nOEAMvzulz/Vt1Hv8AB7/NrDiKLUPpCStq2AK2rBMWFUySAAAeeXo8vA8WrnRRnlkar14v1Vzq3l9WXoIAAAAAAAAIUJiQWgiYsJAAAAAAABS9C01sRW4otUWSKhMgAAAAAABi/J3uD7Hq/fbYLs006ZS/m4HzZi6znVPX9LpazjdnyvPDPSAAiRQkK2IibCQHxPs8zqfS8w9LzD0vMPS8w9LzD0vMPS8xHpeYel5h6XmHpeYel5h6XmHpeaT0POPQ84+0fL68rokrFxRaoskUmRIAAAfDK+rwb+R0beedOmmmcw6fMu5vqMp6q51aJ8+wAAAAAABEigJVsKzYSAAAAAAAACthSUF1bERMFqpEgAAAAAAAB8sZuPHovxj7/H1PQ+np8SOb0OpeuutzUfax5eAABChCwi9Qi4SD5fXLW915x6msOiQBARAkBAIACIBCQBAIEgRAIAeryojW+rH63zuPoiaVZiwrFhIAAAPh9+f1GZHqce/Tc7pef2FMs7ovFbGXHo1ar18rq+ZaHEgAAAAIUEWkiYkVtIkAAAAAAAAAAFbCkqloWEgAAAAAAAAAB8+N3VneR+WzX3Y/w73GaLY2mC1dfHTGDIABSLQWqgmJsSACuG2+H3aHr8nb02fSe487Nw3cHDdwcN3Bw3cHDdwjhu4OG7g4buDhu4OI7Y4jtkcR2xxHbHEdscR2xxHbGZ5uoy+yWnzOm4j3WiuCJmLCQAAAAc/oeDuMxJ6fGi6eW0/n9WFPTw+3N288+T0KtB1PN6fNuDiQAAAAKRaC1UExNiQAAAAAAAAAAAAAAAAAAAAAAAAAAAOP2K99YP3+b5ev6O9cnreP5ocwA+f0HzTYSAAHzw+4xG6+O3xe1fZoR5WQAAAAAAAAAAAABDL2O76MX9dM7N8ftijn5jT5jfLTZnTHRiWCAAAAB8j6+fkcrTz0eatr5q7PN5fD2eN3GiZ1TPv8Jbw9vm1NXX3GC0AAAAACKfSCkrCQAAAAAAAAAAAAAAAAAAAAAAAAAAAAA5OY3vD26c/2+JGvRsfpimejbMUhtWKI2rFDasUNqxRG1++E3eev54jb4i/t2uL2ru9CPLygAAAAAAAAAAAAfLG7bLa58UPpsnvdb4ffy+efmNPmNhpszpjo/H7ZLK0zINEa9kENeyBGv+GXS7HM+U3Qnp9mtyO19WPp8vq4nOc7afLTxj50q3nNe/v/AGqn4fczWAAAAAAAAAAAAAAAAAAAAAAAAAAAAAAAAAAAAAAAAeTjaRb3jmxXWYttEsXOzQxjZjGNmRjGzGN2RTx88Rt8Rpsdvidu7vQDy8oAgjn8TybbdEzkWTpGbGkZwjRs4NGzhGjZyTRM6RomdGiZ0jSe/G/bhsa/L74ufB6vqkHLn5jT5jeabM6Y6OZ0zIyLXLoyLXIZFrhkvrqCOF1PSqkK5AAAAAAAAAAAAAAAAAAAAAAAAAAAAAAAAAAAAAAAAAAAEEvnckAAAAAAAAHzxG3xG652+J27u9APLzAPB7+b3OX+/wAOp6d/2romCnOtEM60QzrRDPNCM80JGeaEZ5oRnmhGV8Ogz+ye72+D3sXIUgOfmNPmN5ps1pUdEYJAAAAAAAAAAAAAAAAAAAAAAAAAAAAAAAAAAAAAAAAAAAAAAAAROXs79PG+T1Nq9HfXZ0OJ9OTPsFbeflAAAAAAA+eI2+J3XO1xe1d3oB5eYBzelzbJy/U5fU9G7TDyqAAAAAAAAORn9Bn/AEZ7Pe4PeyQFIDn5nTZnfDS5rSnRGCQAAAAAFJy9nPu8Hmbqvt6vFU1PqxunyWesUdgAAAAAAAAAAAAAAAAAAAAAAAAAAAAAAAAAAAAeDI97g+ntnSc/UVV/Lx9Fjz4and4XrbtH2cGz1bxg3HO8YMjeMGN4wg3bCEbthBu2F3VHHzxO2xOjt2uL2rutAPLzgOb0ubZOX6nM6fo26YeVSAAAAAAAByM/oM/6M9nvcHvZICkBz8zpszuhpc1pZjomTyTrGJXxtmKG1YojasUNqxQ2rFkd3hF/F+98ezm78XH0vwrnJ+rz13U7NS/maQAAAAAAAAAAAAAAAAAAAAAAAAAAAAAAAAAAAAM9w9XlPU29fTYfUZ6ugeTJn52f+3x9bdM97uUV4VunHGFboYWdyMM3JGGbkYZuRh9wUcfPE7bE6Ona4vau60A8ugBzelzbJzHT5nT9G3TDyqQAAAAAAAORn9Bn/RdnvcHvZAUgOfmdNmd3LS5rSy6OU1bJOLbRfGLbRDGNmRjGzGMbMYxsyMW7vC0cdvs47vZu+n8PhxeJ8lq+vbRpbnmagAAAAAAAAAAAAAAAAAAAAAAAAAAAAAAAAAAAAIyur+dveHdblepstQ6l6PTpM1X0uebkAAAAAAA+eJ22J22u1xe1f1oB5dADm9Lm2TmOpy+p6NmlHlVAAAAAAAAcjP6DP+g7Pe4PeygpAc/M6bM7uWlzWlR0Rh7AAAAAArmNTSznHOzzttPnn6+yY8Gmt6cloUWAAAAAAAAAAAAAAAAAAAAAAAAAAAAAAAAAAAAAAPn9B4/t9nUhzAABzeBf3sWF9lnWueP2ZaggAB88TtsTttdri9q+dAPLpAc3pc2ycx1OX1PQs0o8uoAAAAAAADkcDv8AA9COx3uF3coKZA5+Z02Z3cNLm9IdEYewAAAByuo6rKfO/jXs/wBynr6DjoAAAAAAAAAAAAAAAAAAAAAAAAAAAAAAAAAAAAAAAAAAAAB4/ZnbeuPDtelp40bnMVceLY4r7S2jGs9eyY0bJjtjTz88TtsTo6drjdq7rvjzKQHN6XNsnM9PmdP0O9KPLrAAAAAAAA5HA7/A9COz3eF3coKZA5+a0ua3cNJm9KdAzWXrSskt51rJDWskRrWSk7OevTRWaD3V9ZL2fH43cbN5vT5ugIkAAAAAAAAAAAAAAAAAAAAAAAAAAAAAAAAAAAAAAAAAAABnNH4Lesn3+C9LRusz4fjRwW1tk5BtVPGKbUYvc/L60cfPFbXFXdO1xe1dPfHmVAOb0ubZOZ6fM6fod6UeXWAAAAAAAByOB3+B6HPZ7vC7uWQpkDn5rS5rdw0ua0qOhlNX883WOnXr+cg16GQa8jINeMg7PHvr0/rx/wBM9l/M+2mrReuJ83SESAAAAAAAAAAAAAAAAAAAAAAAAAAAAAAAAAAAAAAAAAAAABx+Bt66bMP9td9bJ5/RMlYcwAB88VtcVtsdri9q6e+PMqAc3pc2xmenzOn6HelHl8AAAAAAAAcjgd/gehz2e7wu7lkKZA5+a0ua3VtLmtKdAYbAAAAK8HQO+cY11dFeb0PpmnsKuwAAAAAAAAAAAAAAAAAAAAAAAAAAAAAAAAAAAAAAAAABzup+/I49fQv6X15TudZ7cLoslXYGWsAAAAD54ra4rb27XF7V098eZWA5vS5/bL9Pm+r0u9a4jz+O24o7TijtOKO04o7TikdpxR2nFHacUfXP+/xbOet3eL2sfQVSBz81pc1uraXN6RHQGG0AAAAAAAAAAAAAAAAAAAAAAAAAAAAAAAAAAAAAAAAAAAAAAAAACmM02U3Xvd59nZPI8WmjJVh3s8no37H74/64qdWyjmNWyg1bKjVMqRqmW1NUfPFbXF6enZ43ZunvjzKwFbDJeTaczbOenurHCd0cJ3SOE7o4U9wjhu4OG7iI4bujhO6Rwr9voco9Ji7CAHgzWlzW6ppM3pDoHAyd99mVnOmZkaZmRpmZk0rO9DmekiauwAAAAAAAAAAAAAAAAAAAAAAAAAAAAAAAACliQAAAAAAAAAczL7PG+hf6thhdDzHZV52Orlc+I9XQaT00cZJrURkp1kmSa0jJNaMnuPH7M/Pzxe0xd0uzxuzc748zgAAAAAAAAAAAAAAADwZrS5rbU0mb0kuhldV5s3eUalfXlp1Ay7UEZdpbmXaDiWce7v47t099cZbwAAAAAAAAAAAAAAAAAAAAAAAAAAAAAAEKny+k2JAAAAAAAAAAz2hiycM7vG9LR8y3c16P37+Wq0mCoAAAAD54vaYvb07PG7N098eZwAAAAAAAAAAAAAAAB4M1pc1tpaTN6SXQGG4ABSYPl9lh4vamMbPV5PoZNT6cvp8eiRVYAAAAAAAAAAAAAAAAAAAAAAAAAAAAARUK3ILEgAAAAAAAAAARI+P0sAAAAAFYkiYFMdsspr68/Z5fo0NW5bBz1HLHUcsdRyx1HLHUcsdRyyOo5Y6jljqOWOo5Y6jlydNzB03MHTcwjpuYOm5g+ma6vK11NJm9NzPuGK4ArARcrMXAK5fVc+6vO+/wNmX1/H5Eej28tzOq++Q7+XR0BTcAAAAAAAAAAIFQTAlAupcAAAAAAAAAAQoSCYBNPoSAAAAAAAAAAAAAAAABVBMpCsk5bU/C1lI+3y39fGfr8uwIBACRAIABARCQBAIASRAIABA+sRGt8nuw3hT2qqSkQCZpckEZnr53VnHu0UeX16C+XRlvPsOX3xw7VX59R6c9ocO4K7AAAAAAAABAqCwSrYRIotUupcAAAAAAAAQoTMCt1SZiwkAAAAAAAAAAAAAAAAFJCUkVmxWLitqXI83qS8VPfSXle2ZeF7h4XuHhn2jxPaPE9pHie1DxPaPE9o8T2jxPaPE9o8T2jxPaPE9o8T2jyemyARKs0JmJKXVJLgAHB5fQ5/oYp1eX11NoZdAGa8fU5e/BfW5DXU3WGbSAAAAAAABFZgWCImxFbiJrYRIotUuAAAAAABChICakliQAAAAAAAAAAAAAAAAAVi1S6titq2AKzEExaSiZJ+f0+Usr9vF9vTjYDy5AAylfjX1ONqPL7AAzPwnzelVsPr8ft51gRIHA8Xo5/oUaj2eH3Ybg5kBWaCQSqTMXAAAOFy9HnN2Nqsr60aZ8vrh2IcbrnxeY34L63g97LqCjQAAAAAAABVND6RIiaXAKzEExYVLEgAAAAAIFJtUIkFhIAAAAAAAAAAAAAAAAAARS9S01sRW4ovQWSKTIkHy+vyljvv8AD7+pzrx5XQAGMravq17UeVYABk/P6PP6lGu+3x+3mXBEgZvn9Dweln0vu8PuwXBx0hJRMExFiIm4AAABGc0nzsryT2ePbit9/MPr8yeVraCuz6/cw7gSAAAAAAABUgurYitxRegsCqxIAAAAAEKCLCv0UJi4SAAAAAAAAAAAAAAAAAAACthSUF1bEIkmsWEgA+X18HTMff4ez0+dUPK6AAxlbR6tW0HlWgAZPz+nzenRrvt8ft5twRIGb8Hv8Ho5tL7vD7sF6qvPULCLxAi8gAAAAAEc/op5z3x066rN+zsOZ+f0KrQSAAAAAAAAArYUtUXRJWYkVXIkAAAAAAKxahYqE2EgAAAAAAAAAAAAAAAAAAAAArYUTAmLCQAPNwrY6+e+LbDveHSUrDH0ABja2r6tO0HlXAAZPz+nzenn132+P2828IkDN+D3+D0c2l93h92C+kWjnq1JgkuAAAAAAAAAAAAAAAAAAAAAAKXFJQC5EgAAAAAAArYfNaRIAAAAAAAAAAAAAAAAAAAAAPnzeDod/wCHEaZ7vsyyI205TR5HoV4/Lq8TmU2RMT2LY5Xb6f0xzEmeQAAMbW1fVp2g8q4Ajj9RzfNavpZ9d9s53/Pv+gr6Azfg9/g9HLpfd4fdg0Pn9HPXzlcAAAAAAAAAAAAAAAAAAAAAAAAAAAAAAAAAAAAAAAAAAAAAAAAAAAAAAAAAcjpY/QqW3zVoOjnjHNZxOnO+3yWx9vi9sR4un1/Zkn4fcyyAAAABja2r6tG0HlXgcfh+jz+jnTpPVV1kfb5vnfxs3w+/maATnOf2OT6GXRe/P9/HfIr7AAAAAAAAAAAAAAAAAAAAAAAAAAAAAAAAAAAAAAAAAAAAAAAAAAAAAAAAAA5Gf7HH9GWhz2y4j6jCRIyfl7nD9Lmdni9dTPoGOQAAAAB8TJ1tX1M+0fH7eXoAyXw7PH9HPqPTj7U9X+L1aK9D6InzdIRPxy2v8d1eZ6Xgpsz7C2a0WHTcV9gAAAAAAAAAAAAAAAAAAAAAAAAAAAAAAAAAAAAAAAAAAAAAAAAAAAAAAAAcLi6bM+ga/IdQ0aJ88Pgcjj/T5+py2GV2GYGToAAAB8WZt59HPN1QdQ9/gcxrvtkNRiu+vC77icbGwi+vN6H7qewr7AA8+b1nytryXpny7cus+2S7+PT7nD8iNOzPuOwram4AAAAAAAAAAAAAAAAAAAAAAAAAAAAAAAAAAAAAAAAAAAAAAAAAAAAACMlrvLcyU/T5+hHt6PBVx2eV80h0uo9vXifM6DmQAAB8TgeGHp0W9U6anrmz0mXvM+HZ5vVX4fb4l1ezef0ebpCJAAAAApn9HHfGOn0+bfiPt2eOuA7nGmPvpch2arOwMmsAAAAAAAAAAAAAAAAAAAAAAAAAAAAAAAAAAAAAAAAAAAAAAAAAAAAAD4cLSLIxUbP4aGT+up+8RyOvLNIcyAAAA5/Q53cZwelRo+jz+h5twcdPB7/B3zmx6ObQdPmdPztIcdAAAAACDI1mPT87S+zy+rzt7l9TmzzwPX5fTtxacef6IAAAAAAAAAAAAAAAAAAAAAAAAAAAAAAAAAAAAAAAAAAAAAAAAAAAAAAAAAAAAAAD4fcjFvb4vUz+/SYzo5+9G8TLZ7c7PP01VPXor7/pPN1BEgAAAAAZvxafNbcXp7mYTGl4PxIdXn6bjr6jJtAAAAAAAAAAAAAAAAAAAAAAAAAAAAAAAAAAAAAAAAAAAAAAAAAAAAAAAAAAAAAAAA8+X2Hnu4yj1+TbQEwmPXD46V6cV4U2AAAAAAAPL6kxm/Jr4voyXu78w+P2KLwSAAAAAAAAAAAAAAAAAAAAAAAAAAAAAAAAAAAAAAAAAAAAAAAAAAAAAAAAAAAAAAAAA8vqTHLdR3Hl9MuJCJAAAAAAAAAAAAAAAAAAAAAAAAAAAAAAAAAAAAAAAAAAAAAAAAAAAAAAAAAAAAAAAAAAAAAAAAAAAAAAAAAAAAAAAAAAAAAAAAAAAAAAAAAAAAAAAAAAAAAAAAAAAAAAAAAAAAAAAAAAAAAAAAAAAAAAAAAAAAAAAAAAAAAAAAAAAAAAAAAAAAAAAAAAAAAAAAAAAAAAAAAAAAAAAAAAAAAAAAAAAAAAAAAAAAAAAAAAAAAAAAAAAAAAAAAAAAAAAAAAAAAAAAAAAAAAAAAAAAAAAAAAAAAAAAAAAAAAAAAAAAAAAAAAAAAAAAAAAAAAAAAAAAAAAAAAAAAAAAAAAAAAAAAAAAAAAAAAAAAAAAAAAAAAAAAAAAAAAAAAAAAAAAAAAAAAAAAAAAAAAAAAAAAAAAAAAAAAAAAAAAAAAAAAAAAAAAAAAAAAAAAAAAAAAAAAAAAAAAAAAAAAAAAAAAAAAAAAAAAAAAAAAPnckAAAAAAAAAAAAAAAAAAAAAAAAAAAAAAAAAAAAAAAAAAACs/A+8/P6AAAAAAAAAAAAAAAAAAAAAAAAAAAAAAAAAACFT5fVYkAAAAAAAAAAAAAAAAAAAAAAAAAAAAAAAAAAAAAAAAAACJoIkWmlwAAAAAAABWJIAmBaaWJAAAAAAAAAAAAAAAAAAAAAVCIsIXAAAAAAAAAAAAAAAAABAiABMBaaWJAAAAAAAAAAAAAAAAAAAAhURImEkzEgAAAAAACgTISpYkFF6FppYkAAAAAAAAAAAAAAAAAACFQACVPoSAAAAAAAAAAAAAAAAQKgsEqiwKL0LTSxIAAAAAAAAAAAAAAAAAEKkWVJlUmJsJAAAAAABSQlJUsRFhW1bAFFqH0RIAAAAAAAAAAAAAAAAArNCZiStlSZi5EgAAAAAAAAAAAAAAABFZgWSVLERYVtWwBRah9ESAAAAAAAAAAAAAAAAEVAJgIWsRIAAAAAAAVi9C6titq2AKzEBaSiZJAAAAAAAAAAAAAAAAAhQkCVS0LEgAAAAAAAAAAAAAAAAArF6F1bFbUuAVmoLCIWJAAAAAAAAAAAAAAAAiaETFiJiSEXEgAAAAAAABFL1LqXIrcUXoLJFFhIAAAAAAAAAAAAAAAAFZKpgTAFhIAAAAAAAAAAAAAAAAAAVi1S6tiK3FF6CwKrgAAAAAAAAAAAAAAABHzPrWkkxeBFfoJAAAAAAAAABEikoLq2IRJNFhIAAAAAAAAAAAAAAAAIUCRX6KExcJAAAAAAAAAAAAAAAAAAABWwpKC6tisxIquRIAAAAAAAAAAAAAAAImpWQSqL0uJAAAAAAAAAAABWwotUTFhIAAAAAAAAAAAAAAAAAVi1CZVCbEgAAAAAAAAAAAAAAAAAAAAAVsKJgFyJAAAAAAAAAAAAAAAABWwpMCt63EgAAAAAAAAAAAAAAAAAAAAAAAAAAAAAAAAArYfNaRIAAAAAAAAAAAAAAAAAAAAAAAAAAAAAAAAAAAAAAAAAAAKXESAAAAAAAAAAAAAAAAAAAAAAAAAAAAAAAAAAAAAAAAAAAAAAAAAAAAAAAAAAAAAAAAAAAAAAAAAAAAAAAAAAAAAAAAAAAAAAAAAAAAAAAAAAAAAAAAAAAAAAAAAAAAAAAAAAAAAAAAAAAAAAAAAAAAAAAAAAAAAAAAAAAAAAAAAAAAAH//EADIQAAAEAwUIAwADAQEBAQEAAAABAgMEEDERExQgNAUSFSEwMkBQM0FgIkJwIySQoLD/2gAIAQEAAQUC/wDk8YTT82VPwlQRF+bstBF+FqKyL01otnb6+oqKgvTWi3zLTFos9RQcxyMciHI/XWghYK+mrOwh/EcjBePUWgxSVfUWewtByp6WuSwp1BeKYqUrBz9LT2RgxWZGKejr0ai3w6iwjmQ5+o5mN0cyFfWVG6QoPorBz9JXJzFg5llqC8H7qCHI5Hz9IYpP7nQ8n9fS1FQQsFB9+jPIWShzPwaiyVR9/fpDH9pFSZ0laXp+Ys5mKgq/29J/YpHTIc7SFR99ap1BAgYp6eqZFkMGLPT1FR/UqenPIWT7qLCFngVkY+hZz9P/AFnaLRbkt9LUVBg5ffpjpktlb4lgrKop6g6fWSwpUnZ6WwVFor6kx95LCFfEt9bTMXp7RaCOVRz9VQUyH4VZW8zIEfraZDoDP01JGLRZ6ygpM/BMECodLRX11PUmP6gxb6+gpKvgnQpcz9ly9OYKnMh3exoOQr4R8haPr2NnqKC3l7KwvEs/OWf/AMCmge2ghAXGvrF64YJ91Ib2g6kMxTb/APji1EhMTFqfPNCRu9/jcdEXjkkoUsygIgwuDfQU4KIvm/8AGIpy6h5Q8OcQ420hpMomES8RkZGIVy6f/wAY2mr+MoJu7hsm0W912TSt9r/F9p90mviybS+OULpsq3ENkraKAW0yDUQ09/h+00/wlAuk5D5I93feBFabadxvI+8TDbjinViooIOKvf8ADohu9Yky8phbMQ28UomNJJCohG7x/LHOb8QIeDW+Tmz1JKoQo0LSreT/AIbHw+6qZRL5BTzi5VlBtE2xle+YNWXIirCiqiF03+GmRGUVBG3lrOEirk8sa3uRAho26S5tEt0ztNJGakJ3Uf4e9BNOheznSGEfIFBRBhGzjBwbV042ppY2e/vJyRTF+2pJoVOChTT1no9CAqMfWL90IjXkBmNQ7/gsWxfNCHXuRGV1ht4nUXbohoVtKOrFxV4eWDiv3pxDJBLzS86u77zROpDPwdSNdu2ZMwHLBMB+BNBSh3b1n9y++lhD0S48YqGYxbRoWlxORffnidSGfg6m0FWvjZ7e8ucY3dvjZyuX7mJev3g2w66HEKals97dcyL788TqQz8HUj9SNnH/AAntE/8AqNnd37feIPHYwGUXjxESSeaJ5sNHY7kX354nUhn4Om46hool4n3BDvXDiFpWkOupaS4s3HBAI3Wf2xyWneZCFGhbUQ26mKikNoDCd9/IvvzxOpDPwdEzIiej7ApSlnNDi2zxr9ilKWYZaN5wiJKfXnQFT8KRSjoe7cyQDG6WRffnidSGfg6D0a22HX3HjkzArWFwTSm3GVtHNmHceNllLKPYWAi8K0cxaLRvF68plRSSWl+ANMkkalMQBJPKrvzxOpDPwZnXUspejHHZswzjwZhW2ZmRKJUEwoYBoIhGUArBaQt9hUVBc/C5jkOQtFPW/wAhaLBWbvxBjUZl9+eJ1IZ+DKpRIS88p5wNtLdUzApRmrLmOQ5Cop6ygtMELBXx6CnhuOoaS7tMwqKfUL50Ji30BraQStK0+FzBimR34gxqMy+/PE6kM/Bl2i5YkQzF+4lCUJy19paDlTwKdCgp4MTElDpccU6rKy8thTD6X0de0VKotIWDnN34gxqMy+/PE6kM/BljztiBAJshstelT1P2YqKyK0/CqN0hYCPJQU67rhNNuOKdXJDDrowEQFtONzYeUw4lRLT1qyqRCzI78QY1GZXfnidSGfgyx2pEFpclclg3SHMvW2CwhQfXIy59YxSf3M8pAqdXaTv8pQcESipIyJRRkHcz2a7ajrUHI5Vyu/EGNRmV354nUhn4MsdqRBaWZ5CyfeT+vqLBQffWOhzLKVLbBvC23wIpW9EiHbvX6ZFJJaVp3FiAVuxXTsFJ/f3ld+IMajMvvzxOpDPwZY7UiC0szr/aRUmcrSG8Qr01xLTYOPaBR7QRFMr8jnI61BV+/BKg+5nKyzwnflGz9VlitUITVdT+pUqK53fisMMEd/mUR79h54gjxFhhn4cscR4mwxBaXJ/WRZPuvUdeSyl6KcdytRDjQZfS8Xi1H9fE+p0G8Qt8WKTuRIYcuniO0prWTaFK31CATvRXRqPsx91H36Y6HSdo3iFvVedJltxanF5kqNCmHieR4VZGPuo+/C+iPNSZFZ4O0mucoOMuwlRKILWltMXF35y2c1ut9GydRXKp1tIxDIxDIxDIxDIxDIxDIxDIxDIxDIxDIxDIxDIxDIxDIxDIxDIxDIxDIxDIxDIxDIxDIxDIxDIxDIxDIv2Rfsi/ZF+yL9kX7Iv2Rfsi+aMVzV6sW7eOyYhFOhMGykKhGTD0EpspQ7ty74VgrKvjVylTxHEE4h1pTLkkOLbGMiApalnKHYN9wiJJZ6ytlUWZFrS2h+Ncd9KzELZNp5LqZnTqPK3GpQjN65kjWbtcoZe/D+CRyr5FQUypb4sRDpiEOsrZVlYZU+tllLKM9ZmQI80c9eO+mZdNlZHaUjp1I0//ADSgSsYyRZWw0oD4etWVoMgRgy8mot8laEuJd2aRhUDEJGFfGDfJAh3bl7OY/oDHPMo7Eyh2DiF8NIcNIcNIcNIcNIcNIcNIcNIcNIcNIcNIcNIcNIcNIcNIcNIcNIcNIcNIcNIcNIcNIcNIcNIcNIcNIcOIcOIcOIcOIcOIcOIcOIcOIREIbKZQZ/8AmlXqxpWw0oBVrGSMVuw8oAv+PVMf1Bi0fflWl50S1cviAdvGMxghYCIVzL+OWze/0UbppQOmH8RXqxLraW5Qz1y4R2lOLfvVyh0bjHVMFTmQstFfdbQZ3mxBvXT+c+Qt5Vzr+OWze/zbbBimCCVpWUo3TSgdN1XHkNB2NWvKzErZCY9owqOaIPRS3ZwrN674FvL3aiJSXWzadEFFXqc9nQX8ctm9/mxMQbyw24ppTThOtiN00oHTdNbiGydjlGDMzMJSpZtQHJ1pTK8zbanFNNEyjwLPex0PeJBHYbO0TIJi2FC/aF+0L9oX7Qv2hftC/aF+0L9oX7Qv2hfNSX8ctm9/mOfERWz2f8IjdNKB0wN1sjvmhfNC+aF80L5oXzQvmgqLZSHI8zBqNZgiMzagVGENobILbS4l2CWjK1COOBtpDSfx8VBbwp4C/jls3v8ANiWTZUEIUtTLd00I3TSgdMInUdJqDW4TbKGsym0LBwbBgoNkJabR+Teh23gvZqyBwj5DDvEMO8MO8MO8MO8MO8MO8MO8MO8MO8MO8MO9Jfxy2b35jMiJccyg+ItDiLQ4i0OItDiLQ4i0OItDiLQ4i0OItDiLQ4g0OINDiDQ4g0OINDiDQ4g0Cj2TCHEOEDIlEcGwZobQ2Uo3TSgdMH2XTfuHhcPC4eFw8Lh4XDow7wKDfMI2eYbYba/XL+OWze/LQRMQb6xTwiK0IdU2pl0nm8sbppQOm/cr+OWze/LGq3YYMtKeXw9dnDnBw5wcOcHDnBw5wcOcHDnBw5wcOcHDnBw5wcOcHDnBw5wcOcHDnBw5YiIdTBDZx5o3TSgdN+l30eIv45bN78sfphs/UeFtH4hs7uyxumlA6b9EZ2E/tALdW5JK1IDO0FJCVEtPgL+OWze/LH6YbP1HhbR+MbO7ssbppQOm66lEhLscYN9xYvXCCI11IafQ8X42NibxWTtENEGwsjtLrr+OWze/LH6YbP1HhbQ+MbO7ssbppQOm6xmSSffN5cqyIzScO9fI/Fxjt1Dioh4BKSu0B2DbWFoNtY2c7vN9dfxy2b35Y/TDZ+o8LaHxjZ3dljdNKB03Wj3LEhCDWpuCbSSoRlRPw5tGIZy7e/F7TOWz0Ep+e0m/CX8ctm9+WP0w2fqPC2h8Y2d3ZY3TSgdMInUdaAT/ABk8i8arJJ2p/FbTL+Q2cqx+e0l/xlYY3TG6YsMWGN0xYYsMWGLDFhiwxumLDkv45bN78sfphs/UeFtD4xs7uyxumlBaYRBHiLDFhiwxYYsMWGLDFhiwxYYsMWHOAXyk8u7aFQkrE/io5vfhwRm2cPFoeIPRDbJOuG64NnN2J66/jls3vyx+mGz9R4W0PjGzu7LG6aUFputHt2oCVGhTcc2ZHGMkH4hTxiGbvHvxkUxh1y31TYZU+4lJIT11/HLZvflj9MNn6jwtofGNnd2WN00oLTdYyIyfYNlWRKTUqHZuUfjFIStL8AtAssmzBOOhppDKPAX8ctm9+WP0w2fqPC2h8Y2d3ZY3TSgtN11JJROQANh1IunDDcE4oNMIZL8epCFjCsBLTaPDX8ctm9+WP0w2fqPC2h8Y2d3ZY3TSgtN+tiYtLIXEuuC0w3FvNhiJQ+Wdfxy2b35Y/TCA1HhbQ+MbO7ssbppQWn6b8YSAp91YJxZBuNWkIWlxP5yJeuWTO05oWptbaycbzL7JbN7ssdphAajwtofGNnd2WN00oLT9KMe3EZIZ66c/ObSV/wBBAw6VgyIyjWCZcCXXEliHhiHhiHhiHhiHpL+OWzu/LHaYQGo8LaHxjZ3dljdNKC04fecJ+/dF+6L90X7ov3Rfui/dF+6FKUoxCw6SbW0hwnUXbgh1bzH5vaJf9Rs90t0R7pOOdBfxy2d3ZY7TCA1HhbQ+MbO7ssbppQWnETqOlDOE4yIhZOPCGKyH/NxjN8zI3nDIJSalNMIQ3dNi6bF02LpsXbcl9ktnd+WO0wgNR4W0PjGz+7LG6aUFpxuIMXaBdoF2gXaBdoF2gXaBdoEazZJKjSannFkGmzdcoX5yJgrw1IUgw2y46IaFJjoL7JbO78sdphAajwtofGNn92WN00oLT9IytJ+DUg5NsrdDLCWU/njIjFy10l9ktnd+WO0wgNR4W0PjGz+7LG6aUFp+optCgTLRfmnohtkl7RVacbEBG0XCDMU291l9ktnd2WO0wgNR4Uf8dBs/uyxumlBaf9NFRNwkzNRgjBlKDirzqr7JbO7ssaVsMRWhl65c4iQ4iQ4iQ4iQ4iQ4iQ4iQ4iQ4iQ4iQ4iQ4iQ4iQ4iQ4iQ4iQ4iQ4iQiIm/IbPTZmjdNKC0/6VSiSlxw3XAxCrfHDmw9BrZIyBGZGy5etdNfZLZ3flMiUT7SmVeIlJqUw1ctZY3TSgtP+ljlbsKGkXjqSJKZRKCZfMg3EutJxsQMbEDGxAxsQMbEDGxAxsQMbEDGxAxr8l9ktnd+ZaEuJVs9sxw4hw4hw4hw4hw4hw4hw4hw4hw4hw4hw4hw4hw4hw4hw4hw4hw4hw4gWz0htlDWeN00oLTh6KdQ9jHxjHxjHxjHxjHxjHxjHxjHwUa6QbjUL/NR5f+YQyt2JnHqtiSPqr7JbO7vRRumlBacRGo6UPEG1+DM7PGeReMyho1Jp3isfjENkZmoxDwjdxhGBhGBhGBhGBhGBhGBhGBhGBhGBhGJL7JbO7vRRumlBacHDtKPCsjCsjCsjCsjCsjCsi4YGGZDkE2ZLbU2oQT1pfgKST40dD2KywkPer6i+yWzu70UbppQWnzmcioIlm+bBGaTYdJ5v31JffjvwAUhSDBJNRswClBKSSnqL7JbO7vRRumlBafMZigLlkjGbDEO7cuV999/dQXk3TYIiLqWjmLQs/wCEtnd3oozTSgtPmKZUkZEonmjZcDUWtttUU8oXiwT7qQiOWQbdQ6XlWjmLRaLfIoOY521FT9LWVhyPtJYUmwQr9wviDQ4g0OINDiDQ4g0OINDiDQx7Qx7Qx7Qx7Qx7Qx7Qx7Qx7Qx7Qx7Qx7Qx7Qx7Qx7Qx7Qx7Qx7Qx7Qx7Qx7Qx7Qx7Qx7Qx7Qx7Qx7Qx7QiYonUSgyshshmOc65YxKTZzEZpOHib3yaio5jlOnjUlUVIVBekrmi2rt5KgpNnpUINxaU7qZmYpIxTNEPXzkkoUs8G8FsONzIzI2Hb1vxqiueninzFtosFo5GPv0dclpTdaS8h6HWyaVBSbPRobU4cPDkyU7ZVlvELAWSMc3GZQ0PfGlJJKUTCkZSg3N13xais7SzU8KkrQdhAjFBZ6SuSwWCwFNUMyoYZohhGBg2Bg2Bg2Bg2Bg2Bg2Bg2Bg2Bg2Bg2Bg2Bg2BhGBhGBhGBhGBhGBhGBhGBhGBhGBhGBhGBhGBhGBhGBhGBhGBhGBhGBhGBhGAUKyQIiSUzMUFZVIWZY4/8ArJtF23kikXbwQe6vxKis7BYLM1PB+5WgyHM/SH0Dy/19LSVBWVc0bqAjvyx/ySKnhGKzLJ95PrrUlyFZVFfSmPuRZDoLRaKzc5N37waedN7Mp93ev3c77zhP37oa5tZYt1xL9+6IVRqh8xmOQp045P8A0ky5eNZIhy8eCE7znh/f3IqTOVotFRXr/dQQIH6j6Kg+8lcznxBn58yu/PEagNfDljdQIPTZbQQoKJoVTr0ItvfZkw+bKkOJcIUERFWlKCb3nPE/rIsn3Wdev90B0OlR9+n/AKz5kLRz6DnxBn58yu/PEagNfDljdQIPTZSsFB9/dRZafRiWbpciMyPEPBTi1zSk1qabJpHhnTJzFo5nkr4FgoDBH6qpEeWvQc+IM/PmV3Z4jUBr4csbqBB6bLZKgqK9NaCWl+HU0eVCFLNhgmS8Q6VBHblrOvXqLBQVFB9+qqCyFTO58QZ+fMrvzxGoDXw5Y3UCD00jMWCwEcyK3rOQaFBUG6QwzwKFeMIgQhCUF5Z0lXr1lzIVFPXVmdOhFuEhgQqd6IzK788RqA18OWN1Ag9NPnIyBexOVeudCBAwVvsKi0V6D0W20HXVOrEA1YnMruzxGoDXw5Y3UCD0wMVSFDn7G0hUV8A6WiwWeytFczr7bIejHHJw0MbxkVhZld2eI1Aa+HLG6gQemBghYCIV9jaK+EZAj9epaUEqPbIcRBbRINxbLmVbiGyejlKFZIbU4bMCSRToK7s8RqA18OWM1Ag9NIx9V/DWeuiIy7ClKWeRmJWyGnkvJMyST0eFKUswRGo2YAzCUJQXRV35no2wzM1GGYxbYQtLickZqBCaadhftIyJ3CztuKaW46t05MwS1htlDRdNXdljnrCyQr105kjdQIM//N+2cWTaFKNaglJqNqASRE02QXDMrERCGzkZhXHQ1DNs9ZXdlfVvPiGYS22ttLiXEXbgZVvMzj0cyIQj92r9ttBdjUoFndROoiWrp4EdhlzLrK7srxbrwh3ScaMySTq7x0MFusTcQTiFkaVCHirsEdpftNo98my3W8m0S5SY+DqqdQgK7gl1teSOa5gjNJqWtUodq9dyvw5PEtCkKDEQbJpUS0/s9olzkwrfZybQX/KTRbrXTccS0l2MW5lai3Gw26l1IMiMnoNSRSTUM46GmktJzPMpeS60ppQZeUyptxLqf2Ua3vsSg4i7ObrqWULWbiwyi8d6bjhNIdcU8rM24ppTTpOokaSUCQgukttLiXmFMmG3FNKRFNqbcjjBxLxgop4g3HAlEov1lQ+1cuyainGgW0Ehe0DC3FOKlAs7qenGO3jtJMwy3gmBaIHAtGHoVbU4V26d6ykkooiGNrOw+bKkmSk/rH2SeQtCm1ZoaGN0+m6rcalCtXrtMkUzdOSYXeM9aoiEpS8GmlOqTBNkS4FJkpJoUIFz9c60h5LsE4gUmhpbhswJF1Y07IeUEmxjJGFbDygT/wCHXUe8oQqNxiUci1AhjsiP15pSoYdkEw0XXjS/88oJVsPkjDsh5QPw9cysMQ6t5iUaqxkQxWxH+APJ32ZQj105ki3rxcodG4x14tG4+GHzZNMQ0oLimkE66bqxAt/y/wABimrt2TMWpsJi2TBxbJB6MU5OGavXfAfZvm1JNJ5G21OKbQTaP8BeaJ5taFNqzJQbhsNEyjwXmEPEuFdQDIyBJNQbg3FBttLSf8DdZS8l2GcaytQ7joZZSyX+Orh2lg4BsYBsIh2kf/vxts/EGoV/Np/EJp+YqLPw9PzVTqKgvD5i0Wi31/39gvT8xaLRb63mPuvh1FRuy5jmXrrB91H36WoqLJcxzFPV1HMVIV8GormoKerpKqRUF6SormoKep5GKjmORCwffXqKz3iy09XaLBaOShZz9HUVnaQtyUFPT1HIx9ys8CorOyVgLJQU9PSRgjFBYXpKis7JWZaCnpfusuRj7r4B5CyHl/r6X7FBaLBz9IYrMsh5f6+jqLBUqip/fgGDmWQ6C0cxUV9NUVIVFT9IeQqTOgtHMVFfR/dQQIH4n0VBQ8lZ19OQIGdor6f+pUFDnUVnX0dZHT6Fnif1nzIWmOYrOvpzoYqKn6Y6fU+ZC0xzyV9JZKgr49uWs6+ktsFo5GKAwRivqa5qzr6Os6ys5+NUFM6Sr6awUlQVP1Vch0lX0dZc5U8qszoK+lqdRSVPXVmdBX0Z0IJodCts5+XUW2Cor6U6ECBnYREdlfXGQqLRUV9IdCFgst87mOZ+oqCIV9hYOYr6YyBH+HP85Z+IsL/4sf/EACwRAAIBAwIFBAICAwEAAAAAAAABAhESMQMQEyAhMFAEMkFgQGEiURRCoFL/2gAIAQMBAT8B/wCZSGh8yLUhwi8o1NGnVfTvTw/2G6KpL1D+COv/AOttWNsvpuj7EeofTfSdYGvjk4cilPpGhL+NDUhchqhGLlgStVDXfxvpxoqjnGtCUbl9IhO11IyUlVDSe+omn13T6D05VPgefpCbWDjyHrSZp6lH1Jqq3hqW7T1Phc6j/ZQcUNU89DTcjgIlBx51gfNHI3QqyLJee6RRx+pJVXOsD5oDxtEfnk1JHBVScqLnWB8qiVoVru356EnHAxycs86wPeKqYHLevkIxcnREPTxXuLV/RLShL4NXRcO4h47CxyRwSflPTwpG4nNQVWP1Uvg09e7oxqvQnG2VO2h47CxyLA8+Ujg9S/5U3Tqj1Hu7aHjsLHIsD7tSpXwulK6CNfTu6rbT03N7a0qz7VGUZRlGUZRlChQp+E9qbJ+E0dWx9StRxTztq6tvRZ7MI3MSSx+atnsseEjOUcH+RI0tW/oz1Ef9uzo/JN0RxJHEkXyL5F8i+Rey5lzLmXMuZVlWVZUrs+0tm9ljw0ZWuo6SRKLi6PsaJqe38CnaryXPaKr4jS1adGSipZOAjgI4COCjgo4KJwtNIn7e+uxUrtQps4lrLfFR1JROOzjs4zOMzjM4zJTuNIn7eRQ/ssRYi1FqLUWooihQp2KFCnmdIn7d1keC9lzLmXMuZcypUr5iELmRgo42npJ9V2dInjdZJY/HboVKkZV8PoqkTWm8IUmiMrlUlpVdTg/s4P7OD+zhfs4X7OESjaaZPG6yPH4NSpcXFxeN1IocfEaL/ia0XWolUgrVQlq0dDjfo436OKcU4pxSUrjTJ43WR47zFtQtLS0tLBqhGQ5LxEJ2sUk8bT1EsdnTJY3WR47zF2GqjTRRkY08TV8kYNj0jHJAljdZHjvMXM3QvFJPx8FVjdERnUlGpwzhjjQgSxuh95iG6FxeXl43UsMePg6MkqojChKVDiHEJSqQJY3Q+0xbyIjVS0sLCwaoXmRePU2jiDdeSBLG6H2mLeRHPM1U4ZGFPGJVFppFqJQpjniPHdqMW8iOfKaa+ScqF7KljLGWMsZaxqhEeOSvZoU5JZI5G6F6L0cRHEQpp+O08Goq9RKosF6L0XovLhupEf4U8kMklUsZw2cNnDZKLRCfx41OgpJ7Sl/XPEf4U8kM8zVRqjISuXll26lSpVFUVRVFyJPqQzz6kaoTawVYptENWvR/R4xpz6svgSqLRXyS0qY205XR89QoUKIoiiKLsz9xo76nSRofP0JvqLHa1VSRpzte0pKKG6upoLpXzz5JZFjtTjchprJVraGm5CVPPPklkWO24p5OBEWjFeYXYfJLJHH0SnYbpsnXeWSOPpkn1LDG88kHVfQV25dGcQzvONRNpkZqX0BczdCu1aEZVGqnDIxS5JwuOsWQ1E8j1Yi1Yv6GyMalqJRoVp2JQUh9CMHLBKDjk0p9aeZoU53jZY2ljaOOzHBqe1kfcvoTIyoVROVeiM9nVjRkdVxJ6jkaMKuv0KUa8kY07LVR6C+BaC+TH0S1f8z3/8QALREAAQMBBgUFAAMBAQAAAAAAAQACAxEEEhQxMlEQEyEwUCAiM0FhQEJgUqD/2gAIAQIBAT8B/wDMpFZRm9BjRkEY2OzCls13q3/HWWOvuKJAFSnWs/1Udq60dwtEdx3T/G2f4wrWfaBxgNYwrXpHo5EmyIIz/wARZXVZRTR320RBHQpjC80CY262itTuoHGCMNbVGVgNKqRgkb/iI5Cx1U14eKhEA5qgHCdrmu68WGrQU6B95AUCcamv+Ia4t6hC1PTrS8qGYg0cpWXmU4wz3OhyQNVNPX2t9cVn+3K40fSfCxyewsND56KF0iwjd1JE5mfrZpCdn6oW3np7rraoyvP2oJS72lWhtWV86OpXRrULV7uo6KRt5pHEZehmkJ2fqswN6qlbeZThZ2G9eU5ozzzXB7aoWVoNVK+42vH69DNITs/Q1pd0Cjs4GpOc1g6pkrX5ItacwiQ0KWS+fPRyOYeiOSe9zzU+tmkJ2fGKK+UA1gUlp+moknqeHNfui4nPx7WlxoFHZWjUrrR9J0LHfSlgMfX67gzTsvR9ehmkJ2fGEUYFO8udTylljutvJ7wwVKNrd9BRWkPNCiARQqRlx1O2M07LsN0hOz4x6ApNZ8o3o0K1n304tNRVWvX2xmnZdhukJ2fGPQFJrPcAqm2f/pchidZ/+UQR0PhInXmAq0xF3uHCKIyHhaHXpOzRXXbK67ZXXbK67ZXXbK67ZXXbK67ZXTsrp2V07K6dldOyunZXSrpV0qlO1DHdFU5wb1KxDU1wdkpY7w8JBNyzQ5IGvUItacxwnmuCgz7MUd91E1oaKD+EQD0KljuHsMFXAcJnVdwidddwkFHHwjJHMyWLeoJzIaFWpnS92bJ9qVxawkLnybrnybrnybrnybrnybrnybrnybrnybrnybrnybrnybrnybrnybrnybrnybrnybrnybqFxc2pVp0diPUOEzaO4RNvO4PNXHwzHXHVRAe1PaWmh7FkyKn+M9+OMvKNmFOhRFFZ9CtGj1ss5OpBoaOiEjXGgRAOa5DEAG5KWS6KeIs81Pa5PY1+awjd1hBusIN1hBusIN1hBupouXRWTIqf4z37M7McHmriVZ9CtGhRR3ysMN1hhusMN1hmprGtyT52tT5HOz4NtB+1iGp1o2RNfEsmezJYp2yxbtli3bLFu2WKdssU7ZSymTNWTIqf4z6GWbp7lh2LDsWHYsOxYdiw7Fh2LDsWHYnWcf1WRRc45nhZ9CtGhRvuFYk7LEnZYk7LEOTpHOz8xZcip/jPGPWE80aSsQ9YiRYh6xD1iHrEPWIesQ9Yh6icXNqVP8h42fQrRo8lHGZDRMjazLhLZwerezZcip/jPGLWFLoPag0KfXxs+hWjR2I475QjaMkWtOaliu9R4ezNoyqtMpBuhB7hko3321T7NedWqwn6sJ+rCfqwn6sJ+rCfqli5asuRU/xnjFrCl0HtQaFPr42fQrRoUcd8rDfqw36sN+rDfqw36sN+pjbooppDWgTJSD1RFRTw9mNY1aYzW8EAT0CiZcbRSWm66lFi/wAWL/Fi/wAWL/Fi/wAWL/FLLzFZcip/jPGLWFLoPag0KfXxs+hWjQo33DVYn8WJ/FifxYn8WJ/FiPxMdeFVNGa1CZESeqJoK+HikuFNe12XCWcN6DPs2XIqf4zxi1hS6D2oNCn18bPoVo0diOS4UJGuRe0ZqWW90Hibzj9+hkDn9UbKfoogg0PosuRU/wAZ4xawpdB7UGhT6+Nn0K0aPU1pdksOd0+Mtz8fC28+ie8MFVHOHmimivrCndYU7qSIxqy5FT/GeMesKXQe1BoU+vjZ9CtGhMZfKw53WHO6w53WHO6jZcFEZwDRGjgiKHx0Lrr1Iy+2iiguGpUkojWKGyxQ2UsvMorLkVN8Z4x6wpdB7UGhT6+Nn0q0aFG+4ViBssQNliBssQNk114VRg6ro0Impr4+O0Ob0KNq2Cc4uNT6LLkVN8Z4x6wpdB7UGhT6+Nn0q0aPUx5ZksQNk+Uu8Y1pcaBMs7RmuUzZSwXerfXZcipvjPGPWFIKtIC5Mmy5Mmy5Mmy5Mmy5L9lyX7Lkv2XJfsuS/ZRNLW9VNr42fQrRp8pZW9LynludAhO8HqgahGzOr0WGesM9YZ6wz1JGWZqy5FTfGfQy0CnuXPj3XPZuufHuuezdc9m657Fz2LnsXPYnWhv0ia9eNn0qfSmML8lh3LDuXIcuQ5GJw8dZT7aK0xk+4JrS40Ca262iNpaDRYpqxTViWrEtU0ofSisuRU3xn+FZ9Kn0qJ4YeqxDViGrENWIamyNdkpo/wCw8bG8sNUyRr8uEs4HRvrsv2pvjP8ACs+lT6fUDQ1TXBwqpGXT46vYs5zUnuYaLlP2XKfsuU/Zcp+y5T9lyn7LlP2XKfsuU/Zcp+y5T9lyn7LlP2XLfsuW/Zct+y5b9lC0tb1U+n1xPoaItBzV0BFjSpIrvUeTifccv0IH+FLJePT1wN/siQBUozn6TJq58JG3XeTBIyV926vu3V926vu3V926vu3V926vu3V926vu3V926vu3V926vu3V926vu3V926JJz7EekKc5cWGrQp/ryozRaKei6PQ1oojnxYBdCfqPahNWqVl4cGtLigKCinPWnlRmnZdhuQRz4s0hP1HtRvulAg5KgPB7w1Z+VaKlO0nsNyCOfFmkJ+o9sOIyXPcjM4+WZE5yZEGKeT+o7DcgjnxZpCfqPnY4C7qUIGI2dhUkRYmsLskyADNOe1uafOTl2GsLskOgUjC08WaQn6j5yCO8ang60NGSZM13RHqqhoT7R/yia9mNt1qM4qiA4I9OEZ9gUraO85APYrQ6jacY3Xm1VpGXbY681Gz9V0aEevCKS7miA4J8Zb5uA1Yp2Xm9OAFUxt1tFaTkPVHHfQaG5cC0HNSR3Ex5bksR+J8hf6I5Lq6OCfEW5IQuKMLh5iKS4eDomOTWNbknODRUp7rxr6migopZbvQLmP3UUt7oURUURFPWx5agaiqdI1uaa8OyUzOl7zDJXMyQtI2RtOwTnl2fqj1DhJrPBmocJNZ7LtSj1BO0n/AjogaiqlivdQrjtlFFd6lE0FUTU17ET7wT4g5MjDVM+gp/gopbvQoEHLgSBmpJL3QdkGmSE5+0Zz9f4QEjJcx+6JJz/wDM7//EADkQAAECAgUMAgEDBAIDAQAAAAEAAhARICExM3EDEiIwMkBBUFFhkaFggXITYnBCgpKxI1KQsMGg/9oACAEBAAY/Av8A8BlnM+3wWzlVVGXLbIduUVKtWwq3qa7KY5LUpClI8vku3JpCl33iSlyeQ1Eiq+W9eTSGo77xXaquSyGqkVLk9aq5TKNqtNLvufZT5RLmfblElIRnqJobj1h2VSHMLVUpcmrh2VXJzTEbfgtUauSzoSUhyeerkNwrhJSHLa4VVrvGXKJcqlGqNSlukjzGxSHKaqEhymdGzdLYyPLJjlto5d2Xbd+qs5hMUauTdeYdl2iPgsxCSl8Y7LtutXNKuUdV2UhzDsrVVudfx2X/AKMyWTGeevBbebgrx3lVZR3laUnqoyd0P8OFzjIBSsZ0p/p5W3gf4b/TadFsZNBJWyB9qZZPChJ203+GXO48IysAtKzWCUc5tT/9qRtEGnhYf4ZY37i3q6uiHj+qLHdR/DGTwiz8aLMY5PClN7pLQYXelXkva0XV9D/B7HdDEN4tqo5osZCQTW9BRzjbwCznmuhmP2v9/wAHOZ4jnNWia+kc3JGbuvSIAsFZNKXBtUM7Zb1U8m7O7Lv0QcLQg4cf4O/VaKjbQvXLSeT9xkEDaXVk0n/kYMlZKD83rBmH8HSNiL2Vs/1SkIZjtg+qR6OrhmPExwX/ABtM+6mUALUG9B/CE9l3ULRIcrsrYlitN+Ml+mGy7osdbD9I2iyj+4WLNcJGh+q8YDXSYM4+ltywV6/ytrOxUjou/gX9zbIMd3paY+05g4GDcpKbiJ1679Nmz/ul+k84H57XlW+Vo5Rp+6Z1GUxhk/xGtkLXVRnlT9BbHtZ2TrHSIdx4/Os530FpGrpEAnPag5pmDROOoymMMn+I1oHQQLz/AE2UKrHVwe350Tw4Q0GErNc0j/7D9M2OonHUZTGDPxGt+oPHeg0dBB/zl5/aYNZ1KkLEWmDT3onHUZTGDPxGsm8yWcBKUM7hxWc0zEM5xReeMC7/ALH5y5vUQDhwUw4YIhpm89OEGN70TjqMpjBn4jVTJkFLJV9ypuMzQmxxC2/Sm4zMM0faAFg+b1xzwNF1H9VwtsonHUZTGDPxGpk3SctM/UZ5TRHtZrRmkcVJ4oVCrqs1v2eY17pZzKamq4ZrhMFF2TNXQwDRaVnZWvtSOOoymMGfiKec4qQ0W9I1CQ6lTtd1MZETVhGCtetieKq5jNT3KSkFaq1Uqwu3M34Qyf5CmcdRlMYM/EUi42BZx+hCTBNTymkfVOqNQhI8tsj23GQpdl23POeZL/iZ9lV5V31Urx3lXhONallW/YWc0zG5TKmprspiL8IZP8hTOOoymMGfiKTcn1rMP2i1ZrRIU5ClI8smd0kNR2XbcerjYFnPMzSzmH6WcLeI3CqFakqqD8IZP8hTOOoymMGfiKWAhPqachqJHlU6HXcJCNasVVHsu2vLzwRe60x0GErY9rTYRHOH2g4WHXTNCVF+EMn+QpnHUZTGDPxFI4Qbqa1YqqMipcnmaNu7T3RuS6VmP6mVs4CMiJhZ7Nj/AFE5M/02a2tTKr1D8IZP8hTOOoymMGfiKRwg2jKM+X1qZoVbhPV1KQ1+UPeDWdaJabCi08DAd6tZXCamVOm/CGT/ACFM46jKYwZ+IpHCDaA3et/hWOWy5VP87zWpqe5ypyUhub8YDCllMYZPHWTOrfgrFk6v6hTNXFWU31cVYmfiKRq4KxN1Etxm7wrZN6CjUauiqqPTdZlV0JDcp0bVUu+6PHecGv6KYoF5sCLjxMAf+onq649l25RKhWrVUpazOKznW085pkVPjxG6d1LdpUpDdW5UYGP6eU2eB6KbTMQm8yCzW1MHuJyh/qs1cjqNJ7R9q9b5V63yr1vlXrfKvW+Vet8q9b5V63yr1vlXrfKvW+Vet8q9b5V63yr1vlXrfKvW+Vet8q9b5V63yr1vlXrfKvW+Vet8q9b5V63yr1vlXrfKvW+Vet8q9b5V63yr1vlXrfKqyjfKmNzkLGxzjotWzPFbMsFnM0hEHhx3OqhIcvLHWFFjo6DiMFeFTc4nGObw4lACwanjGRolzjUpN0W8lqNXRZzbeI3FzugjXsto57bHRafrcbfXIJbrI28Cs14pZrVmt1NSr1GaNlvJ84IObx3A4xn1NF3aJx3Cob73hUpDd814mFPJul2K2J4FXTkXFkgINfw47kTGU5S4q99K99K99K99K99K99K99K99K99K99K99K99K99K99K99K99K99K99K99K99K99K99K99K99K99K99K99K99K99K99K99K99K99K89LODs4RapiHbWntGXQ0Xd6onHcrN8rVW+ubw4QzeLKtVOm7CL8ORmIxjVrXMcayLIzOybVMUJN2WxaNxmed/qC1sBOw1HVSpuwi/Dfq1eBTa4GJiMddpH6UmaIoyFbeirBCqmVLZb0j+0W7lLnZabCnMPCGY46Y97g7CL8N+kDoCyGc0oPHGBiMdZN7pKWTqHVTNcJNEyp5U/QWa6nmtCzR8O/UaNIe4TCllRPuFeD7qV6z/JXrP8les/yV6z/JXrP8les/yV6z/JXrP8les/yV6z/JXrP8les/yg7CL8N9dhQP5QMRjCRe0favG+VeM8q8b5V43yrxvlXjfKvG+VtTwUsm2XcrSNfUwkK1PKVDopMbKGa4TU2aQo16I7qTR8Q/UyVvEKvcHYRfhv0paHCGa0TKDIGIxg/HVzfo/wC1oj7paTQVs+1s+1osA+J6Qr6haDgcVdlXTp4K6d4V07wrp3hXTvCuneFdO8K6d4V07wrp3hXTvCuneIOwi/CnMmQUqzgFsvWy9bL1svWy9bL1svWy9bL1svWy9bL1svWy9bL1svWy9bL1Y4fSmx04SImFse1oNAiYjGDyMm4ifRXbvCu3eFdu8K7d4V27wrt3hXbvC2JYrTf4Wi2vr8udhF+FP9osCkd0myr/AOoPFIxGPzp2EX4Und6oZjVIvattq22rbattq22rbattq22rbattq22rbattq22rbattq22oViRg9tIxGPybaHndHYRfhS+4f27m3GD6RiMfkcys3I/5FabyYaLiMFLK6Q6qbTVuLsIvwpfcP7dzbjB9IxGO4ZzjIKWSEu5VeUPlbbvKr0gtG3p8O/TbsD3R7/6X7TaFMbg7CL8KX3D+3c24wfSMRjr5mwL9vAUZgyKnxFvwwytNUc7K6Tui2G+FNozHdQi11ogcmf6bNwdhF+FL7h/bubcYPpGIx14yY42wDW2laekVsywXUcDAdDUfhjGwmf6RQblPrcnYRfhS+4f27m3GD6RiMYPx17n/AFFzYg/C8mYFv/YUGM+42KxWKxWKxWKxWKxWKxWKyDsIvwpfcP7dzbjB9IxGMH1cVYrFYrFYrFYrFYrFYrIuZ9xc6EuKA+FzFra4TG1/pSJzX9IaRr6Ivdxg7KHjUNwdhF+FL7h/bubcYPpGIx14yg4WwzmmtaeiVtTwC6N6QHQVn4bMbJs7R2j5jmj7KDRYNwdhF+FL7h/bubcYPpGIx18jYv2mw0ZATKlxNvw3NcJhTyekParjXot6lZrRuLsIvwpfcP7dzbjB9IxGO4ScJhTyZ+iq8mVsO8LS0QtG3r8Q0mg4q7C0WAfW5uwi/Cl9w/t3NuMH0jEY/Ls0aT/9Kt5wCtW1MdCqqncRqHYRfhS+4f27m3GD6RiMdZm5Os9VW8qp7vK09ILOaZj46XcbApmgHNtCDxxpuwi/Cl9w/t3NuMH0jEY6vMba6j+02/HWt6CcDlHifRSIqQzdl0JNe4DFXrvKvXeVeu8q9d5V67zB2EX4UvuH1ubcYPpGIxg8B7hX1V47yrx3lXjvKvHeVeO8q8d5V47yrx3lTcZwD3CZKk5oRZ0gw9vjjXdRA5I22iAa2vN1LsIvwpfcPrc24wfSMRjB+OrHUVGDnCyDPjlW0KxGRyjpYwDRWSg0tBOC2G+FsN8LYb4Ww3wthviDsIvwpfcPrc24wfSMRjDZHhbDfC2G+FsN8LYb4Ww3wthvhbDfC2G+EMo0Ywm0yKk55MA0KXx3Pye1xHVSc0iGg0lZxrfqHYRfhS+4fW5txg+kYjHVyKnk9JsdEfaqt4n4/WrtvjVOwi/Cl9w/t3NuMH0jEY63SaD9K7b4+NaRr6LQYAO626sFpNDlIVO6HXOwi/Cl9w/t3NuMH0jEY/J5DbPpTJmaP6b9rgeutdhF+FI9oTAmFd+1d+1d+1d+1d+1d+1d+1d+1d+1d+1d+1d+1d+1d+1d+1d+1d+1d+0BmykpFPNIxGPyYuNgReeMJ7Leq23LOGmzjCYtCa/rrHYRfhSINhWbw4HrusmiZQbSMRj8md3qg1nUoNFgi5o2TXDNY6QwW36W36W36W36W36W36W36W36W36W36g7CL8Kea4TC0XEK89K89K89K89K89K89K89K89K89K89K89K89K89K89K89K89K89K89Kt5WiKZiMYOaHVA9FteltelteltelteltelteltelXIqTtE/GsDBhPWhgNc7CL8ORmIxg/HVhrzo/6+MuZ1EQ3KmR69VOYUmHOcpm0waXsmSrsK7CuwrsK7CuwrsK7CuwrsQdhF+HIzEYwmWVq7Cu1dq7V2rtXa2AtDRKzXCH6Tvr4z+q2w20s47A9612EX4cjMRjrP3CyExas7jx+ATKnvGdkf8VpNIhJoJU8rojos1okBrXYRfhyMxGOt/VbYbYT4cfgXbedhvhVayqLsIvw5GYjGnNTVdCRsKzeHCGbKfRbcsFtu8qrKFaYmtE73VyCXJ6laqwiAFIhTCmRMFWOVjlY5WOVjlY5WOVjlY5WOVjlY5WOVjlY5WOVjlY5WOVjlY5WOVjlY5WOVjlY5WOVjlY5WOVjlY5WOWY0H7iKVsZ0ZutFlOYMis121/veeyqVqsVir3iZjMcsPR1YUipjkoaLSg0cNR2UxR/aLI6LSVZ7Wk2Mws7jx3jtSkd7t5LIRtjmuVYmOqkVMcjk0TU7XU64VUZcXRmdkKTRIRz2CvpHN4O3bsu2okd0meW1wqoV5MLYqxWx7V37V37V37V37V37Wx7Wx7Wx7Wx7Wx7Wx7Wx7Wx7Wx7Wx7Wx7Wx7Wx7Wx7Wx7Wx7Wx7Wx7Wx7Wx7Wx7Wx7Wx7Wx7Wx7Wx7Wx7V2FICVPvCVIDoIhvSiehrgHdDuvZdo1wqoyO5TUypmMuSypz5Z31X1BuNJuG7S32ZVUK+UT1VhhKDsFeO8pgOUdtDjTP/I7yrx3mm8B7reqvHeUwnpSIa8gK8d5TSTM6itVKYUypqdNruoiHeaJPCwQa3qd/s3GcJxkOauwhk/yFM46h+MGfiKRg2n3U6HbUd21x/abQptM4VrMyf2Y5/Bu8So9o9tfXzSqm7CGT/IUzjqH4wZ+IpGDdX21UxsmMwZK8K0nExDRaVmje+i7R7bj2jIc3dhDJ/kKZx1D8YM/EUjBtORj21ea6xdW9aUmia6u67tOl2j23CyPblnfWuwhk/yFM46h+MGfiKRg2jZGR1826Kqk5bBWzJabvCk0S3iYp9twq5j31hHF1UG9q6Zx1D8YM/EUjBtDoq+XzUxR7fA+6rXbUS2ndAs50DlDxspnHUPxgz8RSMG0reX1KYh2Xb4LWKeka+ikNFvaMzUz/akKZx1D8YM/EUjBtGa7cwqVnwObnALRBcrr2q8n7W1mnvRm8yUsnojqq4SaJqeU0j01Jx1D8YM/EUjBtHt80zMnW7r0U3GZo1Vt6KbfCmTIKWSH2VNxmYSAmp5Uy7BSaJDVHGnm5Lypm0wAdpNWc0zFEwb84/TZtG3UZzVN5jN+iFJg1hxpfpjjbR/abaP1AfNy48EXG0wkBMlTytZ6KpjfCrYPpZza20J2N6lVCZ6nXHGk894B0tIqThNFvSDT2oNf9KZWa6pp+bhv/Yx/UNpsokcOEAVPXnGk8d4DqLVMmQTndYMHagWlZrqiIZr9n/SmPmrMItHQUWGLPx12k4BGGi8Gh+qPuEwZLScTiYAcONLo7qs1wkYStb0Wc0zHzRhiw9qLWdIsHbWZzipN0RRkdId1NphIqeTrHRVwskOpWa2nI+VJ0JiziFnN+Zz/AOtccxx0T6oZzkXG0wa3qdYXFZ58dKec1ZwjWAVU0D61Wa4LtwMM5qziZdl/xiWK2yttSyg+wpgzHy4t4cIytHQqthWgzypvM4/qHjZrM0bLYTCnY3qq5lVTCna3rGX9LrdfIiYUxW2n+3iFMWH5bLjwKzXCunnO2P8Aesc7oI/tFtGY2TFrtwIZZCTVpTK0DIrNcK4HJnEfLpOCm3TCrjotJU8rX21uJjPqaJ7ROO4E9YDvXEP4iDfmGk0HFXYVWTb41/3GXQ0T3ify3CUG4Sjm9TBn8Aub2jI7LqOa3ZbFo3A9HVw6tPBbY+1tTwWcYF/T+Auxsjmu0mralitqeCk3RapiA6C3cZceCkRI0c1qDRw/gLNP0s11tOTB9KXHjuVdvVWZw7KtVAlaWiFJo/gSTvK6jqKNQkOpVVvX+Hq2D6W05bTlUzz/AOk2mfhEypn5dUrVWqlZy8qtTPKLVXCzmEty7QtVnMLeU9oWqyFa7crmVVCamNx7U+3LJx78m7LtS7ctkqtx7antyqyjbyTsu2o7comaEiqtw7avtyiuh25L2XbVduTVrspxluMuZTtUzymXMat2nqalZDtyWuNfKJ6qyHbkda7UJDe+3KJqZU+Zdo9uSdoyCkN5sh25RXy2VGyHaPbksiu0JDdZKRo9uVduZdo9uScYyKl8H7cz7ckqVfz3tyQ8grXblEuZ1w7cokN9s5VPmVn/AJa//8QAMBAAAQIDBgYDAQEBAQADAQAAAQARITFRECBBYXGhUIGRsfDxMEDRYMFw4YCQoLD/2gAIAQEAAT8h/wDn2SBM/wDIycl/5sJYErFRi/8AC5pIomn81JYh5IJn/Cz5BGJsMVOAgEUxTgxAFsVrIEGSJAmmHEcPGLDBeVVGSARPwYjrom4giwkCZU/suS3IAHpjkiJL9c1kEA3BSYsJ9lRMnHAHRNGBYqNUrAZkCxdyPDCWDlayLDDBa9CoEkA0uCnDhinaAJyJIVVIgMioM01AUTwM/r1GSdMBwpGLwoiI+BQLH4ITFpuylUQDWEDMIACSIcKaAWLHlwqSnErTCqCORmgWLuqn8NwWgSrYSsewUkRiJroBE8DP6sUiC2COEUCSIGUGRwkXyKBAkAf+IBhwMmLCfZcwgGF4hwp1U7FurhMwJkhJEPaeUSxRDhkXaMCIQ080AxuBvhlVcjNAMGF4jETXSCDoGB+nnkmUgogmo3QLiCAFwCME3VANwMmLCfZSqIBkSwdNMgMkyp6qhHVAstIcKfg6BILuR4MSwdNpUWJAUDydkXkQEHE1ynNAMOBnBhisikiWTFNmQXkKeZEXCMRNdIIngZj6M2n3YRGBgmJmog590yWfbghMFQmgGsm6lwzKzuEOFOKY4MC5zgqj/wCkDPgFM4KB5Oywtz4JME5ClZFquCRhhcDBMI4voRxMESahGIBERReVUwazVFDcEwHNdwv0+wkCZWUTvDqRk3ghLByoskWOlUBBMl5VTAQkX+EABLgncFMFk+7NqsJAmVlE7mEqqeQfPMfDBbe6x0dS80RkJlUCaAbgpDhkYlQgXANkBIuRMERlN2QEZphRShMgG4IMSWC6QhGJSHRjApIAbgoQcTCOFghwyKGdyelPIOZQFIJlFPcUvmGPBNEDkNUTCGiMADRE+EkYAf8A8QDcGMA6MMxQDBrCH1XKTKrnFi08SAawxMmgG4JGJ2TAozxCoqomQl4BMYHjVANwbeRmLREXmQGUinFVFDqWTmUAwawlyw5lAMGHz5C1gLiE2kVAVQJoBteDg5BTAjBAuHuZToifGSAZYTgJoAOCuE0KKWhCmjMTRGAspVEA3B5QaFGFC4QDMLKKgSxKAaycAgGDD5iSa6BOZO6RQqkiHTvUTEGE+6AbhJDnHMWALi0lg6BhYTgJoBuCEqkck9kYBmiMRPuoDCYQoQDcJpTypck1QDCwlyw5lAMPmJ/AUpB2KwizNYgn3XQ7Ih0A3CyHOOYXMQLhxZPswJkA3AyWmiST2CFAJYlAgmhQNHDshgPtEncFigG4XSU8qWzarCXLDmUAwYfNKsdVLU907AOi+BiRw5nOOYXhVAuES8HNE4JoBuCThYiJlAMGCwnNZQShPm+nDqU8qWGKEgncsOal889TFMQX6FEYyyUoBANw8gguOYUZd4pxJQG4Lg1UbOqwJEHKMEJ1OyAbh/lRNoap5JKoBgw+iHJ2Q0kCzAIlANrxEgZgcHIcMVEmeOBqiBKqeACfZANxHIH1Mu6Ab+aIcMU/I5lAN/8AwKCQDksBiUUKgUYoLIzxedHoPnUHEGcCoV1i/wCOYvRFMZClVreBILgsQnoJ3uv/ABspoi6m3KfQCCOdQCcRCpPcI7YRzFf+MskWY2o2tSZqkmkQ72nIBX/0jMTEYiwr7EeR/wAZYryfHW0JDQH3Qg0BjqLXkmEn/jG+WsLUmdrrc78/CrTg5qIgFShpjAZPX+JA/wDD3a0HX1a4DHDLC6IZsDnjYRgclZKwunsQoVCjx4WyBYuEzXE8QgSTgsQixcMj/wAOVaI6kQQWIYiwV0iKhBWrOYslEo/GNMZIS5coAkwU22urxzPwX+2OAc0JqL6FDFEREBgmk1dcIEsA4/4cUuWuBraCQXBYoKw5hdC2HUMFgBJgiQB1DVDwRAi86PP/AEsEAYVrMCslUQ1xPEJ0f/hw7GCUCCiYOVjdAEmCJAHUNbDOrkQFw4ukPyNhRkjmEwnYPmOFEMRyS5KmNiwQBVD/AIgRIDyJKRlqxR/zTL/ZgTZgAc0o0wqMboZLBvY4HxdN0LQhENFhAJg3DEEcbv8ALKaIHPSGJhpCov8ApRKLFBRoacTA/wDBRFIGJ+LOVA6Xm1FwCYQiAkNObD6ZDsHzHISGZF4Ykaq7f3kkfZwhxiFL4GEMChAL+82eQp8pnZttjYASQAHJQyJznyKhs4ZvRwcimU7AWLhcr2r+6mcJ5iJnRTlYASYI6TFefJYBYG7uSE7+82eQp8psBswhzyargzsYDLNJEH+6O4wwHKwI4Csgi8Y4kWCP1LI3dyQnf3mzylPlBjzCwdSANwJxMWwYuQ/uIjJqpjsWCJSiIZGAEgEC+YgaGwgrATvd3JCd/cbPKU+Rg3uKGSwBo42FCxygGSAgiUsL9EMSp6pdLDlMjTiLh2f+GIATsLiJRZPeN0HgDiRiEFuIwBWCgMRu7khO/vNnlKfEVBAxKG4aRyaTE3HAHJErOpidNrE2D0rFQIYTAYcQJrD2P/CEspRRjCwhI6c5G6cjYgwmlbu5ITv7jZ5SnwvOhCQTgdGASFrS9TxIZwS/ae5FDgbgVCxnJMYjzDxAllEH9Vin6RiYRKf2IAdUQEyszh8SODFgmeMCJ0JAJgFR1hDmYLIqJGCGCgxIZXt6Qnf3GzylL8GoYDEp5NksdbYohmABbTIQHAhHHGtKPA3MfiIAnXJ0TGkGCIJlADI8PEYuSqSwUYnaiJj/AECYs9KVRNSRJSsgQkfRaBeVOGEstQQZp2THdT5C3de1nlq39yQnf3GzylLxiWA5RlJ6AscFLsm5qngUgwulyYSxWSQ0KjyKBDE0UICGQPYHhhLFU3omhhgp8qKPlH6BMWE+ylUQDXaSnlT6bCY90RBjxki8Bq/wvZ0ehlFBLMfGSEgzYj6JLKVREhkooWTwoiI4ndAuHs3XtZ5at/ckJ39xs8pS8QJZDsGEQkJBgwF6gSxK2FK4Q4U/B0C0D14USy8KJ0yIIOhmgWLHkVll85MWE+y5hANfpKeVPo+dRii00m17mkYCpfQ5HzkgTKLi/QoPApj/AIJwxKGJckHOBAW7r2s8tW/uSE7+42eUpehNEWAFiMT2vUCWJXsQDBheIcKaAZDyPCSRMcdkDsRgukItAiC1CIDboBg3ykxYT7KVRAMiWDpjQysUMzJyBncpKeVPnk/h1RCXtIwErgoLs0ajvURaAy5BUIhLgcfKSylUUBQnAxxFVQKYQ4cllLC5uvazyVb+9ITv7jZ5Sl7bLO77m6cOGKyCAaSJZOM3SxNMPkUC4tIcKfg6Dgu5HgxLBReLJyI6hAzYY5IuYEBIMmlkQDBh8pMFIAJlANZPRc2LshFFK+YxEMA5lomJz5+ZQABgGAwsPxiTBUhxTFohtVo+V2JxYLqYBSOViHBz7qcZXd17WeCrf3pCd/cbPKUvbZZ3fc3MAqsilZFcSdW4Q4Ri7gwIiSkp7AQg5OKYYiaB5MclPe+hExGC3FrcMipGiIzFMz6WA8xS+bUyOkLHakUdEAAAAYC4MtwMUWfjCxl4CfHT4yWWYmmERRF3ARQBJ6AQjQQi/AQvbr2s8FW/uSE7+42eUpe2yzu+5uTHJS1WGSkXJedhFivBk+GVVMsJD4iTCekSCkfkEVMPIIiwAaQfXJYJimW0RDEGLNQOS7IYksAgiaSETQDS+gMUkWSym5uInU7IBYJwE0A3z7r3sZzl5sD5YAzJmmQIRIGBO5nh3VAlf3Xss90U1NLO/PqbBB+bpfntPgs90XjKXiGCkWe6IGdz73CHDIxdiLYLgxZRO5hzKAAkLHcsOZUvgelHAJlESLqjM+vJYfsz+qPLBNNAKLNRCQRiWU0AMGH0XY6kAwawhwnMwcVsUcjqRYRxIBrCcBNAN9DPbejZRso6IAiOCHBuSjV0abDE2Z4H+P8AfiAAuYupbBUwCMg5ryqgASA9uDkxIIKrSH1UEjZ2Bxk5qcHMoBrCXLDmUAwYfAScsVKKjuW18cYEim3gMKH0iWDppn0QAJiEiIQxAc1QJVQEjnVAMGH0gHrBOQM7pMcTsgGWE4Cf0gZgh6rWYTAOITEGxmWsUSJlWijkdr4iJLyKd6iLg9ioCqBKqAYMLhFitCC9LXpa9LXpa9LXoa9DXoa9DXoa9DXoa9DXoa9DXoa9DXoa9DXoa9DXoa9DXoa9DXoa9TXqa9TXqa9TXqa9TXqaYsSaNRgEZAuLjCiOASxKAawxgOqAYMPhfyYQtDAtA4lAou1JB94kYEIZjEWnxXDR9Nwm5KA5jZOXlEIgRKaAGDD6ZGImughAvOdzGrYTgJoBvpB8gshAxEjUWkH1UoTbQTkTUntFwgMaQQymAwF8lkxwOo06kGTlngiHXMIOePOtxtMCJEhpiZ4LM1jOVkgAuLYEAYNYS5YcypfDV6BraF8XiHNSuBABp2RteqYDuXzksi5rywTmpMA9aojETUtCNkAS8WqgGDD6pGImughE8DO2XojEyaAb6kiA8lQuKHA3nXAYknAIHHqcTfJZCLuVE4AECXbkZYgn3XQRAN0pzYOpx4OGyMQgHTgH1QLi5EuWHMoBgw+JoFQFo6ol0L3MLTg0/wA/MSyiXkEDDCQiaRWIJYhYG9U5IsgGDD65GImukEMBgUS8PRSQA31mYaRRY9XR1WCBqj0iLVxcuRZyEaECCHEjfwIYMkJQRw5qOTDVAOe5u5EB0SSSTM2HAsg5Ys551Wc86rOedVnPOqznnVZzzqs551Wc86rOedVnPOqznnVZzzqs551Wc86rOedVmPOqzHnVZjzqsx51WY86rMedVmPOqzHnVZjzqsx51WYXOLnPOqznnVZzzqs4ucXOLnVmujGDNaQkmzghEec0CDJFzZJwCAYMPjcNQNoCY7sCqYFrR6/5+aYL/NmE5p2ECEeZz9ojETRwLaoGDCgG+3MMVzRaLGQjjNML8j0KpUEiycLuSoEr28W7VwPfjvbuCZi46IunNPJAKoBh8j9FkAibdJBACI4MiLSWDlAGahmbXLmznn82DVYXVNIZs0EhLmHMoBgw4y1iq6WOYvgwOTssAzUYEsTf3i3avvEAcgAMSiYx5UU1k5G3fjvbuHzD3bNEyn/W8bvWiIBG9HQaA+iH9IxtYnGL+PnIeaYg9iiBIY0TvBzKAYMONBRcDFYgHrYAMMwyfBrICAYNf3i3avvHkQQVzsBWRG6wjERQ2b8d7dw+RpAM0+hzk0REJGZNjptAJyAlBwDQ1vgbonZCvNNT9Ahwye84boBgw45N1PFFhBEIIkQhIO6pCYD8MV6QvSF6QvSF6QvSF6QvSF6QvSF6QvWLN4t2r7r4M3t0TjuUWeErH5cnQWb8d7dwsIiQTBFejr0Vejr0dejr0dEf51VrI6Hd1ERE5PETMWKAgEjIBNpcpNNIBZCydkbPI5oggsQxuMhHPm6LnrHE/wAg/IaquiIJEAxGBuMxY/EJ2bxbtX3ZpvokSsA3AgisJmps34727h8jTQRB7gh7NmqZvdfwhYpGhIPEdSUdJVaP8mH7aKjQ2kBU7NpFAFx2Re9r3te9r3te927172ve172g/Yt4t2q+VBAmSooLPSD9XpB+r0g/V6Qfq9IP1ekH6vSD9XpB+r0g/V6Qfq9IP1esH6vWD9XrB+r1g/V6wfq9YP1esH6ijHNFGABysOAiYFOyDQk2tBt34727hYZkICL61rWt5xT/AGQFggZCpcZkT/XbxbsV4kASSwE1NjG/9ECCOgaIgkx+k47lAZ4PDrEImKG9vx3t3D+63i3YrxGVFgLYBZ3OC6YJwXkFeQV5BXkFeAV5BXgFeAV4BXgFeAV4BXgFeAV4BXgFeIU7ZDYVsO2FA3t+O9u4f00ZlgQQ4L/T3i3Yr03RZN1fT8PKzYi9vx3t3D+jAQgAEyVFIOR2RJ9TNhpzOZkaAslMIceF9HeLdivTdFk3V9Px8rNiL2/He3cPoHgAMSijAOYoEKcJAgXAZ1IzHlFRwYJlP+OKcsWOa75+Jp/xKgAyOCHB+hvFuxXpuiybq+n5+VmxF7fjvbuHznJmA5Ke0gtBCxngUzFihk4EiEHDQg/jDFk0HYASAAclA4HOQIBDBijEPIWCCHRAiYjGwhJHa+hvFuxXpuiybq+n5+VmxF7fjvbuHz6jOiwHDomh0gmJHqSFHLvpKkWKOf8AxgRdY2MuxhrcBCETF/n0BOzeLdivTNFk3V9Pz8rNiL2/He3cPosOCi9oBTEQ1UrGeBUQaELMwA/xZaFiLAmMm4KpewATIOs/0Wb6LNdFnuiz3RZros90We6LPdFnuiz3RZ7os10Qfm6WbxbsV6Zosm6vp+flZsRe3o727xYZFciznRZzos50Wc6LOdFnOiznRZzos50Wc6LOdFnOiIImGsFGxdloCmAhrYMbQVkYG/izHA5ejGwZMwoGgYhY6WFUXCMypuGClhwL6E3i3Yr0zRZN1fT8/KzYi9vx3t3j52aRh0WDzAEBRYkHCFuCyopMlYOO38Yk4FFKOLH2WgIYN0tBEMdAIZbAYfQ3i3Yr0zRZN1fT8/KzYi9vx3t3j5yMTlAhV/dAGfEgg46MX8aZhEmCiJfp4P1EiYCDQ2mgRNIj0QQyqcT9HeLdivTNFk3V9Pz8rNiL25He3ePoE4hMCjYtB5uRDoSxuZE3ZnRKaARTKZ/kBjaedR19ZsfTbxbsV6Zosm6vp+flZsRe3I727x/XSVoYakblNAJguCdHYHrKwmJvwbxbsV6Zosn6vp+flZsRe3I72758hQsY+AI90YLIu4CHgP8AagB0fzrUT9REMRyYkmxsbDpMiW4N/fLdmvTtFk/V9Pz8rNiL25He3fPjOIjTshdKNzgh/v8AOkOD3HqwQEAFgKZANBCJQsBwKWZPqCexr2Nexr2NBz/XZvFu1Xp2iyfr+n5+VmxF7cjvbvlgsIIAE9uXty9uXty9uXty9uXtydROpNg88WHwCdpZtEIp4u6dhDs4P5w4wzPQ/wDtg5AB2pYW4AMxW+J2bxbt16dosna/p+flZsRe3I72758rNGYLCJADksFkkBY3jR+v84QrX5pa5ZoJ2ARcMAgvIIkzFeir0Veir0VeqWb5btV6dosna/p+flZtRe3I7275YTHJzUp6wvWF6wvWF6wvWF6QvSEMAYAgAFjmNQJpApZjhTNAgAAIAfzrw2C0EfycxYQbNMEOm2OA0+DfLdqvTtFk7X9Pz8rNqL25He3fPjAYDgwIRAI0MQiGLGw9FaqSaUR8z+fAsAIoUwXj6UAwYfDvlu1Xp2iydq+q+1F7cjvbvny7i6FHCEv5lxZQJlF7gCgC4F0oUShWUCo+fNW+W7denaLJ2r6bWzCtEEmK2ovbkd7d8/pxzMEP9I5OJMmxiBiDMJiIiDIoEguCxRWHg+Ub5bt14rfECnHcpuhRiJOs6udXOrnVzq5lcyuZXMrmVzK5lcyuZXMrmVzK5lW3bJ5ugQR0DREI2Qvbkd7d8/ppTA5U6Uulm+D/AIg1F7kjMnQEJiIiDIoTMxHBWQiOvyb5btV4ZTgYp8x9WAYwkggOLmZOd7ci3fP6bUAWNGJBRYDAWhIwATEREGRUyEdmFeUV5RXlFeUV5RXlFeUV4BXgFZbps3y3ar5AGTAoo+TmKz6Z9M+mbTMpm0zaZtM2mbTMpmUzaZlMymZTNpmUdxYyDIfLJmTM39yO9u+WMSmAgWR6FkehZHoWR6FkehZHoWR6FkehHt2FvTS/mniNE2ClaDrC4AwGECmITBmPjE7N8t27ge5Fu+fLUcA5ICCHEv4IKAuPqt9OBqiGLGdjSRg+SArBhV0fgYLRARyZyOTYaBRUV7Yr2xXtivaFe0K9oV7Qr2hXtCvYGzfLdu4HuRbulhuMSmV7QrJdSsl1KyXUrJdSsl1Kjybr3xU1OoEZsjZFCI20/gSWInFAw+sUw6UYGt44w1f8fLvlu3cD3It3T4BAEY2CQANgYFX8JmLFDJmCIKCAyBQ8fJYgPCSGiPrkAhiHBTpJOb/E3jOYsexaAOjgNkZlAwEgB8u+W7dwPcjvbul9iAmpak7oGXIcdia2FBiwBAgAQXB48ImaLNgqjJTlvsCAQxDqI+1QBgAGXyZDrSEBkYFDanFJEETBFm2cD3ot3S/LUUDB000HR01pyNwMQjAsxVFjCgyY4LEHQT/7F3ol0YYI1ECnY+cRiPtuMnMp6QUAKbrom6fYJYmKZZFmbuoYUcgO/BncwlVZQKh1okIeZiCdMEssIJSA2LTXpx+r04/V6cfq9OP1enH6vTj9Xpx+r14/V68fq9eP1evH6vXj9Xrx+r14/V68fq9eP1evH6vXj9Xrx+r14/V68fq9eP1enH6vTj9Xpx+r04/V6cfq9OP1enH6vTj9Xpx+r04/V6cfq9OP1M1gS5NojnEk3WICab1IFnpjkmDuhE7DC6SkaZzpfHTgYhCCAB+y8qpzMYVTDJ2qJKexOcOpPgCckxlX6xLEB4SUYnaliIjEUB8giJd8OCUCVVkFK4/APIKboYFZY7cFFHEQpYBrjEBNS1JUREnkoGKqEexEeE0C4e0kAOZBEIQcALW8ZyQKJQgJytURtEzMRIoAtAM/r7O68q3SHFgMB5H6hIE0QDEUKEg+06TwREFo8k0UbKMPUgAJcDoEqr2IBgwsyFpiLQ0WjpGSboYFZY4G9+SdaLM0uEAiYuIHPFQFAF3TAVRMgfSlyEaHK0kknZ5JjwGAtImQzDG2NqHP63hVeVbcwXCHDGwBkPI/SJYm85IOLMycR5ZJyBQrlVEZyOSAYMOBmJgYYrIIBgwRLLOdMojWZE8DMWEOGKJvyMFJ7hNGk5v1eIl4iXiJeIl4iXjJeMl4yXjJeMl4yXjJecl5yXnJecl5yXnJecl5yXnJecl5yXlJeUl5SXlJeUl5SXlJeUl5SRJxzCSmQgoBcYgJphnJUAQnAwbqCgcQCbypdfw9qIHgjrdCEKCzJoP1ZvDryrYTgJpuYplFBOyBcWkOLAOTEuMPokgORC6GAQ8MEw4Eapg67IsQNnwSTVUCClYIknlcg0XRM6EhwUGKETupZkpIzKhAQmIJafdRIGQF6ZosZGky8zMtyNPpxEIYmwxtketwwA1uGIijLWHzkgHKb8UxB4NFLQhAE/4U0JVRiApPgsr0KMAwWy3J9hHXSyPgkpwSxsIkAsQdljgAICNV8EQnJHv4GEBABY8RKHJFzyvMMIIA2OJmI8TrfYgJpgnfVNNJRF6ikgROBCJowvtYRi0AoxbqutXJYZUA+oZCpa7DIqRcwa2NwjotZbVM+A3+YkCagHJYICY8gsVSqqieDwxU+4gGEODARBRBpZLVcMS3VEuYSxKAaVjvAc1Kze+1nkq396Qnf3uzylL2yFnd97xAFniiaaYimsBQ0FBx4YLyr8DmQMBbWaBrv/FhIByAAxKGYkDauJf+n1CHDIl342wdlyeQLyrb5V+cRIzBNMJYosJUGRUCSgwASmgGlwYwCMGVtIcLmBNoeicpBtVOEmJQDWEuWHMoBgwt3vtZ5Kt/ekJ39zs8pS9shZ3fe6XaE0BCrzQijyKMg5oyOqjJAHPiQ0p5ZWupFUFAQZG4IbRAugZ5xqfqxwFpDpwmHzCbQ9FyCAeA/wDVvlX5iWmneSIGYeyBgWiKJyB92ADDg5iFgSITkDA3TEwliUA1hcwHMoBgwub32s8lW/vyE7+92eUpe2Qs7vvccCwiY41QjURfFoSgQC8q/GTgck6hk/q868Sfsyf1QPAsAXh5Vt8q/MSwU2fZPeTVCKTZVUAsmBYJIBhDhJGImugETznaSwJQMFjuWHMqV3e+1nkK396Qnf3OzylL2yFnd97WICaDowOZxXkSmNOyIdTRiHPyzDFF3CeUlJ2gbC/3YhY/LVl8PrkMXCnUQLi3et8q/MSwdRLPssoAMVmOEQAUSz7qYQDS4WRiJroBAvDGybohJEuWHMoBgwvPqwA72a3O5X96Qnf3OzylL2yFnd97CWQi5eGJqokDgtFQpyImiaGHZEAz4YQQWcwpoBeyXnZ5V+eYpz1VOIRACKcAYsO6Yks758OIxE10AgMoCnJw5qqcAgGDC84AUBMWOApYQSp0X9+Qnf3OzylL2yFnd97AiOiikFw4RM2qjoQDl/Dw4ho9CnUWc2qq9l5V+gDkEGGPPJEDqg8xLgVRLlhzKAYMOHkYiazHROZAwUrozkAmnEuVMedoaMgmUAIDAQAv78hO/udnlKXtkLO772YDRHh0zRCbkaLETXhXiBBmjMS6KMwYfSciJpjA/iDyHPJAMGHDW8nMo+2bSCJ4ePJYjGiQTQQqdxt0O6cR5iaJJORJOJse/JMx8hJAAGAYD4N+Qnf3OzylL22Fnd97QaOHZEuyuK8q/wAMQM0AwYcNGRYxMCHJpMTdJMWZT1tcQRwEDEoAd4o5NJibHwiOATA0c5NP0B8W9ITuyiU+MHP/AIjk7xCbAATEMwgB0XdsLO/7/wBxGeoEVB8A8dj3UfmgwFk0w/6ZULGpxPyb8hO6QR5H02kETDWECCYrfq6DFmFgiGhI3/t5BwujEuRzYDnSACFiZQwCDsFyIDBGsCDEnfFxhAKI58w2/ITumMVCwwnCck4JrcOyMTxWENzIPcNRTKBgd0ErGxP9uweZytCzdsLhAAghwZhMzPHRZjYxdEABIiHz78hO6cpXYbwYDAjkYEyU0sihYchNlzHb2R+CQaw7Dk4SgBEcGR/tShZrQhcAXQ1bkWk58nzdL4lECQYlYrpNPG4dgISsvxFUFl3VywjRDHRee8mSETAsfhyzo0Q8AT+05HItzViuiI2BzblqPyQah3T1yOd1sLlzdVG2qMRYRAcGYR0iPXBEEmAg52EEzqMNb8iJEqEw7Q4GybEuYnyain9m4gIlaHD0o1XDgmgqpxZYXVTT5JVYkKpwF8ASse6F+eKG3esCKvp3xDN0OyjmJ2ACVj3TMZiZIksEKzKacqCxkdQ6eMGgXGJiP60gAQYgo+oCqLR7SFjOHORdFBmcyT2pWvA4w6PkdCYA1QJJwiAR1BRQZrEEiPqyFRH1QHpmFpwEcD5xO+JhF49Wl+pCQFHcDj+tf+A8hHbYL4yNgQAAMIAfHy5NbZ5V/CAAAAMBhaQCGMQoc0csrXGmRHX5yADEOCpHyxj2pMgo8F1ZPQ9IxCPmAWFLqX9cckY4hOvJZ9EQSYGNDa1FBUGB0yQAAYBh8jyKAtFXmN1/Vg2vAof0HVxPYEloi60OKLHSzXpb+w2wTom/OyQAADD5niNANoAVQ/26y6gLRY1f8D6DiWBawRYw2LRgxWTAzf8A4DXowa2hcWgHK6MRnxKm1y5s5+g6GwFh3DEIGcC1MnAw6RqVmgpYQmyBhr/wJ7YY9oeAMdQg+0CF7QJyH3CiAR1BSwoDY30QqDEkRnAmDdAwRONFJD/4EJJmKhRyBgvAkFwgFwT0IJGJRKp+lBBsIqWZxCDAQc0abTAiIPPTUGapxP8AwRqEcAmFHSLuHX6DJmi5TKZ/49i8rAiZA5hAMycwouAmsX/78SEyd5fw7BZkCAcfzJLTRMTipT/DEsjNA0X8wSwcoDIYBACSWh/DEsuYQg8L+Z2FM2AWzupiJgfScnJVN6lDAGWUSnYo7y4cEOxdFgEzgeDOTKSZUJaBZQSnYs4YSwcpzkw1TkSRxCYRIxLIVUvox8oqgQCyEnIm7ROUg2qeZEKURJAuH4WS2qcZlyRcTRqgQhi0y78G8qqMsBVZSTnHoTlINqnDAyqHJwolg5QGQwCcoyd0ZilBjMIjMIF/oeVVkle8qKoSQLy4SSyxFNMSHJb/ABVKKcQUgPkEZIjhwU8q3vKirEuEksMc1AWPNUbp0GiMCDwBgUA3z+VVQJWEgTWYgQZXPKilES4QSAiXESQdA+0MLwosocKAgRocE8KryrYSBMrOQAyNzyoqhJO8uCksHKbIYBAwEzMBjggX1QABYnjVQzMgG+fyqtlhOAmgIjM1sIHWqIyM7nlRVCWPBiW1UjzIEuxDKAyLZYJyfteVETRbgnlVeVbCcBNABOJsIaFA4Gdzyop3EjwU8rBVIIlHpFEETaIlsEe30JWqjO1ESbkr0uiBUQkOCEgTTsQf+F1MAqjNZgyMWRTFAy78EwipRioxtic3MBpdx8DJYOVGIwFFAOxGARhgozhhRGABgUYgPoyvRQEYbZbk+zKdP71GYMFNwQSygIzKEQVSBCAM5lM+AVCQ4LhNEYGjG/T7MgJT+xZoBeFeBzypLwqsTSdYjUosAWUkAN9ITDBS9LOgbkzkF5Vt2cEJAmnY4nQHhJSGpSPVA0CapEuD4qKQ9LOgbk2QU/h7fKvA544YIgCBj2ImQwYNLAg/UQDfSMAjABWFxpERRZlRZKgf+racOCgsTiTMXHMIn1qTLFbO6kEYY8HJiKIhtEPNUIhZlRTgEA8B/wCrfKvBCBQPhNEMb0QLGIjRSqIBvqTDpoRYne75Vt2cEITFMZ3DLQK8qIJtIzWAetVQJcIIcMhAxmEDgZ3fKtvlXgRLByo/hMRCDRAkV0KgCkiBooBvqkOqDAhFgZ2kxFAMALNnBCWQBJfdPfA5smJYP3QLheVEwJThRDymqDAhA4GdsxCAs8q8DMXYLKKpTgZGqiH1QLu4oiHCAb65D6qgwKBixnZESElt4ISwUe4V0BRF3JCIBCLk+PfhpDxxXQQgcDOyesF5V4JTJ1MVMdEQMOZUU2f7RD6qRjNYXUonTuVGHBqYhHCoIREwOWTOyxPDnIia6CFCmYMF5V4JMZEH1RicQKcbEwCJ1OyAb7ZDpwq0VSA4MQ4ZAsY88kQJkB9ioEuIF2qfEjGaApwbEHMKBEwqgSzCfZAN/Cg8poFoAckHIbDE/wA0aSzoBv4ckLkf/Sx//9oADAMBAAIAAwAAABAAAAAAAAAAAAAAAAAAAAAAAAAAAAAAAAAAAAAAAAAAAAAAAAAAAAAAAAAAAAAAAAAAAAAAAAAAAAAAAAAAAAAAAAAAAAAAAAAAAAAAAAAAAAAAAAAAAAAAAAAAAAAAAAAAAAAAAAAAgAAAAAAAAAAAAAAAAAAAAAAAAAAAAAAAAABywAAAAAAAAAAAAAAAAAAAAAAAAAAAAAAAAAAAAAAAAAAAAgQAAAAAAAAAAAAAAAAAAAAAAAAAAAAAAAAAjRQAAAAAAAAAAAAAAAAABSzggAAAAAAAAAAAAAAAAAAAAAxTQAAAAAAAAAAAAAAAAAAzxQgAAAAAAAAABDDiAAAAAAAAAAAAAAAAAASACCAgAAAAAAAAAAAAAAAAAABRABAAAAAAAAAAAAAAAAAAzhCDQAAAAAAAABTySgAAAAAAAAAAAAAAAAAyBDAgDAgAAAAAAAAAAAAAAAABQCxAAAAAAAAAAAAAAAAABRxCCgBQAAAAAABTjACAAAAAAAAAAAAAAAAAAAAAAAAAAAAAAAAAAAAAAAAABDzhgAAAAAAAAAAAAAAAAACRSgARSwAAAAAABBCQAAAAAAAAAAAAAAAAAADSDRAAwAAAAAAAAAAAAAAAABCwhgAAAAAAAAAAAAAAAAAABQgBRhyAAAAABhQxgAAAAAAAAAAAAAAAAAAABCwBRAAAAAAAAAAAAAAAAABiwBAAAAAAAAAAAAAAAAAAAACTQhByAAAAAABwCAAAAAAAAAAAAAAAAAAAAAABCwAAAAAAAAAAAAAAAAAACRTAAAAAAAAAAAAAAAAAAAAAACTCSAAAAAAABDCAAAAAAAAAAAAAAAAAAAAAAABCAAAAAAAAAAAAAAAAAADTgAAAAAAAAAAAAAAAAAAAAAAABCAAAAAAAAAAAAAAAAAAAAAAAAAAAAAAAAAAAAAAAAAAAAAAAAAAAAAAAAAAAAAAAAAAAAAAAAAAAAAAAAAAAAAAAAAAAAAAAAAAAAAAAAAAAAAAAAAAAAAAAAAAAAAAAAAAAAAAAAAAAAAAAAAAAAAAAAAAAAAAAAAAAAAAAAAAAAAAAAAAAAAAAAAAAAAAAAAAAAAAAAAAAAAAAAAAAAAAAAAAAAAAAAAAAAAAAAAAAAAAAAAAAAAAAAAAAAAAAAAAAAAAAAAAAAAAAAAAAAAAAAAAAAAAAAAAAAAAAAAAAAAAAAAAAAAAAAAAAAAAAAAAAAAAAAAAAAAAAAAAAAAAAAAAAAAAAAAAAAAAAAAAAAAAAAAAAAAAAAAAAAAAAAAAAAAAAAAAAAAAAAAAAAAAAAAAAAAAAAAAAAAAAAAAAAAAAAAAAAAAAAAAAAAAAAAAAAAAAAAAAAAAAAAAAAAAAAAAAAAAAAAAAAAAAAAAAAAAAAAAAAAAAAAAAAAAAAAAAAAAAAAAAAAAAAAAAAcqI8EAAAAAAAAAAAAAAAAAAAAAAAAAAAAAAAAAAAAAAAAAAAAAAAAAAAAAAAAAAAAAAAAAAAAAAAAAAAAAsaMEokAAAAAAAAAAAAAAAAAAAAAAAAAAAAAAAAAAAAAAAAAAAAAAAAAAAAAAAAAAAAAAAAAAAAAAAAAAACt0AAMkAAcUEAAAAAAAAAAAAAAAAAAAAAAAAAAAAAAAAAAAAAAAAAAAAAAAAAAAAAAAAAAAAAAAAAAAAAABO8gxbIABjXAoAAAAAAAAAAAAAAAAAAAAAAAAAAAAAAAAAAAAAAAAAAAAAAAAAAAAAAAAAAAAAAAAAAAAABYjHyMYADY2QoAAAAAAAAAAAAAAAAAAAAAAAAAAAAAAAAAAAAAAAAAAAAAAAAAAAAAAAAAAAAAAAAAAAAAAAFAEQMAASlgAAAAASQDEAAAAAAAAAAAAAAAAAAAAAAAAAAAAAAAAAAAAAAAAAAAAAAAAAAAAAAAAAAAAAB200ACcAAAIMAAAAATbHYoAAAAAAAAAAAAAAAAAAAAAAAAAAAAAAAAAAAAAAAAAAAAAAAAAAAAAAAAAAABnm1MAAoAABUsAAAABQIplQAAAAAAAAAAAAAAAAAAAAAAAAAAAAAAAAAAAAAAAAAAAAAAAAAAAAAAAAAABBuhEQACoAADisAAAHG9kuIMAAAAAAAAAAAAAAAAAAAAAABBgAAAAAAAATxSwAAAAAAAAAAAAAAAAAAAAAARDQZAADUAACmsABKQ4NDg/wgAAAAAAAAAAAAAAAAAAAAAQjQAAAAAAACBjDywAAAAAAAfiBOEAAAAAAAQjixVYAABQAACGsACrAAARhiCQgAAAAAAAAAAAAAAAAAAAzRzQAAAAAASADARBwgAAAAABoaFCqIAAAAASBxCBUsAAAsAAAKsAAIIBBhCAADAAAAAAAAAAAAAAAAAAABBgCAAAAAABQgABRjCAAAAAACGoAMKEAAAAyyjwABG0AACMAAB2sABkgDRiAARTQAAAAV/IAAAAAAAAAAzRAyAAAAAAAAADDwBwAAAAAAACrsgGGAAABBgyiAcwwwwwww0000000kEGIDDxhSAAAA7u00wgAAAAAABCwgyAAAAAAAABDQixAAAAAAAAACboEEUAAADyiSBTz2AF/oMEB7+IF3gMMIzkCAyAAABP/ABDygAAAAAARTASAAAAAAAAAABAxAAAAAAAAAAABAI3sAADRzwAAT2MIIIJHHHDAAEEFDDBTMASAAAABGIcA2IAAAAAABTiwAAAAAAAAAAAAAAAAAAAAAAAAAAAADosAADyAABPQAAAAAAAAAAAAAAv0IIJAAAAAJOUqxwEgAAAAAACTSAAAAAAAAAAAAAAAAAAAAAAAAAAAAAAQJ0IMIA0INcAAAAAAAAAAAAAB3uEW9bHLN6oWMIOkOIAAAAAAAAAAAAAAAAAAAAAAAAAAAAAAAAAAAAAAADHDGIJPMIAoAADQ84MJ/jHDHwCABT4AEJIGEAAAAAAAAAAAAAAAAAAAAAAAAAAAAAAAAAAAAAAAAAAAAQMAAAAAAAABWsAAN5PPLIIMEDDwEABTUAAAAAAAAAAAAAAAAAAAAAAAAAAAAAAAAAAAAAAAAAAAAAAAAAbF+cgAAAAAABEIAAHwAAAAAAAAAGsAAFQAAAAAAAdFKgAAAAAAAAAAAAAAAAAAAAAAAAAAAAAAAAAAAAAAMOMiII84IMwIBUAAHUAAAAAAAAASoACpUMwAUwwEHtdYgAAAAAAAAAAAAAAAAAAAAAAAAAAAAAAAAAAAADQoUApHCAEBAIFUAABQAAAAAAAABWoACt1PDIMLLOyoReAAAAAAAAAAAAAAAAAAAAAAAAAAAAAAAAAAAAADcHVIIAAAAAAAJwAAAkAAAAAAAABaoAD78AAAAAADbapkAAAAAAAAAAAAAAAAAAAAAAAAAAAAAAAAAAAAAAAPAAAAs8MAABb0AACoAAAAAAAAAOEAD/cAAAAAQQMAAAAAAAAAAAAAAAAAAAAAAAAAAAAAAAAAAAAAAAAAAAAAAX9gE0wLfIABQMAAAAAAAAAgEACtIAMw0lfAAkAAAAAAAAAAAAAAAAAAAAAAAAAAAAAAAAAAAAAAAAAAAABOFI8FAEoMABRQAAAAAAAACkEACysG04/7M4QEAAAAAAAAAAAAAAAAAAAAAAAAAAAAAAAAAAAAAAAAAAAAABRUAAACooABVUAAAAAAAADwAAD2oAAAACOpoAAAAAAAAAAAAAAAAAAAAAAAAAAAAAAAAAAAAAAAAAAACVc8AAAAAD+kABdw8MIIIM885AIADyEAAAAAAAAAAAAAAAAAAAAAAAAAAAAAAAAAAAAAAAAAAAAAAAAAADbCTgQ84IMLgAAAB+Mb/y0w9LP2AAAEAE888oQgAAAAAAAAAAAAAAAAAAAAAAAAAAAAAAAAAgAAAAAAAAABycYpb+oNIKhUAAAAAAAAAAAAAAAAAIALKIPrJMAAAAAAAAAAAAAAAAAAAAAAAAAAAAAAAABQAAAAAAAAAAEoZ2AAAAAClQAAAAAAAAAAAAAAAAAegAABRBDqEAAAAAAAAAAAAAAAAAAAAAAAAAAAAAATiQAAAAAAAAAABDMAAAAAiCp8MMIIAQ0000wgAAEEFeoAASBABTy2IYAAAAAAAAAAATjAwAAAAAAAAAAAxwzgAAAAAAAAAAAAAAAAARgwVKAb/6AEBz+IT3yIMTzvoAyCQQDbmk2+gAAAAAAAAAThwhDQgAAAAAAAAwSAQAAAAAAAAAAAAAAAABBhDCiB7DDCAAEMMMMMILLLIMAziDgABRAAB7QAAAAAAAADRzAABCAAAAAAAAQzDwAAAAAAAAAAAAAAAAABwgABRjQDUAAAgAACYEAAaoAADwygAAAEENeKEAAAAAAAAAQAgBRzwAAAAAAzDyyAAAAAAAAAAAAAAAAAADiDDRhSAAMAAD4AACkEABCkAhRTgAAADX94FaMAAAAAAAAAwhDRzwAAAAAAxSAyAAAAAAAAAAAAAAAAAAABDwgwyAAQAAADsAACIEAAOsjyCAAAAAACNBIMAAAAAAAAAACwBTiAAAAAADBgiAAAAAAAAAAAAAAAAAAAAABCgyAAGBcAAAMAACcEAAauTwgAAAAAAAAAAAAAAAAAAAAABCBiAAAAAAAABiAAAAAAAAAAAAAAAAAAAAAAuQ2YAAjgAAAAIAAp0oAD6tCgAAAAAAAAAAAAAAAAAAAAAAAAAAAAAAAAAAAAAAAAAAAAAAAAAAAAAAAAB8bHzIGIIAAAACkAD+8gMB2YAAAAAAAAAAAAAAAAAAAAAAAAAAAAAAAAAAAAAAAAAAAAAAAAAAAAAAAAAAC68ACPQAAAAAAbcoDK0AkDJiAAAAAAAAAAAAAAAAAAAAAAAAAAAAAAAAAAAAAAAAAAAAAAAAAAAAAAAAAAB/wgKAsAAAABrIT8yMvMAABa04s0AAAAAAAAAAAAAAAAAAAAAAAAAAAAAAAAAAAAAAAAAAAAAAAAAAAAAABCIHJkMAAAAKpiNxMEAAAAADKMv20AAAAAAAAAAAAAAAAAAAAAAAAAAAAAAAAAAAAAAAAAAAAAAAAAAAAAAAMZ9MAAAAAYQMAUaIAAAAAAS0gfYAAAAAAAAAAAAAAAAAAAAAAAAAAAAAAAAAAAAAAAAAAAAAAAAAAAAAAAAAAAAAAAAP3sdf4EAAAAAAD/wBzHAAAAAAAAAAAAAAAAAAAAAAAAAAAAAAAAAAAAAAAAAAAAAAAAAAAAAAAAAAAAAAAAAyLGq7AAAAAAAAQkKjAAAAAAAAAAAAAAAAAAAAAAAAAAAAAAAAAAAAAAAAAAAAAAAAAAAAAAAAAAAAAAAAAARwRAAAAAAAAAAAAAAAAAAAAAAAAAAAAAAAAAAAAAAAAAAAAAAAAAAAAAAAAAAAAAAAAAAAAAAAAAAAAAAAAAAAAAAAAAAAAAAAAAAAAAAAAAAAAAAAAAAAAAAAAAAAAAAAAAAAAAAAAAAAAAAAAAAAAAAAAAAAAAAAAAAAAAAAAAAAAAAAAAAAAAAAAAAAAAAAAAAAAAAAAAAAAAAAAAAAAAAAAAAAAAAAAAAAAAAAAAAAAAAAAAAAAAAAAAAAAAAAAAAAAAAAAAAAAAAAAAAAAAAAAAAAAAAAAAAAAAAAAAAAAAAAAAAAAAAAAAAAAAAAAAAAAAAAAAAAAAAAAAAAAAAAAAAAAAAAAAAAAAAAAAAAAAAAAAAAAAAAAAAAAAAAAAAAAAAAAAAAAAAAAAAAAAAAAAAAAAAAAAAAAAAAAAAAAAAAAAAAAAAAAAAAAAAAAAAAAAAAAAAAAAAAAAAAAAAAAAAAAAAAAAAAAIAAAAAAAAAAAAAAAAAAAAAAAAAAAAAAAAAAAAAAAAAAAAcgAAAAAAAAAAAAAAAAAAAAAAAAAAAAAAAAAAEcAAAAAAAAAAAAAAAAAAAAAAAAAAAAAAAAAAAAAAAAAAAUcoAAAAAAAAA0ssAAAAAAAAAAAAAAAAAAAAAIEQAAAAAAAAAAAAAAAAAEo0ckAAAAAAAAAAAAAAAAAAAAYMQgAAAAAAAccIAQsAAAAAAAAAAAAAAAAAAAAssMAAAAAAAAAAAAAAAAE4YEAksAAAAAAAAAAAAAAAAAAYgMIAAAAAAAAYggAAcAAAAAAAAAAAAAAAAAAUgEIgAAAAAAAAAAAAAAAA0YgwAAsIAAAAAAAAAAAAAAAAAUUAgAAAAAAAUIAAU40AAAAAAAAAAAAAAAAAE8ocAAAAAAAAAAAAAAAAAAQIIAY8cAAAAAAAAAAAAAAAAQ8owAAAAAAAAAYIw0YcgAAAAAAAAAAAAAAAAIYg8gAAAAAAAAAAAAAAAAAAoAw0c4AAAAAAAAAAAAAAAAMYwYAAAAAAAAAAAsIIcgAAAAAAAAAAAAAAAAAQg8gAAAAAAAAAAAAAAAAAAAQ8I04gAAAAAAAAAAAAAAAQsYkAAAAAAAAAAAAQkMgAAAAAAAAAAAAAAAAAQMsAAAAAAAAAAAAAAAAAAAAAAAs4gAAAAAAAAAAAAAAAAQQoAAAAAAAAAAAAAAAAAAAAAAAAAAAAAAAAAAQcgAAAAAAAAAAAAAAAAAAAAAAAAAAAAAAAAAAAAAAAAAAAQAAAAAAAAAAAAAAAAAAAAAAAAAAAAAAAAAAAAAAAAAAAAAAAAAAAAAAAAAAAAAAAAAAAAAAAAAAAAAAAAAAAAAAAAAAAAAAAAAAAAAAAAAAAAAAAAAAAAAAAAAAAAAAAAAAAAAAAAAAAAAAAAAAAAAAAAAAAAAAAAAAAAAAAAAAAAAA/8QAJxEBAAIBAwUBAQACAwEAAAAAAQARMRAhYSAwQVBRcWBA8JGgobH/2gAIAQMBAT8Q/wCsmCtEMP8AxhsgNJKPh/jgVXjENliIdu0vaGh7GH+NFSYJqgXDsdQXYgviKVP8RdxTazMRUkQqDEeJamo/sYDc3hUef4hq0sBMgSgNpmOXy1JCTYKgUCK0/wAQ7aqAZpmC2iULZhua4DiDZcs6zzxQ8RERV77dcEacx3fGvjoxTJ6hcULi3mK7MFl+9C2pgGCCdxtCcdTHRgmT1Bu4bpoN7j296NNy8nmA2vaE7qY6MEyegFxBMxA3gYQYtSx98tuioWMXqMdGCZOtqACfGKudLfYq+vABvDb3P/kBKBMhG4m53MiZugx0YI51FCIte0O5l/8AmnBDsKhummAFYit2+RM3R46MEc64Jk9oAIfI6fANBpslSsJV47eRHu6L26FsjnVbJk91i0PuDfpARHJnJicAmNiE1eNuyC4nFOKcE4JwTglvkt8lvkt8lMplMplMplPbUzLxEzKH0mwYMALIlYGbGxCPZGyQGh/hMSuw40G2hs0Vj0mdw84RU5JaA7OEIqTlnJOac05JyTlnPOec85JyTm1q0tBvsnGjs0qNBQ9MwiCj4Yg7BgzJ3wuOgxHrfmKsRN5dY0FXMtX6gh/xwehHws5JyTmnNOSFSmYszd9aMI6XL0MKsEwBp8NI+4Fep2Adp9QnBOKcU4JwRqXMWZugavsFoKspEeOutSsAPXUnawZm1xR0k62gLy8tB2jn2zVEC2RpzCML2cGZdcUydoxHOrDsVotljDMBz6fdfsEyQsZUwLBqf7VP9Kn+lT/atL9TbbzFmXXFM3aOhhmLWv8AifmfmfiWLg1bCTaDTZ6e0nyKpxEVEpYvgXpWj8z8z8z8TbbTBmXXFM3fZRL0/qfqfufufqXKhVTDG0C2vTtd4hNqbQWspnsYMz64pm72Uy7BmZQg2CZzn1A1iLZegW8EQwxFU9GLM+uCZu0w1zmfUAtifkxHr6EYdzBdVPHlvst9jTizJrkTB7TDGucz0FZSU+SvyXrg0uCqDZfrqFYNTLNrBmnyU+TYzBmTXImHaymGuUylSX+y32W+y/2MqYVNyKqCgPXmU7x+SIrejBmTXKYdrKYa5dYZ3ivsDf59YiohW+8cKTO63n0RmOJTKZWtyyWSkVsw1z9rbTC7TMDd4WLjdt0wSZTz6pZLl60ymUy0H1UYt9nQk9xF2IiogoESa1ikrCjymP8AiAoonNOSck5pkZvX9a7smAiwQrsGH+SACmNUzOZ9db2buSmV02SyWSkpKTknNOac05ITs7EFvkitqLZZgmE/J7Ma/wAPMqW5696sR0Shuji5ubo59zUolEolEp8lPkp8nBOCcU4oAY7DtQm7qBAjw/PdX0K3DGrWmLtWD9gbmGCJZL0xkXmUteffZQxrkmLtHV5jNQYjFXdjPEAUe6ejJhjXJMXbJoRTCzPbwAKParFg89D0ZMMa5Zh96EroWZh0nUBbFtuGNtcsw+8NL6A63WyBpdwVXBsvQU4I1494R1eyZd6CwhQ3JuoFFaV7MyxEI59+vYZTnQW4mC5hneK+9KjuMx4DAa2MFjeKU7TPubizMCul2ituZDOCZxBKyDZfWRvmCyTdtFGLce4rUCurNpi0y6Y+wu8rWpTejwfT+BSyoKaYexnNBEAVRAorsLf4YVWSbO4iW8H8FmGYiNOgK0TPc9kBTGO6odtXABR/BoOZxwAx/wBZ3//EACwRAAIBAQUIAgMBAQEAAAAAAAABETEQIUFh8CAwUFFxkaGxgeFg0fFAoMH/2gAIAQIBAT8Q/wCZNJtwhBeAQwhCiEDkrrl+HKZ4VB6Zch13LsyWD8oqIlof4aiXzexi5h2vkCKTO1JtwhMU/wDgewkP8ITkS61VQewQyCIhS4E/I32rT1ZPd4eE64DUOH+DxL8k0SiJEhCUFRpd+cbUKORLJKcyDTdEIamL/CG0sMRqkyhwidkpinYsLWY70EImiE/ke2hrxiQhIJKQ8uPxL0ouY4Khjyc7VTY8BFXrtKSnheJc+A9mS6DTFFcwuOpAhKEqJDWAh5bQ2PARV67VGXDXJUaacMc5CFNXPjqcOUKCUZeFdyFNauFqo2PARV67DaGS9Lz5YEoaEXZUNZQyQO5FOouPXw1HhmiUNqotjwEVbXX1EQhXIQsXMeyS7EhQmHctPD0BUtiObz8CUhJ2Fd/ZcXUv3ikVemwth4CKtq89eNOBcURKq/Vn993EEQ4fgcqDGNfDd0ir02FTY8RFW3xUeS/fFFSC5DWmBKxNpyhiWxQiSPLd0hlPpsJqNh18CKtrr4EeS94xoVS7lu1ldy3cYwX8EWYlVVehqLmUrdixJJQhbIwu3KZ3JGc7Gc7Gc7Gc7Gc7Gc7Gc7Gc7GeM8Z4zxnjPGSzJZksbVLdIlVYgkgv6MTSwqdVXBOcAQkkoayh/AkkoQnGHgruHcpiQxj/EtgkplHuJA52OesFY5Od1kCXPglWiQr0hgqk6Lhc9ylz9CoEjWSNZI1kjUSNRI1EjQSNBI0EjQSNBI0EjQg0INCDQg0IMfsiXOu4lMlN9j3vB2PTyV9k2XPgz0LgRDBoa9xeiaHXfxJUOeQxmmVuv6PdtJNuEXhcIskIcGXi2ElF9N4shIFQKvhCVmuwYlhRyXMZozRmjNGaF3DmZPRNDrv0J4rG0lLFrKFbqe4Q5NxsJBIq2JbsFwK9lRXCbTlCihZMljncsDGl8JQQ1xzkMgZAyBlDKEJCIPRNDrsIvV8jXJlvuZb7mW+5lvuZbMlmSZI+r0MacDqhJDHZW6nuGuaRkjJGSHhJFzNw5pqu69U0OtqzJzQ9ZVGb4MzwZvgzfBm+DN8Gb4M3wZvgUagkfB6trdT3cSjKmImhfnEaTUMQtcP3ufVNDrb5Z426p/JV+PVtbqe7cOyBTCCWEMmcHQnmJZxzHMsRJWxYTl9mmPs0x9mmPs0x9mmPs0x9l2vmT1TQ62+WeNuqfyVfj1bW6nsJpTBpj7NMfZpj7NMfZoj7NEfYuMS7oSFaUoQ5hqODJQuQxClYj2CWQL1JJZRmS/v6Jf39Ev7+iX9/RL+/ol/f0Xa6IPVNDrb5B426p/JV+PVtbqewloSS/r6Jf19Ev6+iX9fRL+von/QuMNxpkVoQhTGwG54M2fB1FMvJCQvbZ9Btty9x6hodbfIPG3VP5Kvx6trdT2bhmQKLmKZYyJwhNpyhqQ277C7AhdVPBGiHseoaHW3yDwt1T+Sr8eranU9m02hBR38QGSpqDC5O6hkNNXNGSMkREuZPUNDrb5h4W6plX49W1Op7B7EmZYyxljLCOaLuhILoyQTw4ctLdBDnL1pYoUqW7ZFXCiD0DU62+YeFuqZV+PVtXqewWxtTsySLjD3NO4XQomObh6WCUXYSAv2PQNTrb5h4W6plX49W1ep7NptIUF4uui4YgVBPjY2qGhGwtv0DU62vHUQysINSDUg1INSDWg1oNaDWg1oEFB5f49W1Op7eKIT4qDVVVk8aULU8GTklGsjOXn9GcvP6M5ef0Zy8/oh+Y9A1OttC6rjNRM0kzQTNJM0kzN8MzfDM3wzN8MQWNjGbVdtXqe8aQM1a+DNWvgz1r4M9C+Ynpw5LfkZAomCGBEco6QdxksyWZbMtlwlJPQNTr/iq9T3jQxkMyGZDMhmci47nDYWEEsNwLG6Xz26PganX/ABVep79p6kImKfR8ObOr3DkoZCNSozRmjNGaMwZgzBmDMGYMwZgzBnDOWyQBMR/PbdyzFMJIqJFdQ3ELid6OjqJpqeUIa/wtpKWKioW2mJWaH3cEtCxZKJU4nVEEOLuZ7uzPd2Z7uzPd2Z7uzPd2Z7uzPdzPdzPdzPdzPdzPdzPdzNdzNdyqJ3CR0h1y1zTFq68VoE3cthQ0WxB3KhWtfc1gJHWe6hVyGXdUNNOGRpCEJgSrycVpFXYVNjxitb4x5z3TJsBbLDrEJJXIW5jbaXxVyUh4Y+WwqbHhFa3xjznu3ctAkVSKFcNtuXxW8VcuZfSrzFR3thU2PGK1vjHnPjqaihOqkUXXF7O9cx/CF9334FMsXXdXnZVLXcILAiWOjt8Y858cVgS9jcXsaQkjXAxEkMd7XIc7u8Y0t7SpahCEopXEBdGJJp2KbBj28eOIS5jkJja5LVLhttJtwhUGmnDsUhommncN5FDSbsQ8UMjzvQ5vpxtaVyGSVKxjQqkVt0e0ugqhIsUwkj2lUG8iMXi7ncthrw6HXJjybyE0u4VSrynF6zRiaalDCWryirADXvspNuEJWgx8YvpkNbHFubEYzTw23t1CATEumor4Q4K8YuCjkYgKgHcvteVZK852Tuue6iiLh22nmO1EYzl+As2TQtSYjmxy9iXYY2OKc2AxjY7hEOKGU0ZeaqIh1f4Ex8ASy02KJa4y5uWNLCCuSOq5A225f4GwlosjCWn/AJnf/8QAMBABAAECBAMIAwEBAQADAQAAAREAITFBUWEQcfAggZGhscHR8TBAUGDhcICQoLD/2gAIAQEAAT8Q/wDn3ggc3/yJQJWKkElztUyOQ265/wCaYQlCYqcU3nHOmouddf8ACKBKwFRORGUc92kSFNhmKACAgP8AMqCVgKc1Awab0SsomCLSa0AEBAf4QuzjxGrUmMhstdqvlS0ntSMiKsT+Nig6AmrMRNYoGUPKgJQG7QoBlwh/n3J4Gz3rU2HTuqbzgwYx/wCVDWEhj+MBgFbKiY3FKESRkawQObQgkRNv2FAlYCokym8JplXE2OKfaoEUnJRZcOMXSgEBB/Fd72aWspxX9WmApM5VJmYDDDQRA8xqGFNiSQ0xKvmfzAZICtVnWKMCUrFrtRBTEvRVSQMU9CgECAyP4t6KgxGe1Ss7FtAp8olypIdIWKlYAToS0TGR7QnOlsIOJ+soErAUC8A4Gu7S0wzF15VBOMEm5pU26undSmYzNFHAnvI/iO96NLGCVr6tGdVxdeGBjzKAgAbUcT3OlDu8nWkk51a/9/lKCVgKCYcBcH1qFlU2CggcyB6NJmOWr/tQyXVl0woRJGR/iKpSBj7CplwAxTLbnQAgIOCiUzQAgANqdZIODrs1Yz3jEaWQQMT9VDBBSzxoCiE2nSoIlLKYHKoMkRERNT5cOKTSB9h6Wxq1LLiuv8N3vZo2Qzu9Ws+lcXXtHE9yZUWxEjuaGTLOGrb+SouBx23oHYwylLMCZieVBeRyomA5FmkxJDEiCjEYH8PIe7VyplyBiMuW9AQQHadRIPns1YSeoGpiEOWu/wCkoErAVDdIymvOpgENqCCvBJo+aCam5oZz3KS2Hb5UcnFcXX+G73s0wwSsVy3aM6ri60bLyqBdNgYvGlCFe9SBdEyxeNHId45cTie5MqzGLk0xk+Z/3+MCJgKmJsy/OrgAGCUwm99zV8U5GKxapWOpm41AsIZLEo4i+auf8NTTsWu1Y5IYplQAgLUA1XAM6xrdDGtoUfMoLlCJIyPF1ng567NWGfjBpZBGJ+i6SFwotysDF1/5QlEggtjvSwjokblBr8XJ81ABulLP8QljFYKwF1a+rRnVcXXgEywsOefYABws9nYOJ7nSlWYXL7mdDIOv8UEQhpHvSxwD07qiIJGQ0pvLGZxt4VeEQMTphSEzu5MI3/iJQMTddqZXCGLp/wBoAQEFNiaGJjg2OwZM6+zXsWsAPE0rGOMx3P51AlYCiaRZdrtGuWSUce6jGIEdxVyQpm1pCACZDKryCUVdiKAKgC4uv8S1yi6mwUyB44O/YxhiFuGDBza7s3pakFzyBQIHlfY/iAyQFGPIciJagIHMhHjSyT8mr45OjwoyRAveSaxcZX+NqFgR/EiJuidz/wBpRnJnh5CiwHY6TZ4YOE6tCsEnOlMUGzq2ptBqvPT8+AVn3t60Em2mAEwgTWKmCoqQWszSrAOVr6tANVxdf4oMsGggcy+5nUWZk8LlteTc7Fwc2XlUjOYtMilmt1qTJ4UsogV9ijMHe6/xIxazBpu71cKLkpi704HOXmp6yDGmrAtd0ptDJ9KMwXzVz/izbgPinh6h3PAEWCRUxHBZ7GBp66Ul4DA9CgbPhSpc+FLLADFptzoAQEH5tUmUHGkXLT0DTQ2Kwo4Rmyk00LuQqAMpve7uGo2Mri6/xkIsAmpRbPe0ADAIOFsjAwaAWE8JcHvqzg8aSyGDTChRC4XZFAYLubrwiGJ8t6MwX1XP+GsEuVQVwZHzRASBfIauA7O7OhIMG7ypG9+6VgVgk26NGYLua5/xkyDGzxoiLCZ7ji53oa0lkwYjSRKPGluGZ0WKCbrBzVoABAcEZ4juNudAQQH529WbjGtCBC/ruVGHchZx2d63J5I1YBytfVo5sysVz/jwBmJSpyVTFGQm+vFBISRr6VUDEDnBahwHe68Hn61TMYuK4v8AF2YwXzSEguAcxpUERhjMcyjAotRypcB8N2jMF9Vz/ji4yGraEwh237GCDzKD9wmlUvAwPQoAAQHBVyQZtAQQH5VAlYClbQHDEd9qiYA6M6OYpwTEI70e1MHSgTCBlrvQiIiYuTfegGq4uv8AJSDkyPUqDLZxNaCYbcZvQTUDOLddXg8/WozB3uv8NQJWApDawsEnm0QAR1ur3VJEEriYJTinRiFCeDWIQHMcnUozBfVc/wCQgkJI1iFdYLlQSti7BtowqKAAIDgjPEdxtzoADA/KoErAUjLSeJu7UK0RcWBQgKlYlambY5hwGlEAcpOK0aMl0RkTKo2Mri6/y0Q5H7CnC3LE1oMo4eRowpBil+BzozB3uv8ADASgDNo0BK4nq0yRILGtQiHQSsumcuq1KmSCcnKjBlhnBKMwX1XP+UgkJI1dYiwXLapxY9HhQiSMjw6jZ4IzxHcbc6AggPzeCJPKtUxXddKvTW7zoDkorKdmLMFBERARjG7/ADlIci/9CovjziFDmPDSmbi5tKQi7DHSjMHe6/xLsFuxOsWqxPwXc5oAwAoQZgIqN4bUKLEBJsaP+/zUEhJGpkK6sLlUStioIkjI1IxQkrq0pmwxe1ACAgPz+Qvypkbism5UwhDdWFRKADeixDJyNKMari6/z0V8fsKSFhgYYaIMZzcijMHe6/xWWuCKgquywSgjBoMwlAzaZDjSDY9AozB3rn/Oxq6hlyPu2qckRoLKNDFkZcqAAgP0cUTnti9eVAWQtZs8qUJF4H1aj3ZWLr/RTlTuUAEBBt/GBgkaYMEi55GlMYBccmpAOChmC+q5/wBG9N7GYoAICA/TUWYGMCY5VGxlcXX/ADQMEjVwZQwC5RmDvXP/APgUOTAlSAKj5llMDlm9XplxOyd+PnTEuaqe9BGMykPBaUM3UecW8qOLSva7mvd/44OIEplTF1VvHdqdsDtAkIkRhGlPxQPaem7fPnj/AONYTDMZeLyMDv4hFrNLXKAJ3lNPAHEXlL+VIjDZ4YUikQr4Xy/7/wCMpMzKMcAe7Hu44Uw0Dbdobm0hdarnxL3LhsbPlSq2EYiYnCyNCdVbys93/jLhNnO4A9XEJAlOs4eUdmNogjsX7xPDiqqebiE/+MSmy904tLGh5Q7LhOYnLF7cSk2jtKdZVd5GL3UWLV9qRqY9d9QDWxLwQo2AM/pOfdP/AIep5ZnuTxOAQ+qPC3d2Z0wKTN+yA7ngGyAK3qXeAOzGliF1GtIhwmg0DIpAREZExKQhgSTwdz3PbAy5EiMI0bHjnDiY95/4dAAM/kXPMpExEI4jwUsbS8NJpuIhK47rPmcFAoAXVyq3lK45Dm0iIqsq50ZCVqBCsjZGQ5TFs8djsgORwb4rxt3cIRWwkPKe9Z+7l4JnHwrPhrUc0PUy5YPVAe4rC2/KSf8Aw6/E7R9Z9efEEgGRGEq0VOlNb+nHkw4GQladvI9fb7cgFGwhJsHL1ntJNiTc5cI8YW2kHASSBOckBfOaBDAknnue5lywaz0fDL/w4FKoEiUuKSU3H3N/HXsmQladvI9fb7cgo2rFteptr1IAgiSJn2Y3Zpzx854YsZyQ6XxKtQaAwN0CzSXFkYq4tHqp4cZW1QNQVpEwaf8AiDx2xGy74HypdcvB5Jt501C/MvRp0JjUUec1BJcIE7EuB3OukP4W8EnIrnyqTCbOQyTbgyEhIuOc7vR27Nm12dcx2fimlvAITsEXR2lycx6flUCoAurlUJKszgPv1emCsZETvx86AkSdWdHIj1HmXoOpsJSbPz/4Lbva4Xde96xwSSgDzFnye1eMJFlyn2aSwA4iHBMBddGg2Pf80Ht4Vj+PXtSrmIdd3e3h/vFAqgGK0qBGIBjwoe44AS93bLCyh401BiIn4VdK0flvpmEYmZ6HfwdsiACVaEBuDRHN8eNKxI0S+tEz6bompGPWPBAREZEyqSkY92x8ce//AHThMEbd/G9Ijhs8Huz5vAyMrRtradR3sAyHyyIgKQ7PTNawOf4VdK0flkbYW3VX24FbBJMln3B59iGYQjAmyeI+PBlrYM5yPof7lYJakmn2gz78eGRe8PiMFTwGKJ3HT7cgpRnmeSe4eR2ema1gc/wq6do/KiXNnhHtwZ7OKR7dgPXkd5fjg7lQ/Ffj/cITPNixTvoQHeUcFdg5DTPyoBKwCAKIoqLF8pOGK8d3Ds9M1rA5/hl07R+RuEyJ8AzqPCmq4lZdMeBVRo+ezcoGK2V5OjwLgQWW7oFWepUaMjuOBJwzcix5z/RyBOk/4a+oTYpbWIhzcKvPhY7jHrSIokJlUK8Ujgw4Uw9lnF0j3pSsgDdmxhy4E5Mh5DL5D2ema1gc/wAIujaPxF0CVIDvpYdYJWORn31iNuWXsTojGdnmZ1YibDfSmCpjKeE5pihtnNRJgDQLf0JhGFsc6YWMRb8q3LH+EM6rga1AG8vlsUYlEzJa4cEbXQFnxO/E7+y+DNkM3ey259npmtYHP8OujaPwkrDtLc3fY8qmdBmw5RwBUAVbAU7uGPIy7/CiCXGMr6j0yqJFWMXkPYkDms4HLV2KNSldMXf4/oAJaQkeGGQokCZmSfj9ISA5gZVr27UQjDQ41gIVDjC8XGhEkZH+cMS64bFAFyMBp/2pFZGQMRvzpgW++u9GIKMAlDFvNQBdhweseAmQZzEqwUqVpwN3c+WHOsOz1zWsDn+GXRtHbS5YC66BV5izbjdnyw4vl93sHdrVvM3E5GXFpjKEj3UqQuNs8GSsCPt69Fao+nw8qYYSxAiO6lQAXKtfNMH+fh5mDQo2ZuPdqLVEwa86jYRjh+g7mc2lrSd3q0hcTZIoGJBr81mWdHvTZgHW9XVr9Hh/MM6rgGdRCbsYRU1kiVzrhUtu+O1F6caI1d+PQ9XDoent9M1rA5/hl0bR2pZxJsUyyYJLaXDW3SWBquVFpxHUv3+FAAAAQBl2VJIOIz2qXDCMVwK3BzyaZ5e8s0JDQ0VKX7En2pkJOpntz/mHI9wYtWZsbSaMGdZe1QvlhfRTLFzM0ACAgPzu97NMMErX1aM6ri68EEhJHWgCYInGkEhJGiViLBctmglbFlQRJGR/Sa4Ek4rQMWkEhyvvgw8WnTIZRPRUTJLr/wBqOJXIPjelrns3zvXzWF2tP0TOq4GtBFT4bFBSjVmCoYAhBXRrHqundTneBkKAhnw6Hq4dD09vpmtYHP8ADLo2jtKHEnkGB4+nBUycHjsG7RAEsHU9pVKQPoKmXALFMtqAEBBwQcTgcT3OlYExXOiKeXLV/KAS1AOEhakUQW63OdEIxdgejSE8j3n/AGkVIl4mm5QiSMj+Z3vZopAJfUtGdVxdeE9hBISRoVYiwXLZpW7H9EP2D4/m29a1uSYDQMjtDYJnYOiUTUsHZX8aP5wZA50AoKWlaeVIKFmJlRCiAZM2lxBcyrtlqsGjKgWG8pyoAICA4dD1cOh6e30zWsDn+GXRtHaVXgB5vvwAYShyfh2lUpA+gpZyAsjLbnQEEB2jie50od3k61KH21P+/wAhQJWAqyARDDPNSGAykHBq6wRxnFaxRuaNyjw5g40gMgMKxNudAAwPyu97NMME6nLdozquLrRsptpUeUhyvq0AYK1COWVIoYOJrucUEhJGiViLBctmolu/OYHFBqyDm1Np0ugZBscTNlpHibUhenRL60aJvBsPJweLvzyHOKOccmo/lM6rga1Bcz6Nirwj2SkigS8hrzpZrU2nSrBxMYWdylBD5hjQAQEBx6Hq4dH09vrmtYHP8MujaO103Th53s69FQ4jPascsMUyoBAgqBhK4GtSJXYUBW0pvEGpPnRzHeacTie5MqzGS4NGK7qZ/wAY5nuDOoYGchwolIRyoYWY0B0tUxO7hQiFB7ygsB1RegAID8sm55U6yMXXNozquLrwx5w9fYMEMb+ZWPFBISRoXdxQcqUzafmwlUjNWPAnx44i0Lk9DQzoyYEAIA4GHeByNXjlodlb7cZHiu+Ync+v5Qunc8xtWFichl/2i4QW7tRFaH1KCwuAnZ80gwIHMpedOz0PVw6vp7fXNawOf4ZdG0drpunDzvYzWFiULoU4lsC7oUAICDhcVnY5dhtjCxN+wcT3OlJB4kP8aUJLSNK0MB0c6MLCUxpS6eNQ005LMB5jarA5MWTt+fFdIfCtAlnYePjy7HlqnfxhTQXHIJrZhrKsrvMYVYZzF03oAAYFvzKyzAeVj04Bmq8q75FGWBABYOxN6ctmsabLrDHBpGF3hJ5j8ZnVcAzpCTjZTAUx3Bze1WhLMNTaoWxHcb1ghgidauzgXava6Hq4dX09vpmtYHP8MujaO103Th53saAzV8X1RcnKQ8uGJGlRt4QdjB1h68FoZuhek8V8VYxMz6uVNorl3ll+Jo+cb08MO+lo32A9aUjeZPegDHkvrtWJJ+scz3Bi0RV9lMBMbaOdKMJjHyoLNx7jRDGIxbCagkwAHnQCABofoGzXBg5U1mxw4TjbPPsOYGPozp57w6KIgL5ri8GnPeVGYO91/PO9jf8AFwikxY+cdprIS8c+E7XWH8ShEoThRl3fEOJsUSmGxhkFNJFwmPaoA5FIOKZNqKrAOKZ7FABAQHaCgXffV92obphKy09t3j41qE19Xba4o3BV92ooaQlrudpTQYobV92pBBGbU39gmWdNnxid5xUlYlzl2LLJc+1KR4DA9ChYAODKthgZbUAICA/Bf7W8dvmkYspLd7n2RchYrK5ad1PlQLy5uam/6rEmJMvRVhnDCURu0MS51FCcQvSXNgxdeVKrACymWxQAEB+iQS7d8VADIjgCCWaFQ2QPihslSmc42ChkSTFpQGC7m68HnH9FGYO91/QZYgQcv+nBIRbMZqz5LR3zgYI4PYfGErfbvwrzK4lng8FIl4Q/CbE1MQg8NqIAAuC57Vdk1l7qvRh7KxdPpUjCMdDZQAQEB/GRBjFqgHmh5Z8bZGBg1b8IuVZmFMMtObA+aDEsHNaAAEBwRniO4250BBAfguyJae+UV5KkjQ27aaFyFF4OZTXk/pSEFgm1TEkOMHCsAwvs71zBd5FbRLvalVJAxGexUjKQWGW1AQQH6UnOLHw0lgBxPfsu94NDgO914PP1qAMSrdXF/RvGIlMnFep3HEXShwZdrqelXAOE4eCAszYnlrUeJATZWrtodHCIMgB05976H4owXUHOgTCBlrvUIN0Z1Nms4SZmlMzSBZHtQEEB2Ichkz4TXVnvXVnvXVnvXVnvXVnvXXnvXXnvXXnvXXnvXXnvXTnvXTnvXTnvXSnvXSnvXSnvXSnvXSnvXSnvXSnvXSnvXSnvXSnvXSnvXSnvXSnvXUnvXUnvXUnvXUnvXUnvXUnvXUnvXUnvS094CR86VmwuXxo5jw07ADIPCkpeB9BQAAgOCWrGtAIID8N3CePNzfH04vye6E8k03o6LqNnuIKXF/Uie1FDSULXvxQDk+7PuxoRBGR/SmSoGCwrEDCd6pgLqwzNShSTzHKlVgBZTLYoACA/TnyBhSRknpeFXwIGJ2BZmueDz9ajMHe6/pSdJDbRNxvUOBNjKTbitZuMpPPWlZ4tifGK3nOV58RJYIOiXKgLAAyCx2zMt1wDOlLIZjLY2KhWwcrPOsKllE4tjQnRMHShAgajJ5Uju2YQYKACAgOJ5j3c10NWkcqw8Bu+xasWXH+IEnRzHcMu6iSQDF8ygkMOLURhwGgIEBwTKzuNudACAgPwwqwlXgPOOLGOoclkdaUAAAAwDsShVYYf9cfHiiCe+FnpH5wEtJ3PmPpNWw8G7vqSEFcBR1wh57VbM8QqiBiQD2oCCA/VdZ4Pns1YyT5L/laIOJwbiUpXZUQxPlvRmDvdf1Izh2Iu/c2pRLZNx1HtDY0S1pMYzxqxhxfF1e2ZlutgM6kt7mBgbFCREGC50OOXxYGpJM1GXNWEZrE4jo0aTNtGKACAgOwxeVINs17d2/8AHkfS88zo2Qw2N/GgmG3DyE9eCM8R3G3OgIID8TFZ14z7cVILsvKD27MaLgbRE9p4qvzY7x+YBLXIp076trmpYmpJB0GoJBVcMeZUkJliwpIGRmmZQAEB+vO4BLNIC2g2o3BzTXlSrOzemNTAvMYuVGbYuLm/rIE3Jnv2pCcsqDli9aZYCyT5MPlV6KhVGZkoYwDwe8QYTN2fnuoEghImZ27VZTHKaDKFxCGbSEOCLUQZ0R40twB4qaRZvOQuh2dw/wABSNKkq5vAb8opRoBrX1+n1+n1en1Wn1en1Wn1Wn1Wn0Gn0Gn0Gn0Cn0Cn0Cn0Cn1Cn1Cn1Cn1Dgg+gdkAAAB9A+a+ofPYggg6h811D5rqHzXVPmhZIUk0sM2TiO5l1QFiO6KScRzKGyv+VIGwxddqVckBi0BBAfjcT/rR78ZFXImzc9/DsiS3dwrPoPFEc+OQPzTtaIc6s2kDd70RBGFWZSC+2flU93cisTRciygwHT9qdwBnSYJGgoXANYgKMwd7r+2ggCJCOdISYp9+Hhh3cAlbEM8zwt3du0LCRpATxL896UFed2blXBXdSrkg4uu1ABAQHZ6to8eg6v8AD63o49Z1pUXI46t6TSQzSQ1IQOAw9KAAID8hmFLCMWXS+vGHkhjMtHu+aCCeUSJxBEACVcqmITCMM5+P+8XNR49d7x+Zw6ehUYwhMG9YBrRkpkXAwMqRHgO4250BBAf2cbriOb+H1eBRBf3AnB7nyn8Fkk35Z9eVKslZBBjvSwWQf8CgAgIDtdW0ePQdX95uVpUgCpjLsR4hFa5RZo56cep6OPWdeEfkirgkucoogE2RvOeXd40qqrK4r2LqCYvY5OVEtZFjxPikTlQIni0rIJisvM58UuqF8nTvek/nAQBNGkK+H0NYZGRqmlOWA7jagIID+1KAItRIamSlQXJk95HAIxAS4WfMz8fwJhBDIbUADAsdvq2jx6Dq/urBLTHiIOEc2vtwUv4YaJmVZRPUA8eHU9HHrOv5NEzSu8jFpnJ6OXyMCnRlKJXv4EFbAZpWQxZyTm+x41YgYmWOp28zpnIau1HFLi+Ot+gCK42ayEYYx6qAggP7jnCNjH5T54JBeUQjrRF0sEeIz5lBnaXI8ldO+9dO+9dO+9dO+9dO+9dO+9dO+9dO+9dK+9dK+9dO+9da+/Dq2jx6Dq/usL7+lSQEAEpgGrV5fonF4JmzBeo4dT0ceo68Fh1ABO6a6+9666966+966+966+966m96El67ep7uz+bDzphAOm9wwPOsPokidnQ06hSAiMI5U4MoBK91M5vTy+bgVqmaC7zcXg7GuGq1HJooHHMnmZ91IkBZEhOIKwErTyq4lcbYvGrSE4t13f8AIOMj0Y9d21P0dCEI9hSAiMI5fiwOfDq2jx6Dq/uoBEkbJSFQuZl0XU9ObwRcuAPXlT4imdYxeHU9HHoOvDz38QKAJXAKm9GIk5CMtl8G0QVwQ3Oc9rHH0M+ONISdFYtLy9NYNPQhk9TH/J2emWw9+ffSLkcD7x6Uunc30tDkHcRx/wB+nPDs2GWGGfZq+z9gwwyA19fDo2jx6Bq9sugSmA76ShZna8VJ/TrVq1asWLFixYtUqVKlSpUMgdAnktazklc5mJwsVIRke6ropYgDwmoZRxRd5uLx6no49J14OkGoIlfda+6191r7rX3WvvtCIO9RTORqLymaSidnIXvfihR6xJy7v9d1bR49Q1e0ZYCpwCk1znzN/SjTwHS2+zMXAQn6SQEAEpgGrSKZbz6Gm2XO9WJcE2Bidroejj0nX/ddW0ePUNXtSvhUmy38p4ISxJbAoWQRjLtmGH3rPR/Cuj+FdH8K6P4V1fwro/hXV/Cur+FdX8K6v4V1fwrq/hXR/Cuj+FdH8K6P4V0/wpEiZLZQYs+Wnm0pDYnzZH0O10PRx6Dr/pVAlYKTkN0RPrQIQcxn9Po2jx6hq9rq+vDoGp+n0W7h1vV7XU9HHoOv+jDC0ogCnAdrPoHu+FciAdDkYHDddy+isukRB7T60GTCJlsmTt+j0bR49Q1e10fXh0DU/T6bdw63q9roejj0HX9AMYy0Pg6HK5GB3zQWtgSbIW7+hPAmEi96Lh5ww9ye802lFNmPk/x0fmAhws+Rl49np6f8c8ASlIm8zco9wwMEcH9Do2jx6hq9ro+vDoGp+n556uHW9XtdD0ceg6/nA2wjIKXJW8o1d+KAcCQmez7PtgpARGEcqfEMohKnoIQtdTZ/xkkJimJOL4DwcsiACVaKWCZ+G6vlUJrQi9KhL3CJb4O8vnVqfx1lwlZIKdeXc+v6HRtHj1DV7XR9eHQNT9PrN3Drer2uh6OPQdfzuwhXdMDvfTgmVkB7u1HnUZUOQe9OBpHCe1CmCHt8Gz0IoCIwjlUgLoGUOfc3/wAYsZsDngHvwdzBC3MHq9gtsZfXP3foYHPh0bR49A1e10/Xh0DU/T889XDrer2uh6OPQdeHmP5zpCyXQCX1PDiM8yuwXHxoQHAkJns+z7YRCRRhgjTp4+OH+LJmHhkffg9sKG9GY8J8OwEDLbNAIPV8OCsMtia+5V9ir7NX3avu1fZq+7V92r7tX3avu1fdq+zVCa+rh0bR49A1e10/Xh0DU/T889XDrer2ul6OPUdeD0KLuKvv1ffq+/V9+r7dX36vv1ffq+/V9+r79X26kIRbkcJqBatSIfQ8eLxwqDVWDx4IJYwNns+z7YbZ/gP8XGoAxjk8jPdwkVGR6Y+nPCBUIXAtVnyx4NwQXc/EbtP9esMBkHCIwI3AxfGPD9DoWjx6Bq9rp+vDoGp+n556uHW9XtdD0ceo6/nSQF75g9z68HuNkSiY5sJOUXqYk1EvjBQoSfJvm6vC8Awmxgd7/jEAgI2RzpYapyfm023w4Q2NBRSqysrwsAl0La1ReiDY/Q6Fo8egava6frw6Bqfp+eerh1vV7XQ9HHqOv5zVlUYJUVRY/E79lFyYDOrllg83Q2P8aS14oZ8DieR7PCm5ViEJwBUAlcArObu4csXtUaZm4uq/o9C0ePQNXtdP14dA1P0+s3cOl6va63o49R1/QFqEISUVRjGeE5PzTKy5qPEkpiHtvioZqpXkHvFXOQzfwG3+QhQTCGHjS0r20/NOStoh8cf0+haPHoGr2un68Ogan6fSbuHS9Xtdb0ceo6/66XHMT6G1NEzzPKMe+iIDUN6CALGz8cTxqY2SUXNzU/B0LR49A1e10/Xh1DU/T6Tdw6Xq9rrejj1nX8h9GsmN7tKGI6L4FSwuzo2jCWAPs99GRzBk6Oj/AJ23meF1Z9xLSV3qEqufCQWMOccJg+kcnZ2o14kxo5ncz2+laPHpGr2uv68Ooan6fmnq4dL1e11vRx6zr+OLCmRj/wBcPHszYTGSNO5/nZT3MN0nBHxX0kl1TPE86TsxCRE5VIErUjENrj38DQwyOA7q6U966U966U966U96gtXovw6Fo8eoava6/rw6lqfp9Ju4dL1e11vRx6zrwTuUQAPw9dZZRZRBWFrEpY4CIa1kbCDXOaaEEsIchyrLcDUJJ5PBUJUjqlvb/ORgwPmi+jhji1WL8Q3t58HIkFpFRJ3QefbwOfDoWjx6xq9rr+vDrWp+n0m7h0vV7XW9HHpOvDzH8Z2EORcQge8pEICVWApnZSLqBE+XBjUK/EX3/wA4MTGAx1HeeYUiKJCZUKIjCZ1J6yFgTx4JjhBm1b86xcRu710Z7V0Z7V0Z7V0Z7V1N7cOlaPHqGr2uv68Otan6fSbuHW9Xtdb0cek68HL5dArXTXtXTXtXTXtXTXtXRXtXRXtXVXtXVXtQuGtoNG3h4cB5Nmw1vxUwPccA8YUl3jRgwAAyD/OnJElWE1NHyrb+UU8teAEDMJIHNwqUAKE4Ony/B0rR49Q1fwf61qfp9Ju4db1e11vRx6Tr+Mqh1GCUsMXjf5ykQESyOXAeOncIPfTXCsuPJof59S9YhJRAB1E3pQAABgB+HpWjx6hq/g/1jU/T6zZ4db1e11vRx6Tr+VOXNSXxqHOmDBoAAABgH+ZuJozfde7UOkWKUPQ86IMYgh5YWdqJGcYPjYeVIC+Qry1/N0rR49Y1e11/XgeozP0w0brNDDjt1tTgISut6va63o49J1/09udm4g1e1PqGUSrwvQ8UbmjvVimiMdtnagSAZEYSr4RXXAZO/r+XpWjx6Rq9phEyJtP/AGkgIAJTANWrOykMp5zr6eLX0T4r6N8V9E+K+ifFfRPivqnxXVPivqnxX1T4r6p8V9U+K+qfFfRPivonxX0T4r6J8V0T4r6J8VfghLMsRoUaSA6G33rIWwEW+L8ePa63o49J1/0yLwttgmkDx0aMjuOFvoLCMzyZ0KKdYA8IrQFAOYi+Gp32qzTRGO2ztSqiAYiUZoDZGQsnifk6Vo8egavakJAGo40jeTnI3Lrtl3y/qOsGAKshfNLGNu10PXj0nX/TIAYfOJfI4MEpAkyM3wmhhkAyDggiJI4jWGlpOA6aQzH3VinijbZ2rGcUlw8yth07VsOnath07VsOnath07VsOnath07Vtenatr07UKh0PLh0rR49A1e3kwkMNzRqICcgJ6V9D+a+h/NfQ/mvqfzX1v5r6n819T+a+p/NfU/mvqfzX0v5r6X819D+a+l/NfS/mvpfzX0P5r6X80Tk0K8b0/DBCp7zt9D0cek68ChoBJB4V1X7V1X7V1X7V1X7V1X7V1V7V0V7V0V7UesMyH0imwFtUvvy76EQRkcH/MsZgl5nvwfCLxcoPu7DUz3qu+9XKOkOz+PA58OlaPHpGr/D6Hrx6Trw89/GqsmxunXlt38wSCiRME/wSEQrtlQTH6rEBRfoueYUjAgYRy4Q1/DBN3J51mIGATxpTvIDk6r7UgthGKvAkzzUkDgY6RXUHvXUHvXUHvXVHvXVHvXVHvXVHvXVHvXVHvXTHvw6Vo8ekav8PoevHrOvBzuyi3fGukPeulPeulPeulPeulPeulPekoSGow9aHJGHM+SlS8kKpzm9RRO+yajpwuwjVOebudYf4E5HuNamVRebNqZZI99/1p/KSD6j68+0mOSWllo96CCD8nStHj0jV/h9D149R1/BMSEZVNws3GsQgPDggiEy6696lICIwjlSC2gMmoDAWfRH985HuNaSbYmBkKFyuEQ+rQiSMj+sjMCESRKYMuytHi9nxpIWMXifngcQc0vKs6MyTztPXlQKCjAB+XpWjx6Rq/w+h6OPUde3IAl4Gm7QEjPilUKMDMwZdh1uCAHQfXnwUstlZmvMoywJEwT+8B67EDSlFzguBz3oFwQcBz3ahi9Gk5x+wiAHESaXkd1/4VsIoQfkUsWGKsBUjN2mKQ3NBqKJUEXZUPJmqcOmav8AD6nrx6jr2wOddaIxDtGmxSZY/pyq0vm+PE3jCMxqcxV30TwRzdctukZ0zcGhPMXpVKjq/NTk2OULwZoVmuP/AAqNACVtzD9vZHcVBiDZq3jCYjZKu2XkTQiDKck/YOR7jWgcy9AwqBVJWHIaO9EQtxklxp3bYl12FABAQH8WTSAs6timUtwzjCobyWwGLSiGO6aShVQyMKHFFifmsGy8TSoNQWMNE/h7FixYsWLNmzZs2bNmxYsWLFgwZMmTJkyZMmDJgwYOEQQG2QC8XWyI5S/HZRAy8DTdqK8V0wUrkJKz1cqLKEpjWOLKDQ79ksLZgu/J/wB7bohkSEq11srA1N9v2SbkjIdMKZZAaJnlU2YOnypC9O8qnL8dyrrYnC8jQDedjRz/AFjke41pJw0LGQqMYOT5qb7mZVYIW3DPaks1EzMVUIBKi2f8RVKQMfYVjlhZTKgBAQdh76boDk7n1Kt3lWTLar8JeJ0w/iyCoBtq0GlueQdiQBLwNN2gJGVd60x3t75KinYhidqEEsunS1XJCc9BQGMEniiQAlXIpwmItNebx1hBCY5uVSh2yJp4WcYgc0w4qrfIYjQ+gHJfD9fW26vCpXBYYvooAICA7AQJJRbOHB1/7SXMotz0f1AJQVdBEzDnRBjmO4alS3y87tUCijGExUKS+TYlA2bguDyd6FgR/DVSkDH2FLOQFkZbG9AQQHBJhB50I4IxwsiG44vUpoIuBu56O1W7yrJls1fjLxDL/n8MDmhGBuuVNFAweA0OxjN3QxoUzYEWQqxRhMHMaVILYBgb1KybOClmokyLjo1DxieSz/ygAgIDjIrC+8/HfxRqtuMXoodgUCOIPiSax1DX14pLWbNBcfU7/wBXCtbbo8KZcFhi+igAgIClAlYKkYJufYCIkocTkbC50iHkfof0jke41ohcBMDKlwKRJOdC5IYoMVbgyTB3Kg0VzJ8qWolM1FDEW/hymAcRntWOWFlMqAggKj2JXA1olKzcsjuqzEfCgxR7YeFLIIxuAIAjiOdKJZxjf4RRHUlYWzs3pn0rcl9lbLr3rZde9bLr3rZde9bLr3rZ9e9bPr3rY9e9bHr3rY9e9bHr3rY9e9bXr3ra9e9bXr3ra9e9bXr3ra9e9bXr3ra9e9bXr3ra9e9bXr3rZ9e9bPr3rZ9e9bPr3rZ9e9bPr3rZ9e9bPr3rZ9e9SYE0DzaKBuAg8uwiAl4Gm7QCWcU5tCoRIYRypRmCEcvzUoBSfKibY4BklZZJmlZ7KzOI71Z9DgCsBK0foQS1zPj2RNgYtJx854KNj4Q/qwzNhgdMKlcFhi0ACAgKcYJXlvQ11vNbPwpZWRo3GjmhEYRy4hAklTGaODr/ANq8xMT6fokIoYEvFLJEw5v3QSXhjDIUMBkYQiaAksKB1bVIKTNFoosfw22jCommByabZFACAg4cqsPfsYQsq/LPsIJCSNG0pCQXSps2MfxFAlQN6kyS0iUmd4yRl/ypJlKXgxak3mBKJcka5PmizchJd7UruxwYTAm5T2lDNzlL/wB4zv4w/T2M3eRRb+Dkz2oAICArCr5cbuwIzCx9uwRTBSV3N4p/P4YDWiYrbdYomkWtMnFeDS4xtgMJ1pYi4MuqrVwUr2/iqBoGnMZIXTj6r69jyNGBQGAVoJpge1UrZGZSHlTDjsxe3BTyETEYa+60/nwJERJ2zEQYA7Xoha2vtvneIAFfaaXAvRlVF+0YXMLDCvuNMTSayt3bRAy8DTdpOIJzVepPcUZF8gJOJQBWJzdNipoyCQDTn0I3dtoz1If+nEMigDQY9kFM3TUM+9l7+DEEyHJf1LctcaLw4XnPh5aroNDsXg2UoErAVoHkViuJrFRIUg3JMaJIWwt35gZQG9LJZRdkUiDgMT1avcpW5FXjrScqNgxUZl/yl0IYjL/tBEIP4uNEvuCndTVt1C8C8OF5z7FscC9ER4GB6FAAEBwU1LGLTagBAQHDo+rh1jR2+oa1gc/wo6xo7XT9OHmPX7QRAWBRGAzxHFagCZ6WKBJXQjvohCgCJak6kCRk1i6fT8F45O4zPD04pGH7gb1DMZmfMZcHpUlSApr7YC0mh88XA2Lbr/k+X6hOsGmFkiE58b68vEdib320kycGVAjDhi6fT87FEIgNoKZUJVwetTpK8Em7FRhLYGMilVPAxT0KRWFYso0oBAA0P4ykdCakMrwJ3aAAAgOAQJJUhcizMa+5VgYU3aZmQUAACA4IzxHcbc6AggOPR9XDrGjt9A1rA5/hx1jR2un6cPMev2WGiYWKUyyxnFrAxZtm8mr8tfwfdMJkAKTrQKwDgOe7SCOCw4Lr+FBIblK10SzBZ/DiWBcFCVCEO8LWF3kIh3cVpIgKueJfxh/USOMW3jRueEz4cTMNkwTKs7jotXxMqsah3/8AKAgQOLF0+n5gEoDVoAlCalQcEMJoVQ3WDpzp0BXEZblRhBUs5CllwIxTL/tBAEH8cSGpFAz30SVIQhy9+ylHgfQUAAIDglng8DlQEEB2Oj6uHSNHb6RrWBz/AAg6xo7XT9OHmPX7DAlCbEvBJhGhjSiiatHlVoOBuPJq5As3HJro6YfjDaW5pub0uJZsmG2jtB2nTA3XKlSQeFhsbfqshiLlLDEmT6UAUERhHLsjjhN3S3Ho6YfmCRwpG+ENST/qmxU2MD3VOICxg25N6HUDQqhusHTapmTMxk2zoIBB/JncAZ1a/wCDShBAxOO0hNQDQ4KbCO42oAQEB2WDuB67h1rR2+ga1gc/w46xo7XT9OHmPX42AS8DTdp5C5iE/SpJEYMljupFDN0XurfajMNnJMqGCJMdyUElAMC5nv8AlQQBGyOdPlHIT4cu6nWM1MfBikGPT+aWi1qb3mgEkal7vxQbYMu83P8AXTM8zWktazE12aOY7xy44hqCggg4Yun0/MCLAoxlvJ/3RLLSL4lacR1Vr1GHmJlUonASxgNedWykTxoBAA2/lzuEcHXZrDIvjCjUrDE4GRMVUpDtSM8R3G3OgIIDtRNRuaRxeHqcHGFpDSE+sdvoGtYHP8MOsaO10/Th5j1+EYglcCoBZD6G1EIjDIiWmZgOR61kA3YJo1aXGAHFaULAHn/Mxk+Z/wBqxHJz3ozJ3jlwsLoHz4dHTD85WDEuUpDJgd9IhzjNI3BFC3MRMX3VJXWDDA051gR/NnRIGeuzSRsvjChXQ8ZwasDgY+xTswsplyoCCA7VlSzLDu5etSJVYMBocIXSe7N3vfTt9I1rA5/hh1jR2un6cPMevwmTWfFTgSEtBs/8oASRowc4IcqgJRtCYpwTYZnV8fzlaV1vqpESxoc+dDYhZljRLlYYHqro6YfoIRiiVMIgc2b4pmbkMRoHURGaWkZ4juP+0BBAfz3bkDDekTErvVgkzls91ACAgOzK50Ztd2XfUiDWksb/AA4sGDQdh80FQ4AsB2+ka1gc/wAMOsaO10/Th5j1+BbBIpaABphdoogjMtI3PauBRLnAYdMv6BFxszWl2ZRz1GKaLi/paAHns0kiQHDP/ikptMqvRzoCCA/m7zxinlrTyBaBPG/lUi1G9Tmwaz+oUoFJk+rDzoQCIjgnYQ5HC35DFo5FrZ3lpT1iSpK8Aq/jBY5uBTYYXMLz1oyYEAEAfg6RrWBz/DDrGjtdf04eY9fjHbp3Yx3FK8JRAMOdAgnB07v8M+IuZjFAQQH82KlWa6abtYrZEnsn9TLbu0oNfmNi71i94WApCS4RW7j58KxG2JPALhCGV7qASxJLubl3UFJsiPv8XQNawOfZUCgBdXKmCwWbxOz3adyyRm8BDBAYAaOffRlMwYjo6PZ6/pw856/YWSyE4Dbw/wBowg2Hi2Ru+n4IwLZG4NEqQWOxyDgCgBVwCnpePCeVl3+FREtxb8x/J0jWsDn2YYzMGOg7+GNIwi0SOEN8wOBp3PTsstzB4R7cAU3a5yff/b4hxhq5He1LGJN+CHijELTAHvIO+LtRN21SgTZc/L3poh4r5u2/Yu42VibGfpUVE9x7tPzdI1rA59ljptORY8jgOEMKWV4NKQOGC47hypXpnB1Mnw4M/Mk1Yh7EAlwtpmerQYgLFsVodW8BS9ORwMLwTPlQiSMj/tmbRc3H/SeHGKZlJdN/SOwZYEISJUH48XZdzJ3cLCkKCSMNYZoeR/P0jWsDn2TOiEOSyeTwBGlz4hHg0EAZRAUZaMS0LHkcAMgMmk39+wP1jZ1ZNS2zZwDbbg1gixH5FBANIMif7VHJieL/AM44AgncHZ0Ec0WeLtY+yfmxpdDPhjSPSKj30YKjJFyehj2LnaCLJyfbuOAgfwUvEoUCDASHjwliVFyNHfhQQQdmOIDztnb0pGWQc9zU4X+pieLpesOGCf7RyJZ8Ej78QNZROYs+Y9lEJW76x6PjxRQhO84J/I6FlBdWgU8lfJ3m78UqqrK4rxLMmNKoDmWcvlQ0gzMXROBtzwmCVjlnm+c86elWIITgdR5hQRsZ0fBuy+L1e3C/FGXXxtSzlcs6nCRGYcPg70OlmCYrR/2bT1Gxpg+TPdxQCTK4fA0IgjI4Jx2Kht3oU+8ymMDQ8OAKJA5Bd8p/I+djcWQUwlwRoG22/jlPajqtkcBolJ5E2z844hQDoT61OjakPl+KaJ3NVqOtWvXWcHZ0eEMExHAaJTi2d0s7a0vypvruwPOk5FyHoKWkLoXsohAXLYOZ8eFYQIEkf9aZYBEcylzKrrMw+OI0LwuxycSncqDHnFIBPfR3HzTbCMnANAy4rB5QuWd7/bf8iziqRg5n27qMJCU6CA6G3XMwImw8eRnQfWiweBTgyokzzp8EPJh5jLjdBAWjk/nF8GEpBO3m2vz2xqK3mbm9DMATU/1quG4ixfDT2PCJqOZ23Qum9l6G2rQIgEAYB+O60KPoecUqsrK58FJnDzdO96TRlgQAgDiiAQhEkShCBOkzZ8TopivUWfM/O5MCESRKPZFJJkGLhwhGsTgjegWr2x3B800BMFk9yntY0fXgBMAu5GZ5j4/666XGDZdmmgQYRt55u6nrCxCE4yLuaFjm4FE1FzAO7ny9aBAAgAgD8ihZl4z7cTILoeTHt2TTLi+Me/FGcscoH5/QbGyrvZ4FYXzrOHlHEHmINV/31eDKMEfeJ/sCYC0H1UvL3MPSk5G6oXxaAAAYAfmYzPPT34k5ugc35dknm5PiPoPF1syP0BsaMu7gigxI0bPbjJwjQbF19PHghmXlC+3/AIDDpKobLnmHFnDAjgsnrWhEkZHsEQQ2Ns55GHjxYlFu3b+8foKXC4buPn68DpWYrjqb0XkeU08aaDK2u78Cl0ACDwHAHsZ6rHwPX/wJXuX7I1O59uLcLYFgdnTagaz6kT2p23skq+1GS5jN+blG1OAgOht1zpGScfKMjv8An9FJaXVk6cmkvDGQ7M7zEyDVoOLGLiub/wCBRjGKHvq8h/U1Nu0aSEpbz4R5uW+We8PfQZl+lgCiAXNnUpVYDC6+GNbCKENSQOjPpRgGbiXI+atgHEum7/4Jb8O8PjamGK4FY5mXZESLEI7mtWfh1ixt+qg4k1h/4QgolufLHvpKdrk9qYnaoPalAV3PnhQQQf8A78MeR3UAShNv8OEaUYsxXWA/zICUBq1MmacHGimhJ4xf/DDuXAMWpSkssYa+9LJIXJ/zAMkBSKCBiZbtRdywnN1oAICA/wALGsSuBrQAUlYvsUBQEkRoUIkjI/5iBVwdjem6mMQ1/wCVd2sdOlqbcZB9v0tONTPlUGAedLkha5Uy8VwKguwal6AJQmp/OvZZRDkRSFStfR90CuBGBpUSEmAe/wDFwrJw1OdQMgdkqEAvye+oPjAWoKJtxcKESRkf5YMkBWLAZFzUw2Q5hqUnJSbONJZYGLM5UAACA/RFGbdHhTIkdQz5VZcLGs0mjmKOC9ypuI5iERSLx3iHqUABkf5ZxIlYBnUiQOigKBFGQyOzQExcxHJpR2xcNX8VQJWAocTJoelqlIaOTF5VbCVNWRqOB11uKySN1YmTMmVIu4rEZb0IkjI/yQZICkUEDEy3ayIZJpCFZLjo1cAyXe4UAEjI61HZIRhNP0MXT6VODBspnQQQdlFycx0wqJJyroetAJQmp/JjlpVgNaAKZzOmxSw5xa9LyC7KhIiAXG086wLZPFUgxKiTP+JGfB51K4LDF9FABAQHZ6OmFRJCXdDLehEkZH+QbBkYTg0KQRwGlQ77GYzKYyQyCpEsvJqFSAlMuZRlCVWVc/z4un0qZ4BspnsUAEBAUBKA3pFxdw1KymOwipOY6YUzn1ie5QiCMj/HFl7qaxwbJib0RtK5mFILpG4qVLKWKUMwR9SmVySJzdt6ACAgP4WFa23R4Uy4LDF9FABAQFCyAbtdQawMexddPpULxHiGW5QBKE1P4oMkBQnBAxPVqUENsIyrAABjzNKMtoGI5UwAt0sKYiuzEozBdzXP86TNHTurQWOLrQAQEBTEAKwmmFXcVUVfYjILJUhw2ep2EXJfMdMKQedwHr/GjkErA1rMpWnoU65kkvNAcZVxzNagBiSzooVw3WD0wpmV2oxQAQEB/DFubZB6WpVwWGLQAICApxAlYbVdOYailMnMKdUwGmZr2I3Pi+lRmGMab/xYwfYTUglYYTnvWIEAQVJi5QqLnE+jtUyN8f0Fx1AauJsRLGmlBBBw7wwcjsCBnc92fZJK1Ryyqd7GP4gsqCrhQbMXaXGCVYMqsF5WnoUKQeWEtEELLeMnXypDbMyfxFxkwPKjDKATDPagAgIDhjOK25di3deXYUC6BvWthDHLKjAn+EDJAUE6uULeNN4pHFMjRzgplrpRAKarF/5SNQy6bU4O6Mu36MrRKhpAFwQ8uOKaKefY8hRYKU4u/ApiwUyUDEc6yggYuv8AEAarga0gY3SxQHgpacEoHOLEyanTiMIwKLWBpN6mBxN3V/i2Grl5U45XEex44JpJ2Lw1I4TfHMCnl6XwEcnOi8cA26ZfwlAlYqyigwHB3qF3to6YUQcLACjbIk9qZgsmF0/7ViGT6b0Zgvquf6RJ2BTupKrdhwbi/C9htmZLzrFBzPTCsOEzQw4utYEH8ONuvoTQEggWQmNqSbAmBkKQIsKe6hE1lS0gWW97HcqZSQcUz2KACAgP4xCLgkOVJXxQngXNWeT2FIc2XnUMiwMDphx6OmH8MJXCoPc1CDCyK9IpEjFsd9GO1MB0pdiMXShCxMR2oTB37/pKV0Jo3FwS58UEhJGoF+8x8a+wKjHQzldaCOAendWHBVQYOLrsUAEBAfxBZbJhdJtFKa+P2UEg2Qdy1h2xHcrH1+lQCLeNt/HgDIatLBQeXEBAE0ajIaTiVYzOZUDcZwY+NAQIHF0dMP4josjsxNIOOuDRkbdg6vigsKF1S4D4btGYLua5/ppIjnQX+B0NNhDI5DsspMBj0yrDgy4GM7rQAQEB/DKkipcCZzWaWbTjV1GOrphUIpIWHqVPCCpbIKVeAcUz2KACAgP44IsEisTRp5OtOqYDzNez0dMOOLp9P4QMkBTLcblpxbVrADYUnjlTsXBikpvuUkDEaFWJODrVgIgUgubcr0Zg71z/AFY2MJgmVTzSt6lJOWz1347AC0QmRwmaGHF1rAg/hmNVwNaRyvno2KbxGyV1XWBssbdmgmPOsXT6URQ37u1ABAQH8mNNgwaQMGK5b064J89+LRjGLUAAyOGLp9P4SgKsBSRIvinq0KKEszCawpssqjiMDB0p0GxqeI2oIm40Jgzxdf1zi4DB0rC23T1KfJeR4GHqNKS6lKqBg4uuxQAQEB/DJlokHcGWxQOBTYAzpIADEbtQJuNSWIEzo33rEoAICA/l2wYGDVjDPkqdYIHnvw8hQyHaujph/DCuMr0yKLrM6jhStnAvemkCYIoYJghTFpFjAxbAHOggj9k4uAwTKkIuDp6lCULJkLNRIZDApoWzpnQAQEB/EEtGIv4U2ysMnflREzktMTikBrSAUgAHvRMJVWTPY/nWCwcHXZqxh9lRglEzCzQplNFxedeDo8P4gUsSUB6YXllVwkmO9YimvFpagsHoFAIO91/bj2YTB0rDPMVRYG1MrWBB/Fm5RJTsiBuHNryoSydGnuGDEr0q5IOLrsUAEBAfz7RGBg0HaXcSKyU3GPP+NNISPeUILiw1USFcrfIudGYL6rn/AIWFKgYU8pEZmIfijCuKxnsUAEBAf5m4rPFGE0Zg71xf8OKApQAQEB/9K/8A/9k=;imageBorder=#FF7B2E;" parent="1" vertex="1">
          <mxGeometry x="440" y="497.53" width="450" height="450" as="geometry" />
        </mxCell>
        <mxCell id="7czTifKkjjsKiWsxUDza-68" value="" style="shape=image;html=1;verticalAlign=top;verticalLabelPosition=bottom;labelBackgroundColor=#ffffff;imageAspect=0;aspect=fixed;image=https://cdn4.iconfinder.com/data/icons/logos-and-brands/512/267_Python_logo-128.png;fontSize=24;" parent="1" vertex="1">
          <mxGeometry x="892" y="510" width="104" height="104" as="geometry" />
        </mxCell>
        <mxCell id="7czTifKkjjsKiWsxUDza-81" value="" style="strokeColor=#dddddd;shadow=1;strokeWidth=1;rounded=1;absoluteArcSize=1;arcSize=2;labelBackgroundColor=#000000;fontSize=24;fillColor=#000000;" parent="1" vertex="1">
          <mxGeometry x="895" y="870" width="130" height="60" as="geometry" />
        </mxCell>
        <mxCell id="7czTifKkjjsKiWsxUDza-82" value="TensorFlow" style="dashed=0;connectable=0;html=1;fillColor=#5184F3;strokeColor=none;shape=mxgraph.gcp2.tensorflow_logo;part=1;labelPosition=right;verticalLabelPosition=middle;align=left;verticalAlign=middle;spacingLeft=5;fontColor=#999999;fontSize=12;" parent="7czTifKkjjsKiWsxUDza-81" vertex="1">
          <mxGeometry width="42.3" height="45" relative="1" as="geometry">
            <mxPoint x="5" y="7" as="offset" />
          </mxGeometry>
        </mxCell>
        <mxCell id="DxvCCYt1fJeaU6Sl39u3-23" value="" style="shape=cross;whiteSpace=wrap;html=1;fontSize=24;size=0.08800048828125;labelBackgroundColor=#000000;fillColor=#000000;" vertex="1" parent="1">
          <mxGeometry x="918" y="800" width="62" height="60" as="geometry" />
        </mxCell>
        <mxCell id="DxvCCYt1fJeaU6Sl39u3-24" value="" style="shape=cross;whiteSpace=wrap;html=1;fontSize=24;size=0.13714181082588311;labelBackgroundColor=#000000;fillColor=#000000;" vertex="1" parent="1">
          <mxGeometry x="918" y="620" width="52" height="57.81" as="geometry" />
        </mxCell>
        <mxCell id="DxvCCYt1fJeaU6Sl39u3-129" value="" style="rounded=1;whiteSpace=wrap;html=1;strokeWidth=4;" vertex="1" parent="1">
          <mxGeometry x="620" y="2500" width="120" height="540" as="geometry" />
        </mxCell>
        <mxCell id="DxvCCYt1fJeaU6Sl39u3-130" value="Central data storage&#xa;" style="swimlane;startSize=23;fontSize=14;verticalAlign=top;" vertex="1" parent="1">
          <mxGeometry x="510" y="1230" width="380" height="470" as="geometry">
            <mxRectangle x="500" y="-280" width="170" height="23" as="alternateBounds" />
          </mxGeometry>
        </mxCell>
        <mxCell id="DxvCCYt1fJeaU6Sl39u3-131" value="" style="pointerEvents=1;shadow=0;dashed=0;html=1;strokeColor=none;labelPosition=center;verticalLabelPosition=bottom;verticalAlign=top;outlineConnect=0;align=center;shape=mxgraph.office.concepts.folder;fillColor=#00CCCC;" vertex="1" parent="DxvCCYt1fJeaU6Sl39u3-130">
          <mxGeometry x="40" y="50" width="50" height="45" as="geometry" />
        </mxCell>
        <mxCell id="DxvCCYt1fJeaU6Sl39u3-132" value="" style="pointerEvents=1;shadow=0;dashed=0;html=1;strokeColor=none;labelPosition=center;verticalLabelPosition=bottom;verticalAlign=top;outlineConnect=0;align=center;shape=mxgraph.office.concepts.folder;fillColor=#FF8000;" vertex="1" parent="DxvCCYt1fJeaU6Sl39u3-130">
          <mxGeometry x="40" y="100" width="50" height="45" as="geometry" />
        </mxCell>
        <mxCell id="DxvCCYt1fJeaU6Sl39u3-133" value="" style="pointerEvents=1;shadow=0;dashed=0;html=1;strokeColor=none;labelPosition=center;verticalLabelPosition=bottom;verticalAlign=top;outlineConnect=0;align=center;shape=mxgraph.office.concepts.folder;fillColor=#FF6666;" vertex="1" parent="DxvCCYt1fJeaU6Sl39u3-130">
          <mxGeometry x="40" y="150" width="50" height="45" as="geometry" />
        </mxCell>
        <mxCell id="DxvCCYt1fJeaU6Sl39u3-134" value="" style="pointerEvents=1;shadow=0;dashed=0;html=1;strokeColor=none;labelPosition=center;verticalLabelPosition=bottom;verticalAlign=top;outlineConnect=0;align=center;shape=mxgraph.office.concepts.folder;fillColor=#FF3399;" vertex="1" parent="DxvCCYt1fJeaU6Sl39u3-130">
          <mxGeometry x="40" y="210" width="50" height="45" as="geometry" />
        </mxCell>
        <mxCell id="DxvCCYt1fJeaU6Sl39u3-135" value="" style="pointerEvents=1;shadow=0;dashed=0;html=1;strokeColor=none;labelPosition=center;verticalLabelPosition=bottom;verticalAlign=top;outlineConnect=0;align=center;shape=mxgraph.office.concepts.folder;fillColor=#6666FF;" vertex="1" parent="DxvCCYt1fJeaU6Sl39u3-130">
          <mxGeometry x="40" y="270" width="50" height="45" as="geometry" />
        </mxCell>
        <mxCell id="DxvCCYt1fJeaU6Sl39u3-136" value="" style="pointerEvents=1;shadow=0;dashed=0;html=1;strokeColor=none;labelPosition=center;verticalLabelPosition=bottom;verticalAlign=top;outlineConnect=0;align=center;shape=mxgraph.office.concepts.folder;fillColor=#7FBA42;" vertex="1" parent="DxvCCYt1fJeaU6Sl39u3-130">
          <mxGeometry x="40" y="330" width="50" height="45" as="geometry" />
        </mxCell>
        <mxCell id="DxvCCYt1fJeaU6Sl39u3-137" value="" style="pointerEvents=1;shadow=0;dashed=0;html=1;strokeColor=none;labelPosition=center;verticalLabelPosition=bottom;verticalAlign=top;outlineConnect=0;align=center;shape=mxgraph.office.concepts.folder;fillColor=#FF0000;" vertex="1" parent="DxvCCYt1fJeaU6Sl39u3-130">
          <mxGeometry x="40" y="385" width="50" height="45" as="geometry" />
        </mxCell>
        <mxCell id="DxvCCYt1fJeaU6Sl39u3-138" value="&lt;font face=&quot;Lucida Console&quot; style=&quot;font-size: 14px&quot;&gt;&lt;b&gt;Art&lt;/b&gt;&lt;/font&gt;" style="text;html=1;strokeColor=none;fillColor=none;align=center;verticalAlign=middle;whiteSpace=wrap;rounded=0;" vertex="1" parent="DxvCCYt1fJeaU6Sl39u3-130">
          <mxGeometry x="100" y="47.5" width="40" height="50" as="geometry" />
        </mxCell>
        <mxCell id="DxvCCYt1fJeaU6Sl39u3-139" value="&lt;div&gt;&lt;b style=&quot;font-size: 14px ; font-family: &amp;#34;lucida console&amp;#34;&quot;&gt;Creativity&lt;/b&gt;&lt;/div&gt;" style="text;html=1;strokeColor=none;fillColor=none;align=right;verticalAlign=middle;whiteSpace=wrap;rounded=0;" vertex="1" parent="DxvCCYt1fJeaU6Sl39u3-130">
          <mxGeometry x="150" y="97.5" width="40" height="50" as="geometry" />
        </mxCell>
        <mxCell id="DxvCCYt1fJeaU6Sl39u3-140" value="&lt;font style=&quot;font-size: 14px&quot; face=&quot;Lucida Console&quot;&gt;&lt;b&gt;Defence&lt;/b&gt;&lt;/font&gt;" style="text;html=1;strokeColor=none;fillColor=none;align=center;verticalAlign=middle;whiteSpace=wrap;rounded=0;" vertex="1" parent="DxvCCYt1fJeaU6Sl39u3-130">
          <mxGeometry x="110" y="150" width="40" height="50" as="geometry" />
        </mxCell>
        <mxCell id="DxvCCYt1fJeaU6Sl39u3-141" value="&lt;font style=&quot;font-size: 14px&quot; face=&quot;Lucida Console&quot;&gt;&lt;b&gt;Love&lt;/b&gt;&lt;/font&gt;" style="text;html=1;strokeColor=none;fillColor=none;align=center;verticalAlign=middle;whiteSpace=wrap;rounded=0;" vertex="1" parent="DxvCCYt1fJeaU6Sl39u3-130">
          <mxGeometry x="100" y="210" width="40" height="50" as="geometry" />
        </mxCell>
        <mxCell id="DxvCCYt1fJeaU6Sl39u3-142" value="&lt;font style=&quot;font-size: 14px&quot; face=&quot;Lucida Console&quot;&gt;&lt;b&gt;Philosophy&lt;/b&gt;&lt;/font&gt;" style="text;html=1;strokeColor=none;fillColor=none;align=center;verticalAlign=middle;whiteSpace=wrap;rounded=0;" vertex="1" parent="DxvCCYt1fJeaU6Sl39u3-130">
          <mxGeometry x="120" y="270" width="40" height="50" as="geometry" />
        </mxCell>
        <mxCell id="DxvCCYt1fJeaU6Sl39u3-143" value="&lt;font style=&quot;font-size: 14px&quot; face=&quot;Lucida Console&quot;&gt;&lt;b&gt;Scientific&lt;/b&gt;&lt;/font&gt;" style="text;html=1;strokeColor=none;fillColor=none;align=center;verticalAlign=middle;whiteSpace=wrap;rounded=0;" vertex="1" parent="DxvCCYt1fJeaU6Sl39u3-130">
          <mxGeometry x="120" y="327.5" width="40" height="50" as="geometry" />
        </mxCell>
        <mxCell id="DxvCCYt1fJeaU6Sl39u3-144" value="&lt;font style=&quot;font-size: 14px&quot; face=&quot;Lucida Console&quot;&gt;&lt;b&gt;Spirituality&lt;/b&gt;&lt;/font&gt;" style="text;html=1;strokeColor=none;fillColor=none;align=center;verticalAlign=middle;whiteSpace=wrap;rounded=0;" vertex="1" parent="DxvCCYt1fJeaU6Sl39u3-130">
          <mxGeometry x="130" y="385" width="40" height="50" as="geometry" />
        </mxCell>
        <mxCell id="DxvCCYt1fJeaU6Sl39u3-145" value="" style="html=1;shadow=0;dashed=0;align=center;verticalAlign=middle;shape=mxgraph.arrows2.arrow;dy=0.67;dx=20;notch=0;" vertex="1" parent="DxvCCYt1fJeaU6Sl39u3-130">
          <mxGeometry x="190" y="53.75" width="180" height="37.5" as="geometry" />
        </mxCell>
        <mxCell id="DxvCCYt1fJeaU6Sl39u3-146" value="" style="html=1;shadow=0;dashed=0;align=center;verticalAlign=middle;shape=mxgraph.arrows2.arrow;dy=0.67;dx=20;notch=0;" vertex="1" parent="DxvCCYt1fJeaU6Sl39u3-130">
          <mxGeometry x="190" y="100" width="180" height="37.5" as="geometry" />
        </mxCell>
        <mxCell id="DxvCCYt1fJeaU6Sl39u3-147" value="" style="html=1;shadow=0;dashed=0;align=center;verticalAlign=middle;shape=mxgraph.arrows2.arrow;dy=0.67;dx=20;notch=0;" vertex="1" parent="DxvCCYt1fJeaU6Sl39u3-130">
          <mxGeometry x="190" y="153.75" width="180" height="37.5" as="geometry" />
        </mxCell>
        <mxCell id="DxvCCYt1fJeaU6Sl39u3-148" value="" style="html=1;shadow=0;dashed=0;align=center;verticalAlign=middle;shape=mxgraph.arrows2.arrow;dy=0.67;dx=20;notch=0;" vertex="1" parent="DxvCCYt1fJeaU6Sl39u3-130">
          <mxGeometry x="190" y="217.5" width="180" height="37.5" as="geometry" />
        </mxCell>
        <mxCell id="DxvCCYt1fJeaU6Sl39u3-149" value="" style="html=1;shadow=0;dashed=0;align=center;verticalAlign=middle;shape=mxgraph.arrows2.arrow;dy=0.67;dx=20;notch=0;" vertex="1" parent="DxvCCYt1fJeaU6Sl39u3-130">
          <mxGeometry x="190" y="277.5" width="180" height="37.5" as="geometry" />
        </mxCell>
        <mxCell id="DxvCCYt1fJeaU6Sl39u3-150" value="" style="html=1;shadow=0;dashed=0;align=center;verticalAlign=middle;shape=mxgraph.arrows2.arrow;dy=0.67;dx=20;notch=0;" vertex="1" parent="DxvCCYt1fJeaU6Sl39u3-130">
          <mxGeometry x="190" y="337.5" width="180" height="37.5" as="geometry" />
        </mxCell>
        <mxCell id="DxvCCYt1fJeaU6Sl39u3-151" value="" style="html=1;shadow=0;dashed=0;align=center;verticalAlign=middle;shape=mxgraph.arrows2.arrow;dy=0.67;dx=20;notch=0;" vertex="1" parent="DxvCCYt1fJeaU6Sl39u3-130">
          <mxGeometry x="200" y="391.25" width="180" height="37.5" as="geometry" />
        </mxCell>
        <mxCell id="DxvCCYt1fJeaU6Sl39u3-152" value="" style="shape=image;html=1;verticalAlign=top;verticalLabelPosition=bottom;labelBackgroundColor=#ffffff;imageAspect=0;aspect=fixed;image=https://cdn1.iconfinder.com/data/icons/science-technology-outline-24-px/24/Cone_filter_filtering_funnel_pipe-128.png;rotation=90;" vertex="1" parent="1">
          <mxGeometry x="332" y="1367.5" width="195" height="195" as="geometry" />
        </mxCell>
        <mxCell id="DxvCCYt1fJeaU6Sl39u3-153" value="" style="shape=image;html=1;verticalAlign=top;verticalLabelPosition=bottom;labelBackgroundColor=#ffffff;imageAspect=0;aspect=fixed;image=https://cdn3.iconfinder.com/data/icons/construction-and-tools-set-1-1/66/37-128.png;rotation=90;" vertex="1" parent="1">
          <mxGeometry x="229" y="1367.5" width="130" height="130" as="geometry" />
        </mxCell>
        <mxCell id="DxvCCYt1fJeaU6Sl39u3-154" value="&lt;font face=&quot;Times New Roman&quot; size=&quot;1&quot;&gt;&lt;b style=&quot;font-size: 26px&quot;&gt;Natural Language Generation&lt;/b&gt;&lt;/font&gt;" style="text;html=1;strokeColor=none;fillColor=none;align=center;verticalAlign=middle;whiteSpace=wrap;rounded=0;" vertex="1" parent="1">
          <mxGeometry x="240" y="1560" width="170" height="60" as="geometry" />
        </mxCell>
        <mxCell id="DxvCCYt1fJeaU6Sl39u3-157" value="" style="ellipse;whiteSpace=wrap;html=1;strokeWidth=4;" vertex="1" parent="1">
          <mxGeometry x="-2800" y="790" width="910" height="80" as="geometry" />
        </mxCell>
        <mxCell id="DxvCCYt1fJeaU6Sl39u3-158" value="" style="whiteSpace=wrap;html=1;aspect=fixed;strokeWidth=4;" vertex="1" parent="1">
          <mxGeometry x="112.19" y="588.62" width="267.81" height="267.81" as="geometry" />
        </mxCell>
        <mxCell id="DxvCCYt1fJeaU6Sl39u3-165" value="" style="shape=image;html=1;verticalAlign=top;verticalLabelPosition=bottom;labelBackgroundColor=#ffffff;imageAspect=0;aspect=fixed;image=https://cdn1.iconfinder.com/data/icons/nuvola2/128x128/apps/input_devices_settings.png;imageBackground=#CCFFFF;imageBorder=#000000;dashed=1;dashPattern=1 4;" vertex="1" parent="1">
          <mxGeometry x="-711.9999999999999" y="570" width="86" height="86" as="geometry" />
        </mxCell>
        <mxCell id="DxvCCYt1fJeaU6Sl39u3-166" value="" style="html=1;verticalLabelPosition=bottom;align=center;labelBackgroundColor=#ffffff;verticalAlign=top;strokeWidth=2;strokeColor=#B20000;shadow=0;dashed=0;shape=mxgraph.ios7.icons.microphone;fillColor=#e51400;fontColor=#ffffff;" vertex="1" parent="1">
          <mxGeometry x="-703.9999999999999" y="800" width="70" height="126" as="geometry" />
        </mxCell>
        <mxCell id="DxvCCYt1fJeaU6Sl39u3-167" value="" style="aspect=fixed;perimeter=ellipsePerimeter;html=1;align=center;shadow=0;dashed=0;spacingTop=3;image;image=img/lib/active_directory/user.svg;dashPattern=1 4;" vertex="1" parent="1">
          <mxGeometry x="-870" y="591.78" width="109.68" height="296.43" as="geometry" />
        </mxCell>
        <mxCell id="DxvCCYt1fJeaU6Sl39u3-168" value="" style="shape=partialRectangle;whiteSpace=wrap;html=1;bottom=1;right=1;left=1;top=0;fillColor=none;routingCenterX=-0.5;rotation=-90;strokeWidth=4;" vertex="1" parent="1">
          <mxGeometry x="-600" y="600.62" width="223.12" height="259.38" as="geometry" />
        </mxCell>
        <mxCell id="DxvCCYt1fJeaU6Sl39u3-171" value="&lt;font size=&quot;1&quot;&gt;&lt;b style=&quot;font-size: 27px&quot;&gt;User Input&lt;/b&gt;&lt;/font&gt;" style="text;html=1;strokeColor=none;fillColor=none;align=center;verticalAlign=middle;whiteSpace=wrap;rounded=0;" vertex="1" parent="1">
          <mxGeometry x="-239.99999999999997" y="600.62" width="160" height="42" as="geometry" />
        </mxCell>
        <mxCell id="DxvCCYt1fJeaU6Sl39u3-172" value="" style="shape=singleArrow;direction=south;whiteSpace=wrap;html=1;strokeWidth=4;rotation=-90;fillColor=#1ba1e2;strokeColor=#006EAF;fontColor=#ffffff;" vertex="1" parent="1">
          <mxGeometry x="-141.53" y="440" width="34.39" height="459.38" as="geometry" />
        </mxCell>
        <mxCell id="DxvCCYt1fJeaU6Sl39u3-174" value="" style="shape=doubleArrow;direction=south;whiteSpace=wrap;html=1;strokeWidth=4;fillColor=#1ba1e2;strokeColor=#006EAF;fontColor=#ffffff;" vertex="1" parent="1">
          <mxGeometry x="216.09" y="58.62" width="60" height="530" as="geometry" />
        </mxCell>
        <mxCell id="DxvCCYt1fJeaU6Sl39u3-175" value="" style="shape=doubleArrow;direction=south;whiteSpace=wrap;html=1;strokeWidth=4;fillColor=#fa6800;strokeColor=#C73500;fontColor=#000000;" vertex="1" parent="1">
          <mxGeometry x="229" y="860" width="60" height="507.5" as="geometry" />
        </mxCell>
        <mxCell id="DxvCCYt1fJeaU6Sl39u3-177" value="" style="line;strokeWidth=2;html=1;" vertex="1" parent="1">
          <mxGeometry x="116.09" y="725.31" width="253.91" height="10" as="geometry" />
        </mxCell>
        <mxCell id="DxvCCYt1fJeaU6Sl39u3-179" value="&lt;font size=&quot;1&quot;&gt;&lt;b style=&quot;font-size: 33px&quot;&gt;Text&lt;/b&gt;&lt;/font&gt;" style="text;html=1;strokeColor=none;fillColor=none;align=center;verticalAlign=middle;whiteSpace=wrap;rounded=0;fontSize=15;" vertex="1" parent="1">
          <mxGeometry x="-634" y="530" width="260" height="90" as="geometry" />
        </mxCell>
        <mxCell id="DxvCCYt1fJeaU6Sl39u3-180" value="&lt;font style=&quot;font-size: 33px&quot;&gt;&lt;b&gt;Voice&lt;/b&gt;&lt;/font&gt;" style="text;html=1;strokeColor=none;fillColor=none;align=center;verticalAlign=middle;whiteSpace=wrap;rounded=0;fontSize=15;" vertex="1" parent="1">
          <mxGeometry x="-663.5" y="800" width="335" height="170" as="geometry" />
        </mxCell>
        <mxCell id="DxvCCYt1fJeaU6Sl39u3-181" value="" style="shape=singleArrow;direction=south;whiteSpace=wrap;html=1;strokeWidth=4;rotation=90;fillColor=#fa6800;strokeColor=#C73500;fontColor=#000000;" vertex="1" parent="1">
          <mxGeometry x="-141.5249999999999" y="559.995" width="34.39" height="459.38" as="geometry" />
        </mxCell>
        <mxCell id="DxvCCYt1fJeaU6Sl39u3-182" value="&lt;font style=&quot;font-size: 31px&quot;&gt;&lt;b&gt;Machine output&lt;/b&gt;&lt;/font&gt;" style="text;html=1;strokeColor=none;fillColor=none;align=center;verticalAlign=middle;whiteSpace=wrap;rounded=0;fontSize=15;" vertex="1" parent="1">
          <mxGeometry x="-260" y="818" width="280" height="90" as="geometry" />
        </mxCell>
        <mxCell id="DxvCCYt1fJeaU6Sl39u3-186" value="" style="rounded=0;whiteSpace=wrap;html=1;fontSize=15;strokeWidth=4;fillColor=#1ba1e2;strokeColor=#006EAF;fontColor=#ffffff;" vertex="1" parent="1">
          <mxGeometry x="110" y="590" width="270" height="140" as="geometry" />
        </mxCell>
        <mxCell id="DxvCCYt1fJeaU6Sl39u3-187" value="" style="rounded=0;whiteSpace=wrap;html=1;fontSize=15;strokeWidth=4;fillColor=#fa6800;strokeColor=#C73500;fontColor=#000000;" vertex="1" parent="1">
          <mxGeometry x="110" y="730" width="270" height="130" as="geometry" />
        </mxCell>
        <mxCell id="DxvCCYt1fJeaU6Sl39u3-188" value="" style="verticalLabelPosition=bottom;shadow=0;dashed=0;align=center;html=1;verticalAlign=top;shape=mxgraph.electrical.transmission.8_line_bus;fontSize=15;strokeWidth=4;fillColor=#d5e8d4;strokeColor=#82b366;" vertex="1" parent="1">
          <mxGeometry x="380" y="640.31" width="60" height="180" as="geometry" />
        </mxCell>
      </root>
    </mxGraphModel>
  </diagram>
</mxfile>
